<svg version="1.1" id="Right" xmlns="http://www.w3.org/2000/svg" xmlns:xlink="http://www.w3.org/1999/xlink" x="0px" y="0px" viewBox="0 0 3137.3 1900.6" style="enable-background:new 0 0 3137.3 1900.6;" xml:space="preserve">
<style type="text/css">
	.st0{fill:#BBC290;}
	.st1{fill:url(#SVGID_1_);}
	.st2{fill:#333D29;}
	.st3{fill:#657243;}
	.st4{fill:none;}
	.st5{fill:url(#SVGID_00000018917023463360507810000016521820880493370021_);}
	.st6{fill:url(#SVGID_00000145058347648690253250000005241931541616691370_);}
</style>
<g id="Footer">
	
	
		<linearGradient id="SVGID_1_" gradientUnits="userSpaceOnUse" x1="1766.6039" y1="1301.5955" x2="1676.4441" y2="-741.0946" gradientTransform="matrix(1.67 8.452593e-03 -8.424954e-03 -1.3301 -1369.2037 2232.0115)">
		<stop offset="1.000000e-02" style="stop-color:#333D29"/>
		<stop offset="6.000000e-02" style="stop-color:#485334"/>
		<stop offset="0.12" style="stop-color:#657243"/>
	</linearGradient>
	<path class="st1" d="M-29.2,710.2c55.5,30.5,106.2,45.9,150.8,52.6c1.7,0.2,1.7,0.6,3.5,0.5c33.5-2.3,118.4,40.4,144.3,46.8   c12,3,164,31.1,191.8-31.5c5.8-13.1,75.8-44.5,167.5-64.4c200.4-43.5,354.2-12.2,560-15.8c-11.9,4-23.8,8.1-35.8,12.1   c77.2,7.1,166,3.8,222.4-8.1c16,3.3,18.7,9.5,5.5,12.8c87.6,8.5,172.2-9.8,264.1-7.6c51.2,1.2,98.1,8.5,148,12.4   c60.9,4.8,124.6,4.2,186.6,3.6c83.2-0.8,166.4-1.6,249.6-2.5c30.1-0.3,61-0.6,90.9,1.5c38.5,2.7,72.6,10.5,111.8,10.9   c140.1,1.4,210.3,82.6,264.8,88.9c149.5,17.1,88.9,33.9,88.5-21.6c-0.4-69.2,110.9-65,197.6-61.2c84.9,3.8,181.5,6.9,242.7-5.4   c17.4-3.5,43-9.3,48.3-25.9c7-22-23.1-57.6-57.1-70.7c-20.8-8-30.1-2.7-90.6-8.4c0,0-10.6-1-42.5-5   c-280.7-35.2-560.6-99.8-560.6-99.8c-675.8-213.4-1519.3,50.2-2259.3,56c-93.2,0.7-186.8,2.1-275.1,7.5   c-71.4,4.4-53.5-56.7-87.4-82.5c-8.5-6.5-22-12.2-44.1-11.2"/>
	<g>
		<path class="st2" d="M3009.5,61.8c-5.8-6.2-11.6-12.4-17.7-18.6C2998.1,49.3,3004,55.5,3009.5,61.8z"/>
		<path class="st2" d="M2834.3,58.2c-7.6,8.4-13.9,17.1-19,25.9C2817.7,74.8,2822.9,65.8,2834.3,58.2z"/>
		<path class="st2" d="M2729.6,300.4c-3.6-5.8-7.3-11.6-11.1-17.4C2722.7,288.8,2726.3,294.6,2729.6,300.4z"/>
		<path class="st2" d="M1843.7,186.4c5.5-4.9,11.3-9.8,17.7-14.5C1855.3,176.7,1849.4,181.5,1843.7,186.4z"/>
		<path class="st2" d="M2018.8,183.6c11.4,5.9,16.7,12.9,19,20.3C2032.7,196.9,2026.5,190.2,2018.8,183.6z"/>
		<path class="st2" d="M2123.6,373c3.2-4.6,6.9-9.1,11.1-13.6C2130.9,363.9,2127.2,368.4,2123.6,373z"/>
		<path class="st2" d="M1499.8,499.8c-1.1,44.4,0.9,88.7,8.4,132.7c256.2-27.2,516.3-7.8,775.4-6.7c17.7,2.9,36,3.5,54,4    c293.2,7.1,588.6-30,879,9.4c7.5-56.2,9.6-112.9,8.4-169.7c14,37,28.1,74,42.1,110.9c-7.9-57.6-23.2-119.1-45-182.3    c-1.4-23.5-3.1-46.9-5-70.2c-2.9,10.7-5.9,21.4-8.9,32c-23-60-51.6-121.2-85.2-181.5C3103,138,3076.7,98.4,3044.4,60    c77.1,93.4,93.1,196.6,102.2,297.6c2.3,24.9,4.1,49.9,4.3,74.9c-13.1-31.1-28.1-61.3-45-90.5c-4.1-23.8-9.9-47.6-17.7-71.2    c2.4-29.1,7.4-58.3,15.1-87.2c-9.2,23.6-16,47.4-20.6,71.3c-27.4-75.2-73.4-148.6-137.4-218.1c34.1,38.9,53.6,80.8,70.2,122.6    c22.7,57.2,40.6,114.8,53.6,172.7c-20.5-63-60.2-125.2-118.2-185.1c-9.3-9.6-25.7-19.5-46.5-29.2c-0.8-1.8-1.6-3.5-2.3-5.3    c0.2-5.5,0.4-10.9,0.7-16.4c-0.4,5.3-0.6,10.7-0.9,16c-3.4-7.7-7-15.4-11-23.1c3.9,7.8,7.5,15.7,11,23.6c-0.1,1.3-0.1,2.6-0.2,4    c-21.2-9.7-46.7-19.1-73.7-27.5c29.8,14.4,53.7,30,73.1,46.5c-1.4,64.4,4,128.8,16.4,192.9c3.8,19.7,8.3,39.4,14.1,59    c-9.2,9.2-13.9,23.6-14.5,39.8c-8.6,20-19.1,39.2-31.2,57.5c-2.1,1-4.2,1.9-6.3,2.8c-0.8-3.6-1.7-7.3-2.6-10.9    c30.2-97.4,10.7-198.5-56.6-291.2c-4.9-27.5-12-55-21.6-82.2c5.6,23.4,9.9,47,12.8,70.5c-5.5-7.1-11.3-14.2-17.4-21.3    c6.7,11,12.9,22,18.8,33.1c2.5,23.7,3.7,47.4,3.6,71.1c-9-17.7-19.6-35.1-31.9-52.4c10.4,36.6,20.1,73.2,29.1,109.8    c-4.4,45.8-13.6,91.4-27.6,136.5c-1,0.6-1.9,1.2-2.9,1.8c-4.8-31.2-9.2-62.4-13-93.6c4-42.7-0.3-85.5-12.9-127.8    c-1-13.1-1.9-26.1-2.8-39.2c16.6-48.4,33.2-96.9,49.8-145.3c-18.6,34.4-36,69.2-52.2,104c-1.2-22.7-2.1-45.4-2.7-68.1    c-0.2-7.6-0.2-15.6,1.7-23.2c-16.1,27.7-20.9,57.1-21.8,86.1c-0.2,5.6-0.2,11.1-0.1,16.7c-4.5-8.6-9.3-17.1-14.5-25.5    c4.9,22,9.8,44.1,14.3,66.3c-15.6,36.9-29.8,73.6-42.4,110.1c-6.5-12.6-13.6-25.1-21.2-37.5c8.6,15.7,13.9,31.9,17.6,48.2    c-5.6,16.6-10.9,33.1-15.8,49.6c-3.1-11.9-6.5-23.8-10.4-35.6c0.4-1.7,0.8-3.4,1.3-5.1c-0.6,1.2-1.2,2.4-1.8,3.5    c-6.6-19.8-14.3-39.5-23.2-59.1c7.5-27.1,16.9-54.1,28.2-80.9c-22.7,15.2-33.4,33.8-42.1,52.3c-0.4-0.8-0.8-1.5-1.2-2.3    c3-5.4,6.1-10.8,9.2-16.1c-3.8,4.2-7.5,8.4-11.1,12.6c-11.1-21.1-23.6-41.9-37.5-62.6c10.6,24.2,20.2,48.6,28.7,73.1    c-16.3,19.9-30.6,40-42.8,60.3c-17.3-118.2-25.1-239.7-23-360.9c-26,116.2-34.2,242.7-18.8,363.2c0.2,1.4,0.4,2.7,0.6,4.1    c0,2.8-0.1,5.6-0.1,8.4c-6.1-11.6-13.1-23.1-21-34.6c0.2-1.6,0.4-3.2,0.6-4.9c-0.6,0.5-1.3,1.1-1.9,1.7    c-3.7-11.3-7.9-22.6-12.5-33.8c-5-37.1-15.5-74-31.6-110.4c5.6,23.2,9.8,46.5,12.7,69.7c-1.7-3.3-3.4-6.5-5.1-9.8    c-0.6-8.5-1.5-17.1-2.8-25.6c-0.4,6.1-0.8,12.2-1.2,18.2c-0.7-1.2-1.4-2.5-2.1-3.7c-1.7-22.1-7.6-44.3-24.1-65.4    c2.1,6.3,2.1,12.9,1.9,19.2c-0.8,22.2-2.1,44.4-3.8,66.6c-5.9-5.3-11.9-10.5-18.2-15.7c3.1-10.1,6.5-20.3,10-30.4    c-4.3,9.6-8.2,19.1-12,28.8c-10.3-8.5-21.1-16.9-32.5-25.2c12.5-19.2,26.6-38.2,42-56.8c4.7,4.5,8.9,9.1,12.5,13.7    c-1.8-5.3-5.1-10.5-11.2-15.3c1-1.2,2-2.4,3-3.6c-1.3,1-2.5,2-3.8,3c-2.6-2-5.7-3.9-9.3-5.7c2.8,2.3,5.3,4.6,7.8,6.9    c-19.8,16-37,32.6-52,49.8c-3.4-2.4-6.9-4.8-10.5-7.2c3.5,2.4,7,4.8,10.4,7.3c-14.2,16.3-26.3,33.1-36.6,50.2    c0.1-0.9,0.1-1.9,0.2-2.8c-0.1,1-0.2,1.9-0.2,2.9c-1,1.6-1.9,3.3-2.9,4.9c-2.9-4.3-6-8.6-9.3-12.9c3.2,4.4,6.3,8.7,9.2,13.1    c-2.6,4.6-5.1,9.2-7.5,13.8c-5.6-3.9-11.4-7.8-17.4-11.6c2.5-1.8,5-3.6,7.8-5.4c-3.7,1.4-6.7,2.9-9.3,4.4    c-1.2-0.8-2.5-1.6-3.8-2.4c1,0.9,2,1.9,3,2.8c-3.9,2.4-6.7,4.9-8.6,7.6c-6.8-18.7-15-37.3-24.5-55.6c6.4,21.6,12.3,43.2,17.5,64.9    c-13.1,15-18,30.7-19.5,46.3c-0.7,1-1.4,1.9-2.1,2.9c-0.4-4.8-0.8-9.5-1.2-14.3c-1.3,6.6-2.2,13.3-2.8,20    c-1.8,2.5-3.5,5.1-5.1,7.6c2.9-18.2,7.1-36.4,12.7-54.5c-16.1,28.4-26.6,57.3-31.6,86.3c-4.6,8.8-8.8,17.6-12.5,26.4    c-0.6-0.4-1.3-0.9-1.9-1.3c0.2,1.3,0.4,2.5,0.6,3.8c-7.9,9-14.9,18-21,27c-0.1-2.2-0.1-4.4-0.1-6.5c0.2-1.1,0.4-2.1,0.6-3.2    c15.4-94.3,7.2-193.2-18.8-284.1c2.1,94.7-5.8,189.8-23,282.2c-12.2-15.9-26.5-31.6-42.8-47.2c8.6-19.1,18.1-38.2,28.7-57.1    c-13.9,16.1-26.4,32.5-37.5,49c-3.6-3.3-7.3-6.6-11.1-9.9c3.2,4.2,6.2,8.4,9.2,12.6c-0.4,0.6-0.8,1.2-1.2,1.8    c-8.8-14.5-19.4-29-42.1-40.9c11.4,20.9,20.8,42,28.2,63.2c-8.9,15.3-16.7,30.8-23.2,46.3c-0.6-0.9-1.2-1.8-1.8-2.8    c0.5,1.3,0.9,2.7,1.3,4c-3.9,9.3-7.4,18.6-10.4,27.9c-4.9-12.9-10.2-25.8-15.8-38.8c3.7-12.7,9-25.4,17.6-37.7    c-7.6,9.7-14.7,19.5-21.2,29.3c-12.6-28.5-26.7-57.3-42.3-86.1c4.4-17.4,9.3-34.7,14.3-51.9c-5.2,6.6-10,13.3-14.5,19.9    c0.1-4.4,0.1-8.7-0.1-13.1c-0.9-22.7-5.8-45.7-21.8-67.3c1.9,6,1.9,12.2,1.7,18.1c-0.6,17.7-1.6,35.5-2.7,53.2    c-16.1-27.3-33.5-54.4-52.2-81.4c16.6,37.9,33.2,75.8,49.8,113.6c-0.8,10.2-1.8,20.5-2.8,30.7c-12.6,33-16.8,66.6-12.8,99.9    c-3.8,24.4-8.2,48.8-13,73.2c-1-0.5-1.9-0.9-2.9-1.4c-14-35.3-23.3-71-27.6-106.8c9-28.7,18.6-57.3,29.1-85.9    c-12.4,13.5-22.9,27.2-31.9,41c-0.1-18.5,1-37.1,3.6-55.6c5.9-8.7,12.1-17.3,18.8-25.9c-6.1,5.5-11.9,11-17.4,16.6    c2.9-18.4,7.2-36.8,12.8-55.2c-9.5,21.3-16.7,42.8-21.6,64.3c-67.2,72.5-86.8,151.6-56.6,227.8c-0.9,2.8-1.8,5.7-2.6,8.6    c-2.1-0.7-4.2-1.5-6.3-2.2c-12.1-14.3-22.5-29.4-31.2-45c-0.6-12.7-5.2-24-14.5-31.1c5.8-15.3,10.2-30.7,14.1-46.1    c12.3-50.1,17.8-100.5,16.4-150.8c19.5-12.9,43.3-25.1,73.1-36.3c-27,6.6-52.5,13.9-73.7,21.5c-0.1-1-0.1-2.1-0.2-3.1    c3.5-6.2,7.1-12.3,11-18.4c-4,6-7.6,12-11,18.1c-0.3-4.2-0.6-8.4-0.9-12.5c0.3,4.3,0.6,8.6,0.7,12.8c-0.8,1.4-1.6,2.8-2.3,4.1    c-20.8,7.6-37.2,15.4-46.5,22.9c-58,46.8-97.7,95.5-118.2,144.8c13.1-45.3,31-90.4,53.7-135.1c16.6-32.6,36.1-65.4,70.2-95.9    c-64.1,54.3-110.1,111.8-137.4,170.6c-4.6-18.7-11.4-37.3-20.6-55.8c7.7,22.7,12.7,45.4,15.1,68.2c-7.7,18.5-13.6,37-17.7,55.7    c-16.9,22.8-31.9,46.5-45,70.8c0.2-19.6,2-39.1,4.3-58.6c9.2-79,25.1-159.7,102.2-232.8c-32.3,30-58.6,61.1-78.7,92.7    c-33.6,47.2-62.2,95-85.2,142c-2.9-8.4-5.9-16.7-8.9-25.1c-1.9,18.3-3.7,36.6-5,55c-21.8,49.4-37.1,97.5-45,142.6    C1471.6,557.6,1485.7,528.7,1499.8,499.8L1499.8,499.8z M3162.3,461.1c10.1-48,11.6-96.5,4.6-144.7c10.3,27.1,20.6,54.2,30.9,81.3    c-8.5,30.6-16.9,61.2-25.4,91.8C3169.2,480,3165.8,470.5,3162.3,461.1L3162.3,461.1z M2904.1,117.7c-0.7-0.3-1.4-0.7-2.1-1    c0-1.2,0-2.4,0.1-3.7C2902.8,114.6,2903.5,116.1,2904.1,117.7L2904.1,117.7z M3015.8,366.5c2,8.9,3.9,17.8,5.6,26.7    c-1.7,6.2-3.3,12.5-4.8,18.8C3017.9,396.8,3017.9,381.6,3015.8,366.5z M2944.1,360.9c6.5-70.6-2.6-141.5-27.4-211.1    c38.2,37.8,56.3,79,70.4,119.3c7.8,22.1,14.7,44.2,20.8,66.4c-8.7-23.8-23.3-45.5-42.3-62.3c2.9,23,5.4,47,5.3,70.6    c-9.9,8.8-17.7,17.8-23.7,26.8C2946.3,367.2,2945.2,364,2944.1,360.9L2944.1,360.9z M2936.2,348.3    c-20.3-70.5-33.6-141.2-34.3-212.2c5.1,4.3,9.8,8.6,14.3,13C2937.7,214.7,2941.5,281.4,2936.2,348.3z M2867.3,442.1    c3.6-12,6.1-24,7.5-36c0.8,19,0.3,38.1-1.2,57.1C2871.7,456.1,2869.6,449.1,2867.3,442.1z M2863.3,425.7    c-4.7-48.8-14.8-97.2-35-144.5c0.4-24.8-1-49.6-4.3-74.4c24.3,50.8,40,102.5,47.1,154.6C2870.7,383.4,2868.1,405,2863.3,425.7z     M2800,440.3c10.2-29.9,17.7-60.1,22.3-90.4c3.7,15.9,7.2,31.7,10.6,47.6C2825.6,413.9,2814,428.5,2800,440.3L2800,440.3z     M2744.9,315.5c-6-12.1-12.8-24-20.4-35.9c4-11.7,8-23.4,12-35.1C2740.4,268.1,2743.3,291.8,2744.9,315.5L2744.9,315.5z     M2740.6,470.3c4.7-10.7,8.9-21.5,12.6-32.3c1.9,8.8,3.6,17.7,5.1,26.5C2752.6,466.8,2746.6,468.7,2740.6,470.3L2740.6,470.3z     M2734.6,449.7c-6.6-35.1-17.5-70-32.6-104.4c5.3-15.6,10.7-31.2,16-46.8c6.8,33.4,16.7,66.7,25.5,100.2    C2741.7,415.6,2738.8,432.7,2734.6,449.7L2734.6,449.7z M2676.8,418.9c5-14.6,10-29.1,15-43.7c5.2,34.6,10.7,68.9,18.9,100.7    c-1.9-0.9-3.9-1.7-5.8-2.6c-8.1-3.9-15.9-8.6-23.1-13.9C2680.7,445.9,2679,432.4,2676.8,418.9L2676.8,418.9z M2651.7,414.3    c0.6,2.7,1.1,5.4,1.7,8.1c-0.2,0.6-0.3,1.2-0.4,1.8C2652.5,420.9,2652.1,417.6,2651.7,414.3z M2625.2,308.5    c5.8,19.8,11.1,39.5,15.9,59.3c-12.1,27.8-21.9,56.6-29.2,86.1C2610.2,405.3,2614.6,356.7,2625.2,308.5L2625.2,308.5z     M2570.1,349.4c11.2-29.7,24.3-59.4,39.9-88.8c0.5,1.5,1,2.9,1.5,4.4c-15.3,33.8-29.5,67.8-38.4,102    C2572,361.1,2571,355.3,2570.1,349.4z M2497.2,352.4c2.9,7.4,5.6,14.8,8.2,22.2c2.3,18.2,3.7,36.4,4.4,54.6    C2499.8,405.6,2496.8,379.2,2497.2,352.4z M2259.8,301.4c-0.5,8.4-0.6,16.7-0.3,25.1c-2.7,2.3-5.3,4.5-7.9,6.8    c0.4-6.2,1-12.4,1.8-18.5C2255.4,310.3,2257.6,305.8,2259.8,301.4z M2267.5,319.9c-0.1,0.1-0.2,0.2-0.3,0.2    c-0.8-9.5-1.6-18.9-2.4-28.4c0.5-0.9,1-1.8,1.4-2.7c0,0.3-0.1,0.6-0.1,0.9C2265.6,299.9,2266.2,309.9,2267.5,319.9L2267.5,319.9z     M2278.2,368.7c1.4,5.1,2.8,10.2,4.2,15.4c-0.1,2.5-0.3,5-0.4,7.6c-2.9-2.8-5.7-5.5-8.7-8.2c-0.2,0.3-0.4,0.6-0.6,0.9    c-1.2-14.5-2.5-29-3.8-43.5c0.6-0.8,1.2-1.6,1.8-2.4C2272.9,348.5,2275.5,358.6,2278.2,368.7L2278.2,368.7z M2449.8,285.9    c1.8-5.1,3.7-10.2,5.6-15.3c-1.1,17.1-2.3,34.2-3.5,51.3c-0.2-0.4-0.4-0.7-0.6-1.1c-4.2,4.9-8.2,9.9-12.2,14.9    c2.5-11.2,4.9-22.5,7.3-33.7C2447.6,296.6,2448.7,291.2,2449.8,285.9L2449.8,285.9z M2399.8,310.7c-1.3-1.9-2.7-3.8-4.1-5.7    c2.1-2.4,4.2-4.8,6.4-7.2C2401.4,302,2400.6,306.3,2399.8,310.7L2399.8,310.7z M2336.7,258c-0.8,5.3-1.5,10.6-2.1,15.9    c-0.3,0.2-0.6,0.3-0.9,0.5c-0.5-3.8-0.9-7.6-1.2-11.4c0.9-2.2,1.8-4.5,2.7-6.7C2335.7,256.9,2336.2,257.4,2336.7,258L2336.7,258z     M2305.9,361.8c0.6,8.8,1.1,17.5,1.3,26.1c-1-3.9-2-7.8-3.1-11.7C2304.6,371.4,2305.2,366.6,2305.9,361.8L2305.9,361.8z     M2318.3,346c-0.7-10-1.8-20.1-3.2-30.1c0.8-2.9,1.6-5.8,2.4-8.8c6.1,17.3,11.3,34.6,15.5,52c0.8,10.3,1.9,20.7,3.4,31    c-1.8,3.4-3.6,6.7-5.4,10.1C2326.4,382.2,2322.1,364.1,2318.3,346L2318.3,346z M2367.2,388.8c-2-4.7-4-9.4-5.8-14    c-0.4-1.9-0.7-3.7-1.1-5.6c2.2-8.3,5.2-16.5,9.1-24.8C2369.7,359.2,2368.9,374,2367.2,388.8L2367.2,388.8z M2375.3,334.4    c-0.1-0.4-0.1-0.7-0.2-1.1c0.1-0.3,0.3-0.5,0.5-0.8C2375.5,333.1,2375.4,333.8,2375.3,334.4L2375.3,334.4z M2334.2,277.6    c-0.1-0.8-0.2-1.6-0.3-2.5c0.2-0.1,0.4-0.3,0.6-0.4C2334.4,275.7,2334.3,276.7,2334.2,277.6L2334.2,277.6z M2331.8,331.5    c-3.8-10.1-8-20.2-12.6-30.3c2-6.8,4.2-13.5,6.6-20.3c1.7-1.2,3.4-2.5,5.1-3.7c0.4,6.9,0.9,13.7,1.6,20.6    C2331.9,309.1,2331.6,320.3,2331.8,331.5L2331.8,331.5z M2326.6,278.7c1.3-3.5,2.6-7.1,3.9-10.6c0.1,2.7,0.2,5.3,0.4,8    C2329.4,277,2328,277.9,2326.6,278.7L2326.6,278.7z M2345.6,268.4c5.4,6.5,10.5,13,15.4,19.6c5,17.9,7.5,35.9,8.2,53.9    c-3.9,6.9-7.4,13.8-10.2,20.6c-0.5-2.9-1.1-5.7-1.6-8.5c0-0.1,0-0.2,0-0.2c0,0,0,0.1-0.1,0.1    C2352.2,325.4,2348.3,296.9,2345.6,268.4L2345.6,268.4z M2366.1,295.2c4.4,6.3,8.6,12.6,12.5,19c-1.1,5.7-2,11.3-2.9,17    c-0.3,0.4-0.5,0.8-0.8,1.2C2373.1,320,2370.1,307.6,2366.1,295.2L2366.1,295.2z M2390.5,349.7c-0.9-7.2-2.2-14.4-3.7-21.5    c1.9,3.4,3.7,6.7,5.4,10.1C2391.8,342.1,2391.2,345.9,2390.5,349.7L2390.5,349.7z M2288.7,250.5c3.3,14.6,6.2,29.3,8.8,43.9    c-0.4,1.3-0.8,2.6-1.1,3.9c-1.3,0.9-2.6,1.8-3.9,2.8C2290.8,284.2,2289.6,267.4,2288.7,250.5L2288.7,250.5z M2319,239    c-5,10.2-9.5,20.4-13.3,30.7c-3.4-12.9-7.4-25.8-12.1-38.6c2.9-2.6,6-5.2,9.4-7.8C2308.6,228.5,2313.9,233.8,2319,239L2319,239z     M2344.1,251.3c-0.2-2.4-0.4-4.7-0.5-7.1c2,3.7,3.8,7.5,5.5,11.2C2347.4,254.1,2345.8,252.7,2344.1,251.3z M2410.7,201.8    c-11.3,29.2-20.3,58.7-27,88c-8.2-9.6-17.4-19-27.6-28.2c3.4-1.9,6.9-3.8,10.4-5.7c-3.7,1.9-7.1,3.7-10.5,5.6    c-1.9-1.7-3.8-3.4-5.8-5.1c-2.1-4.2-4.3-8.3-6.6-12.5c-0.1-1.9-0.2-3.8-0.4-5.7c10.2-22,22.4-43.8,36.4-65.2    C2391.5,182.3,2401.8,192,2410.7,201.8L2410.7,201.8z M2431.4,227.4c-3.1,38.3-7.5,76.5-13,114.8c-1.1-2.2-2.2-4.4-3.3-6.6    c2.3-37.8,1.2-75.7-1-113.4c-3.4,25.1-7.4,50.2-11.8,75.3c-2.3,2.4-4.4,4.8-6.6,7.2c-0.9-1.3-1.9-2.6-2.9-3.8    c-0.1-0.8-0.2-1.5-0.2-2.3c0.1,0.7,0.1,1.5,0.2,2.2c-0.8-1-1.6-2.1-2.4-3.1c5.6-31.3,13.1-62.6,22.6-93.6    C2419.7,211.8,2425.8,219.6,2431.4,227.4L2431.4,227.4z M2455.7,266.1c-0.1,1.2-0.2,2.3-0.2,3.5c-1.3,1.9-2.5,3.8-3.7,5.8    c0.8-4.1,1.5-8.2,2.2-12.3C2454.6,264.1,2455.1,265.1,2455.7,266.1L2455.7,266.1z M2460,203.4c-0.8,12.1-1.6,24.2-2.4,36.3    c-0.1-0.1-0.2-0.2-0.3-0.3c1.3-12.8,1.9-25.6,1.4-38.3c0-0.4-0.1-0.7-0.1-1.1C2459,201.1,2459.5,202.3,2460,203.4L2460,203.4z     M2473.1,256.6c-2.6-2.9-5.2-5.8-7.9-8.7c0.2-10.7,0.2-21.4-0.3-32.1c2.2,5.7,4.4,11.4,6.4,17.1    C2472.1,240.8,2472.7,248.7,2473.1,256.6z M2473.1,322.2c-4.3,6.5-8,13.3-11.2,20.3c-0.9-2.3-1.9-4.6-2.9-6.8    c1.7-18.4,3.5-36.9,4.8-55.3c3.6,6.5,7,13.1,10.3,19.6C2473.8,307.4,2473.5,314.8,2473.1,322.2L2473.1,322.2z M2250.8,367.2    c3.3-5.1,6.7-10.2,10.3-15.3c1.3,14.4,3.1,28.9,4.8,43.3c-1,1.8-2,3.5-2.9,5.3c-3.2-5.5-6.9-10.8-11.2-15.9    C2251.2,378.8,2250.9,373,2250.8,367.2L2250.8,367.2z M2214.8,468.2c0.7-14.2,2.2-28.5,4.4-42.7c2.6-5.8,5.3-11.6,8.2-17.4    C2227.9,429.1,2225,449.8,2214.8,468.2L2214.8,468.2z M2113.3,339.8c0.5-1.1,1-2.3,1.5-3.4c15.6,23,28.6,46.2,39.9,69.5    c-1,4.6-1.9,9.2-2.9,13.8C2142.8,392.8,2128.5,366.2,2113.3,339.8L2113.3,339.8z M2083.6,420.2c4.9-15.5,10.1-31,15.9-46.4    c10.6,37.7,15,75.8,13.3,113.7C2105.5,464.5,2095.7,441.9,2083.6,420.2z M2071.3,462.9c0.6-2.1,1.1-4.2,1.7-6.3    c-0.4,2.6-0.8,5.1-1.3,7.7C2071.6,463.8,2071.4,463.3,2071.3,462.9z M2000.2,351.2c-7.6,9.3-14.4,18.6-20.4,28.1    c1.6-18.5,4.5-37.1,8.4-55.6C1992.2,332.9,1996.2,342,2000.2,351.2z M2014.1,504.8c8.2-24.9,13.7-51.7,18.9-78.8    c5,11.4,10,22.8,15,34.2c-2.2,10.5-3.9,21.1-5,31.6c-7.3,4.2-15,7.8-23.1,10.9C2017.9,503.4,2016,504.1,2014.1,504.8L2014.1,504.8    z M1990.1,484.2c-4.2-13.3-7.1-26.6-9-40c8.8-26.1,18.8-52.2,25.5-78.3c5.3,12.2,10.7,24.4,16,36.6    C2007.6,429.5,1996.7,456.8,1990.1,484.2L1990.1,484.2z M1966.4,495.8c1.5-6.9,3.2-13.8,5.1-20.8c3.7,8.5,7.8,16.9,12.6,25.3    C1978.1,499.1,1972.2,497.6,1966.4,495.8z M1891.8,443.4c3.4-12.4,6.9-24.8,10.6-37.2c4.7,23.7,12.2,47.3,22.3,70.7    C1910.7,467.7,1899.1,456.3,1891.8,443.4L1891.8,443.4z M1861.4,465.4c-4.8-16.2-7.4-33-7.7-50.2c7-40.7,22.7-81.2,47.1-120.9    c-3.3,19.4-4.7,38.8-4.3,58.2C1876.2,389.4,1866.2,427.3,1861.4,465.4L1861.4,465.4z M1849.9,450.1c1.5,9.4,4,18.8,7.5,28.2    c-2.2,5.5-4.3,11-6.3,16.5C1849.5,479.9,1849.1,465,1849.9,450.1z M1822.7,223.8c-0.7,0.3-1.4,0.5-2.1,0.8    c0.7-1.2,1.4-2.4,2.1-3.6C1822.7,221.9,1822.7,222.8,1822.7,223.8L1822.7,223.8z M1808.6,249.2c4.5-3.4,9.2-6.8,14.3-10.2    c-0.7,55.5-13.9,110.8-34.3,166C1783.3,352.6,1787,300.5,1808.6,249.2L1808.6,249.2z M1716.8,394.9c6-17.3,13-34.7,20.8-51.9    c14.2-31.5,32.2-63.7,70.4-93.3c-24.8,54.4-33.9,109.9-27.4,165.1c-1.1,2.5-2.1,5-3.1,7.5c-6-7-13.8-14-23.7-21    c-0.1-18.4,2.4-37.2,5.3-55.2C1740.1,359.3,1725.5,376.3,1716.8,394.9L1716.8,394.9z M1703.3,440.1c1.7-7,3.6-13.9,5.6-20.9    c-2.2,11.8-2.2,23.7-0.9,35.5C1706.6,449.8,1705,444.9,1703.3,440.1L1703.3,440.1z M1527,443.6c10.3-21.2,20.6-42.4,30.9-63.6    c-7,37.7-5.5,75.6,4.6,113.1c-3.5,7.4-6.9,14.8-10.1,22.2C1543.9,491.5,1535.4,467.6,1527,443.6L1527,443.6z"/>
	</g>
	<path class="st3" d="M-96.9,1245.4c2.6,93.3,7.9,186.5,13.6,279.7c2.7,44.7,5.5,89.4,8.1,134.2c56.5,2,113.1,3.8,169.7,5.3   c280.8-70.1,576.1-70.6,866.4-74c176.5-2.1,353.1-2.6,529.7-2.7c87.2-0.1,174.8-1.8,261.9,2.3c83.8,4,167.3,12.7,250.4,23.3   c9.8,1.2,19.6,2.5,29.4,3.8c423.8-32.3,844.2-78.9,1258-139.8c0-37,0-73.9-0.1-110.9c-0.6-191.8-3.5-383.7-9.4-575.4   c-2.5-79.6-5.5-159.1-9.1-238.6c-11.2-0.4-22.5-0.4-33.9,0.1c-79.4,3.6-149.1,31.5-227.2,40.2c-60.7,6.7-123.3,1.5-184.4-3.7   c-168.7-14.4-337.4-28.8-506-43.2c-125.6-10.7-254.8-21.4-378.6-5.4c-101.3,13-196.9,43.6-300.8,43.1   c-140.2-0.7-271.3-57.9-403.3-73c-47.7-5.5-95.2,13.3-122,48.7c-4.8,6.4-12.2,12.1-21.9,16.4c-81.7-47.3-197.4-74.5-314.3-76.8   c-56.7-1.1-112.8,11.2-162,36c-14.5,7.3-32.8,15.1-49.7,22.7c-49.9,22.5-106.2,31.1-161.6,24.6c-193.5-22.8-347.7-47.6-512.3-68.6   c-4.1,153.5,2.2,307.1,5.8,460.6C-98.6,1064.8-99.4,1155.1-96.9,1245.4L-96.9,1245.4z"/>
	<rect x="831" y="461.7" class="st4" width="1426.9" height="1126.4"/>
	<g>
		<path class="st3" d="M242.1,107.8c5.8-6.2,11.6-12.4,17.7-18.6C253.4,95.3,247.6,101.5,242.1,107.8z"/>
		<path class="st3" d="M417.2,104.2c7.6,8.4,13.9,17.1,19,25.9C433.9,120.7,428.6,111.7,417.2,104.2z"/>
		<path class="st3" d="M522,346.4c3.6-5.8,7.3-11.6,11.1-17.4C528.8,334.7,525.2,340.5,522,346.4z"/>
		<path class="st3" d="M1407.9,232.3c-5.5-4.9-11.3-9.8-17.7-14.5C1396.3,222.6,1402.1,227.5,1407.9,232.3z"/>
		<path class="st3" d="M1232.8,229.6c-11.4,5.9-16.7,12.9-19,20.3C1218.8,242.9,1225.1,236.1,1232.8,229.6z"/>
		<path class="st3" d="M1128,419c-3.2-4.6-6.8-9.1-11.1-13.6C1120.7,409.9,1124.4,414.4,1128,419z"/>
		<path class="st3" d="M1729.7,657.5c-7.9-45-23.2-93.2-45-142.6c-1.4-18.3-3.1-36.7-5-55c-2.9,8.4-5.9,16.7-8.9,25.1    c-23-47-51.6-94.8-85.2-142c-20.1-31.6-46.3-62.6-78.7-92.7c77.1,73.1,93.1,153.8,102.2,232.8c2.3,19.5,4.1,39,4.3,58.6    c-13.1-24.3-28.1-48-45-70.8c-4.1-18.6-9.9-37.2-17.7-55.7c2.4-22.8,7.4-45.6,15.1-68.2c-9.2,18.5-16,37.1-20.6,55.8    c-27.4-58.8-73.4-116.2-137.4-170.6c34.1,30.4,53.6,63.2,70.2,95.9c22.7,44.7,40.6,89.8,53.7,135.1    c-20.5-49.3-60.2-97.9-118.2-144.8c-9.3-7.5-25.7-15.3-46.5-22.9c-0.8-1.4-1.6-2.8-2.3-4.1c0.2-4.3,0.4-8.5,0.7-12.8    c-0.3,4.2-0.7,8.4-0.9,12.5c-3.4-6-7-12.1-11-18.1c3.9,6.1,7.5,12.3,11,18.4c-0.1,1-0.1,2.1-0.2,3.1c-21.2-7.6-46.7-15-73.7-21.5    c29.8,11.3,53.7,23.5,73.1,36.3c-1.4,50.3,4,100.7,16.4,150.8c3.8,15.4,8.3,30.8,14.1,46.1c-9.2,7.2-13.9,18.4-14.5,31.1    c-8.6,15.6-19.1,30.7-31.2,45c-2.1,0.8-4.2,1.5-6.3,2.2c-0.8-2.9-1.7-5.7-2.6-8.5c30.2-76.2,10.7-155.3-56.6-227.8    c-4.9-21.5-12-43-21.6-64.3c5.6,18.3,9.9,36.7,12.8,55.2c-5.5-5.6-11.3-11.1-17.4-16.6c6.7,8.6,12.9,17.2,18.8,25.9    c2.5,18.5,3.7,37.1,3.6,55.6c-9-13.8-19.6-27.5-31.9-41c10.4,28.6,20.1,57.2,29.1,85.9c-4.4,35.8-13.6,71.5-27.6,106.8    c-1,0.5-1.9,1-2.9,1.4c-4.8-24.4-9.2-48.8-13-73.2c4-33.4-0.3-66.9-12.8-99.9c-1-10.2-1.9-20.5-2.8-30.7    c16.6-37.9,33.2-75.8,49.8-113.6c-18.6,26.9-36,54.1-52.2,81.4c-1.2-17.7-2.1-35.5-2.7-53.2c-0.2-6-0.2-12.2,1.7-18.1    c-16.1,21.7-20.9,44.7-21.8,67.3c-0.2,4.4-0.2,8.7-0.1,13.1c-4.5-6.7-9.3-13.3-14.5-19.9c4.9,17.2,9.8,34.5,14.3,51.9    c-15.6,28.8-29.8,57.6-42.3,86.1c-6.5-9.8-13.6-19.6-21.2-29.3c8.6,12.3,13.9,24.9,17.6,37.7c-5.6,13-10.8,25.9-15.8,38.8    c-3.1-9.3-6.5-18.6-10.4-27.9c0.4-1.3,0.8-2.7,1.3-4c-0.6,0.9-1.2,1.8-1.8,2.8c-6.6-15.5-14.3-30.9-23.2-46.3    c7.5-21.2,16.9-42.3,28.2-63.2c-22.7,11.9-33.3,26.4-42.1,40.9c-0.4-0.6-0.8-1.2-1.2-1.8c3-4.2,6.1-8.4,9.2-12.6    c-3.8,3.3-7.5,6.6-11.1,9.9c-11.2-16.5-23.6-32.8-37.5-49c10.7,19,20.2,38,28.7,57.1c-16.3,15.6-30.6,31.3-42.8,47.2    c-17.3-92.5-25.1-187.5-23-282.2c-26,90.9-34.2,189.8-18.8,284.1c0.2,1.1,0.4,2.1,0.5,3.2c0,2.2-0.1,4.4-0.1,6.5    c-6-9.1-13-18.1-21-27c0.2-1.3,0.4-2.5,0.6-3.8c-0.7,0.4-1.3,0.9-1.9,1.3c-3.7-8.8-7.9-17.7-12.5-26.4c-5-29-15.5-57.9-31.6-86.3    c5.6,18.1,9.8,36.3,12.7,54.5c-1.7-2.5-3.4-5.1-5.2-7.6c-0.6-6.7-1.5-13.3-2.8-20c-0.4,4.8-0.8,9.5-1.2,14.3c-0.7-1-1.3-1.9-2-2.9    c-1.5-15.6-6.5-31.3-19.5-46.3c5.2-21.6,11-43.3,17.5-64.9c-9.5,18.4-17.7,37-24.5,55.6c-2-2.6-4.7-5.2-8.6-7.6c1-0.9,2-1.9,3-2.8    c-1.3,0.8-2.5,1.6-3.8,2.4c-2.6-1.5-5.7-3-9.3-4.4c2.8,1.8,5.3,3.6,7.8,5.4c-6,3.8-11.9,7.7-17.4,11.6c-2.4-4.6-4.9-9.2-7.5-13.8    c3-4.4,6-8.7,9.2-13.1c-3.3,4.3-6.4,8.6-9.3,12.9c-0.9-1.6-1.9-3.3-2.9-4.9c-0.1-1-0.2-1.9-0.2-2.9c0.1,0.9,0.1,1.9,0.2,2.8    c-10.3-17.1-22.4-33.9-36.6-50.2c3.4-2.4,6.9-4.9,10.4-7.3c-3.7,2.4-7.1,4.8-10.5,7.2c-14.9-17.2-32.2-33.8-52-49.8    c2.5-2.3,5-4.6,7.8-6.9c-3.7,1.8-6.7,3.7-9.3,5.7c-1.2-1-2.5-2-3.8-3c1,1.2,2,2.4,3,3.6c-6,4.7-9.4,9.9-11.2,15.3    c3.6-4.6,7.8-9.2,12.5-13.7c15.5,18.7,29.5,37.6,42,56.8c-11.4,8.3-22.2,16.8-32.5,25.2c-3.8-9.6-7.8-19.2-12-28.8    c3.5,10.1,6.9,20.2,10,30.4c-6.3,5.2-12.3,10.5-18.2,15.7c-1.7-22.2-3-44.4-3.8-66.6c-0.2-6.3-0.2-12.9,1.9-19.2    c-16.5,21.1-22.4,43.3-24.1,65.4c-0.7,1.2-1.4,2.5-2,3.7c-0.4-6.1-0.8-12.2-1.2-18.2c-1.3,8.5-2.2,17-2.8,25.5    c-1.8,3.2-3.5,6.5-5.2,9.8c2.9-23.3,7.1-46.5,12.7-69.7c-16.1,36.3-26.6,73.3-31.6,110.4c-4.6,11.2-8.8,22.5-12.5,33.8    c-0.6-0.6-1.3-1.1-1.9-1.7c0.2,1.6,0.4,3.2,0.6,4.9c-7.9,11.5-14.9,23-21,34.6c0-2.8-0.1-5.6-0.1-8.4c0.2-1.4,0.4-2.7,0.5-4.1    c15.4-120.6,7.2-247-18.8-363.2c2.1,121.1-5.8,242.6-23,360.9c-12.2-20.3-26.5-40.4-42.8-60.3c8.6-24.5,18.1-48.8,28.7-73.1    c-13.9,20.7-26.4,41.5-37.5,62.6c-3.6-4.2-7.3-8.4-11.1-12.6c3.2,5.4,6.2,10.8,9.2,16.1c-0.4,0.8-0.8,1.5-1.2,2.3    c-8.8-18.5-19.4-37.1-42.1-52.3c11.4,26.8,20.8,53.8,28.2,80.9c-8.9,19.6-16.7,39.3-23.2,59.1c-0.6-1.2-1.2-2.4-1.8-3.5    c0.5,1.7,0.9,3.4,1.3,5.1c-3.9,11.9-7.4,23.7-10.4,35.6c-4.9-16.4-10.2-33-15.8-49.6c3.7-16.3,9-32.4,17.6-48.2    c-7.6,12.4-14.7,24.9-21.2,37.5c-12.6-36.5-26.7-73.3-42.4-110.1c4.4-22.2,9.3-44.3,14.3-66.3c-5.2,8.4-10,16.9-14.5,25.5    c0.1-5.6,0-11.1-0.1-16.7c-0.9-29-5.8-58.4-21.8-86.1c1.9,7.6,1.9,15.5,1.7,23.2c-0.6,22.7-1.6,45.4-2.7,68.1    c-16.1-34.8-33.5-69.6-52.2-104c16.6,48.4,33.2,96.9,49.8,145.3c-0.9,13.1-1.8,26.2-2.8,39.2c-12.5,42.2-16.8,85.1-12.9,127.8    c-3.8,31.2-8.2,62.5-13,93.7c-1-0.6-2-1.2-2.9-1.8c-14-45.1-23.3-90.7-27.6-136.5c9-36.6,18.6-73.3,29.1-109.8    c-12.4,17.3-22.9,34.8-32,52.4c-0.1-23.7,1-47.4,3.6-71.1c5.9-11.1,12.1-22.1,18.8-33.1c-6.1,7-11.9,14.1-17.5,21.3    c2.9-23.6,7.2-47.1,12.8-70.5c-9.5,27.2-16.7,54.7-21.5,82.2C299.5,349,280,450.2,310.2,547.6c-0.9,3.6-1.8,7.3-2.6,10.9    c-2.1-0.9-4.2-1.9-6.3-2.8c-12.1-18.3-22.5-37.5-31.2-57.5c-0.5-16.3-5.2-30.7-14.5-39.8c5.8-19.6,10.3-39.3,14.1-59    c12.3-64.1,17.8-128.5,16.4-192.9c19.5-16.4,43.4-32.1,73.1-46.5c-27,8.4-52.5,17.8-73.7,27.5c-0.1-1.3-0.1-2.6-0.2-4    c3.5-7.9,7.1-15.7,11-23.6c-4,7.7-7.6,15.4-11,23.1c-0.3-5.3-0.6-10.7-0.9-16c0.3,5.5,0.6,10.9,0.7,16.4c-0.8,1.8-1.6,3.5-2.3,5.3    c-20.8,9.7-37.2,19.6-46.5,29.2c-58,59.9-97.7,122.1-118.2,185.1c13.1-57.9,31-115.5,53.7-172.7c16.6-41.7,36.1-83.7,70.2-122.6    C178,177.2,131.9,250.7,104.6,325.9C100,302,93.2,278.2,84,254.6c7.7,29,12.7,58.1,15.1,87.2c-7.7,23.6-13.6,47.4-17.7,71.2    c-16.9,29.2-31.9,59.5-45,90.5c0.2-25,2-50,4.3-74.9C49.9,327.6,65.8,224.4,142.9,131c-32.3,38.4-58.6,78.1-78.7,118.5    C30.7,309.8,2.1,370.9-20.9,430.9c-3-10.7-5.9-21.4-8.9-32c-1.9,23.4-3.7,46.8-5,70.2c-21.8,63.2-37.1,124.7-45,182.3    c14-37,28.1-74,42.1-110.9c-1.1,56.7,0.9,113.4,8.4,169.7c290.4-39.3,585.7-2.3,879-9.4c18-0.4,36.3-1.1,54-4    c259.1-1.1,519.2-20.5,775.4,6.7c7.5-44,9.6-88.3,8.4-132.7C1701.6,599.7,1715.7,628.6,1729.7,657.5L1729.7,657.5z M15,560.5    C6.5,529.9-2,499.3-10.4,468.8c10.3-27.1,20.6-54.2,30.9-81.3c-7,48.2-5.5,96.6,4.6,144.7C21.5,541.5,18.2,551,15,560.5L15,560.5z     M285.2,184c0,1.2,0,2.4,0.1,3.7c-0.7,0.3-1.4,0.7-2.1,1C283.9,187.1,284.6,185.5,285.2,184L285.2,184z M170.7,483    c-1.5-6.3-3.1-12.6-4.8-18.8c1.7-8.9,3.6-17.8,5.6-26.7C169.4,452.6,169.4,467.8,170.7,483z M240.1,441.4c-6-9-13.8-18-23.7-26.8    c-0.1-23.5,2.4-47.6,5.3-70.6c-18.9,16.9-33.5,38.5-42.3,62.3c6-22.2,13-44.3,20.8-66.4c14.2-40.2,32.2-81.5,70.4-119.3    c-24.8,69.6-33.9,140.5-27.4,211.1C242.1,435,241.1,438.2,240.1,441.4L240.1,441.4z M271.2,220.2c4.5-4.4,9.2-8.8,14.3-13    c-0.7,71-13.9,141.7-34.3,212.2C245.9,352.4,249.6,285.7,271.2,220.2z M313.7,534.2c-1.6-19-2-38.1-1.2-57.1c1.5,12,4,24.1,7.5,36    C317.8,520.1,315.7,527.1,313.7,534.2L313.7,534.2z M316.4,432.4c7-52.1,22.7-103.8,47-154.6c-3.3,24.8-4.7,49.6-4.3,74.4    c-20.2,47.3-30.3,95.7-35,144.5C319.3,476,316.6,454.4,316.4,432.4z M354.4,468.5c3.4-15.9,6.9-31.7,10.6-47.6    c4.7,30.3,12.2,60.4,22.3,90.4C373.3,499.5,361.7,484.9,354.4,468.5L354.4,468.5z M450.8,315.4c4,11.7,8,23.4,12,35.1    c-7.6,11.9-14.4,23.8-20.4,35.9C444,362.8,447,339.1,450.8,315.4L450.8,315.4z M429,535.5c1.5-8.8,3.2-17.7,5.1-26.5    c3.6,10.8,7.9,21.6,12.6,32.3C440.7,539.7,434.8,537.7,429,535.5L429,535.5z M443.8,469.6c8.8-33.4,18.8-66.8,25.5-100.2    c5.3,15.6,10.7,31.2,16,46.8c-15.1,34.5-26,69.3-32.6,104.4C448.5,503.7,445.6,486.7,443.8,469.6L443.8,469.6z M505.6,530.3    c-7.3,5.3-15,10-23.1,13.9c-1.9,0.9-3.8,1.8-5.8,2.6c8.2-31.8,13.7-66.1,18.9-100.7c5,14.6,10,29.1,15,43.7    C508.4,503.3,506.7,516.8,505.6,530.3L505.6,530.3z M534.4,495.1c-0.2-0.6-0.3-1.2-0.5-1.8c0.6-2.7,1.1-5.4,1.7-8.1    C535.3,488.6,534.9,491.9,534.4,495.1z M575.4,524.9c-7.3-29.4-17.1-58.2-29.2-86.1c4.8-19.8,10.1-39.6,15.9-59.3    C572.7,427.7,577.1,476.3,575.4,524.9z M614.3,438c-8.9-34.2-23.2-68.3-38.4-102c0.5-1.5,1-2.9,1.5-4.4    c15.6,29.5,28.7,59.1,39.9,88.8C616.3,426.3,615.3,432.1,614.3,438z M677.5,500.2c0.7-18.2,2.2-36.4,4.5-54.6    c2.5-7.4,5.3-14.8,8.2-22.2C690.5,450.2,687.6,476.6,677.5,500.2z M934,385.7c0.8,6.2,1.4,12.4,1.8,18.5c-2.6-2.3-5.2-4.6-7.9-6.8    c0.2-8.4,0.2-16.7-0.3-25.1C929.8,376.8,931.9,381.3,934,385.7L934,385.7z M921.2,360.9c0-0.3,0-0.6-0.1-0.9    c0.5,0.9,1,1.8,1.5,2.7c-0.8,9.5-1.6,18.9-2.5,28.4c-0.1-0.1-0.2-0.2-0.3-0.2C921.1,380.9,921.7,370.9,921.2,360.9L921.2,360.9z     M916.6,409.4c0.6,0.8,1.2,1.6,1.8,2.4c-1.2,14.5-2.5,29-3.8,43.5c-0.2-0.3-0.4-0.6-0.6-0.9c-3,2.7-5.8,5.5-8.7,8.2    c-0.1-2.5-0.3-5-0.4-7.6c1.4-5.1,2.8-10.2,4.2-15.4C911.8,429.6,914.5,419.5,916.6,409.4L916.6,409.4z M740.8,372.9    c2.4,11.2,4.8,22.5,7.3,33.7c-4-5-8-10-12.2-14.9c-0.2,0.4-0.4,0.7-0.6,1.1c-1.2-17.1-2.3-34.2-3.5-51.3    c1.9,5.1,3.8,10.2,5.7,15.3C738.6,362.2,739.7,367.6,740.8,372.9L740.8,372.9z M785.2,368.7c2.2,2.4,4.3,4.8,6.4,7.2    c-1.4,1.9-2.8,3.8-4.1,5.7C786.7,377.3,785.9,373,785.2,368.7L785.2,368.7z M852.1,327.4c0.9,2.2,1.8,4.5,2.7,6.7    c-0.3,3.8-0.8,7.6-1.2,11.4c-0.3-0.2-0.6-0.3-0.8-0.5c-0.6-5.3-1.3-10.6-2.1-15.9C851.2,328.4,851.6,327.9,852.1,327.4z     M883.2,447.2c-1,3.9-2,7.8-3.1,11.7c0.2-8.7,0.7-17.4,1.3-26.1C882.2,437.6,882.7,442.4,883.2,447.2L883.2,447.2z M856.4,471.2    c-1.8-3.4-3.6-6.7-5.4-10.1c1.5-10.3,2.6-20.6,3.4-31c4.2-17.4,9.4-34.7,15.5-52c0.8,2.9,1.6,5.8,2.4,8.8    c-1.5,10-2.5,20.1-3.2,30.1C865.2,435.1,861,453.1,856.4,471.2L856.4,471.2z M818.1,415.5c3.9,8.2,6.9,16.5,9,24.8    c-0.4,1.9-0.7,3.7-1.1,5.6c-1.9,4.7-3.8,9.4-5.8,14C818.4,445,817.6,430.2,818.1,415.5L818.1,415.5z M811.8,403.5    c0.2,0.3,0.3,0.5,0.5,0.8c0,0.4-0.1,0.7-0.2,1.1C812,404.8,811.9,404.2,811.8,403.5L811.8,403.5z M852.8,345.8    c0.2,0.1,0.4,0.3,0.7,0.4c-0.1,0.8-0.2,1.6-0.3,2.5C853.1,347.7,852.9,346.7,852.8,345.8z M854.8,368.9c0.7-6.9,1.2-13.7,1.6-20.6    c1.8,1.2,3.5,2.5,5.2,3.7c2.4,6.7,4.6,13.5,6.6,20.3c-4.6,10.1-8.8,20.2-12.6,30.3C855.7,391.3,855.5,380.1,854.8,368.9    L854.8,368.9z M856.5,347.2c0.1-2.7,0.3-5.3,0.3-8c1.4,3.5,2.7,7.1,3.9,10.6C859.4,348.9,857.9,348,856.5,347.2L856.5,347.2z     M830,424.9C830,424.9,830,424.8,830,424.9c0,0,0,0.1,0,0.2c-0.5,2.9-1,5.7-1.6,8.5c-2.9-6.9-6.3-13.8-10.2-20.6    c0.7-18,3.3-36,8.2-53.9c4.8-6.6,10-13.1,15.4-19.6C839,367.9,835.1,396.4,830,424.9L830,424.9z M812.4,403.4    c-0.3-0.4-0.5-0.8-0.8-1.2c-0.9-5.7-1.8-11.3-2.9-17c3.9-6.4,8.1-12.7,12.5-19C817.2,378.6,814.3,391,812.4,403.4L812.4,403.4z     M795.1,409.3c1.7-3.4,3.5-6.7,5.4-10.1c-1.5,7.2-2.7,14.4-3.7,21.5C796.1,416.9,795.6,413.1,795.1,409.3L795.1,409.3z     M894.9,372.1c-1.3-0.9-2.6-1.8-3.9-2.8c-0.4-1.3-0.7-2.6-1.1-3.9c2.5-14.6,5.5-29.2,8.8-43.9    C897.8,338.4,896.5,355.3,894.9,372.1L894.9,372.1z M884.3,294.3c3.4,2.6,6.6,5.1,9.4,7.8c-4.7,12.8-8.7,25.7-12.1,38.6    c-3.9-10.3-8.3-20.6-13.3-30.7C873.5,304.7,878.8,299.5,884.3,294.3L884.3,294.3z M838.3,326.5c1.7-3.7,3.5-7.5,5.5-11.2    c-0.2,2.4-0.3,4.7-0.5,7.1C841.6,323.7,839.9,325.1,838.3,326.5L838.3,326.5z M807.8,244c14,21.5,26.1,43.2,36.4,65.2    c-0.1,1.9-0.2,3.8-0.4,5.7c-2.3,4.1-4.5,8.3-6.6,12.5c-2,1.7-3.9,3.4-5.8,5.1c-3.4-1.9-6.9-3.8-10.5-5.6c3.5,1.9,7,3.8,10.4,5.7    c-10.3,9.2-19.5,18.7-27.7,28.2c-6.7-29.4-15.7-58.8-27-88.1C785.5,263,795.8,253.4,807.8,244L807.8,244z M774.6,275.1    c9.5,31.1,17,62.3,22.6,93.6c-0.8,1-1.7,2.1-2.5,3.1c0.1-0.7,0.1-1.5,0.2-2.2c-0.1,0.8-0.2,1.5-0.2,2.3c-1,1.3-1.9,2.5-2.9,3.8    c-2.1-2.4-4.3-4.8-6.6-7.2c-4.4-25.1-8.4-50.2-11.8-75.3c-2.2,37.6-3.3,75.6-1,113.4c-1.2,2.2-2.3,4.4-3.3,6.6    c-5.5-38.2-9.9-76.5-13-114.8C761.6,290.6,767.7,282.8,774.6,275.1L774.6,275.1z M733.4,334.1c0.7,4.1,1.4,8.2,2.2,12.3    c-1.2-1.9-2.4-3.8-3.7-5.8c-0.1-1.2-0.2-2.3-0.2-3.5C732.2,336.1,732.8,335.1,733.4,334.1L733.4,334.1z M728.8,271    c0,0.4,0,0.7-0.1,1.1c-0.6,12.8,0,25.6,1.4,38.3c-0.1,0.1-0.2,0.2-0.3,0.3c-0.8-12.1-1.6-24.2-2.5-36.3    C727.8,273.3,728.3,272.2,728.8,271L728.8,271z M716,303.9c2-5.7,4.2-11.4,6.4-17.1c-0.5,10.7-0.6,21.4-0.3,32.1    c-2.7,2.9-5.3,5.8-7.9,8.7C714.6,319.7,715.2,311.8,716,303.9L716,303.9z M713.4,371c3.3-6.5,6.7-13.1,10.3-19.6    c1.3,18.4,3.1,36.9,4.8,55.3c-1,2.3-2,4.5-2.9,6.8c-3.2-7-7-13.8-11.2-20.3C713.9,385.8,713.5,378.4,713.4,371L713.4,371z     M935.7,455.6c-4.3,5.1-8,10.4-11.2,15.9c-0.9-1.8-1.9-3.6-2.9-5.3c1.7-14.4,3.5-28.8,4.8-43.3c3.5,5.1,7,10.2,10.3,15.3    C936.4,444,936.1,449.8,935.7,455.6z M959.8,479.2c2.9,5.8,5.7,11.6,8.2,17.4c2.3,14.2,3.7,28.4,4.5,42.7    C962.4,520.8,959.4,500.1,959.8,479.2L959.8,479.2z M1035.6,490.6c-1-4.6-2-9.2-2.9-13.8c11.2-23.2,24.3-46.4,39.9-69.5    c0.5,1.1,1,2.3,1.5,3.4C1058.8,437.2,1044.6,463.8,1035.6,490.6L1035.6,490.6z M1074.5,558.5c-1.7-38,2.7-76,13.3-113.7    c5.8,15.4,11.1,30.9,15.9,46.4C1091.6,513,1081.8,535.5,1074.5,558.5L1074.5,558.5z M1115.6,535.3c-0.5-2.6-0.9-5.1-1.3-7.7    c0.6,2.1,1.2,4.2,1.7,6.3C1115.9,534.4,1115.7,534.8,1115.6,535.3z M1199.1,394.7c3.8,18.5,6.8,37,8.4,55.6    c-6-9.4-12.8-18.8-20.4-28.1C1191.1,413.1,1195.1,403.9,1199.1,394.7z M1167.5,573.7c-8.1-3.1-15.9-6.7-23.1-10.9    c-1.1-10.5-2.8-21.1-5-31.6c5-11.4,10-22.8,15-34.2c5.2,27,10.7,53.9,18.9,78.8C1171.3,575.1,1169.4,574.4,1167.5,573.7    L1167.5,573.7z M1164.6,473.6c5.3-12.2,10.7-24.4,16-36.6c6.8,26.1,16.7,52.2,25.5,78.3c-1.8,13.4-4.8,26.7-9,40    C1190.6,527.8,1179.7,500.5,1164.6,473.6L1164.6,473.6z M1203.2,571.4c4.7-8.4,8.9-16.8,12.6-25.3c1.9,6.9,3.7,13.8,5.1,20.8    C1215.1,568.6,1209.2,570.1,1203.2,571.4z M1262.6,547.9c10.2-23.4,17.7-47,22.3-70.7c3.7,12.4,7.2,24.8,10.6,37.2    C1288.2,527.3,1276.6,538.7,1262.6,547.9L1262.6,547.9z M1290.8,423.5c0.4-19.4-1-38.8-4.3-58.2c24.3,39.7,40,80.2,47.1,120.9    c-0.3,17.2-2.9,34.1-7.7,50.2C1321.2,498.3,1311.1,460.4,1290.8,423.5L1290.8,423.5z M1336.2,565.8c-1.9-5.5-4.1-11-6.3-16.5    c3.6-9.3,6.1-18.8,7.5-28.2C1338.2,536,1337.8,550.9,1336.2,565.8z M1364.7,291.9c0.7,1.2,1.4,2.4,2.1,3.6    c-0.7-0.3-1.4-0.5-2.1-0.8C1364.7,293.8,1364.7,292.9,1364.7,291.9L1364.7,291.9z M1398.8,476c-20.3-55.1-33.6-110.5-34.3-166    c5.1,3.4,9.8,6.8,14.3,10.2C1400.3,371.5,1404.1,423.6,1398.8,476z M1428.3,417.1c2.9,18,5.4,36.8,5.3,55.2    c-9.9,6.9-17.7,13.9-23.7,21c-1-2.5-2.1-5-3.1-7.5c6.5-55.2-2.6-110.7-27.4-165.1c38.2,29.5,56.3,61.8,70.4,93.3    c7.8,17.3,14.7,34.6,20.8,51.9C1461.8,447.3,1447.2,430.3,1428.3,417.1L1428.3,417.1z M1479.2,525.8c1.3-11.9,1.3-23.7-0.9-35.5    c2,7,3.9,13.9,5.6,20.9C1482.3,516,1480.7,520.9,1479.2,525.8L1479.2,525.8z M1635,586.4c-3.2-7.5-6.5-14.9-10.1-22.2    c10.1-37.6,11.6-75.5,4.6-113.1c10.3,21.2,20.6,42.4,30.9,63.6C1651.9,538.6,1643.4,562.5,1635,586.4L1635,586.4z"/>
	</g>
	<g>
		<path class="st0" d="M-6.3,633c3.6-6.2,7.3-12.4,11.1-18.6C0.9,620.5-2.8,626.7-6.3,633z"/>
		<path class="st0" d="M103.4,629.4c4.8,8.4,8.7,17.1,11.9,25.9C113.9,645.9,110.6,636.9,103.4,629.4z"/>
		<path class="st0" d="M169,871.6c2.2-5.8,4.6-11.6,6.9-17.4C173.3,859.9,171.1,865.7,169,871.6z"/>
		<path class="st0" d="M723.8,757.5c-3.5-4.9-7.1-9.8-11.1-14.5C716.5,747.8,720.2,752.6,723.8,757.5z"/>
		<path class="st0" d="M614.1,754.7c-7.1,5.9-10.4,12.9-11.9,20.3C605.4,768.1,609.4,761.3,614.1,754.7z"/>
		<path class="st0" d="M548.5,944.1c-2-4.6-4.3-9.1-7-13.6C544,935,546.3,939.6,548.5,944.1z"/>
		<path class="st0" d="M925.3,1182.7c-5-45.1-14.5-93.2-28.2-142.6c-0.9-18.3-1.9-36.7-3.2-55c-1.8,8.3-3.7,16.7-5.5,25.1    c-14.4-47-32.3-94.8-53.3-142c-12.6-31.6-29-62.6-49.3-92.7c48.3,73.1,58.3,153.8,64,232.8c1.4,19.5,2.6,39,2.7,58.6    c-8.2-24.3-17.6-48-28.2-70.8c-2.5-18.6-6.2-37.2-11.1-55.7c1.5-22.8,4.6-45.6,9.4-68.2c-5.7,18.5-10,37.1-12.9,55.8    c-17.1-58.8-46-116.2-86.1-170.6c21.4,30.4,33.6,63.2,43.9,95.9c14.2,44.7,25.4,89.8,33.6,135.1c-12.8-49.3-37.7-97.9-74-144.8    c-5.8-7.5-16.1-15.3-29.1-22.8c-0.5-1.4-1-2.8-1.5-4.1c0.1-4.3,0.3-8.5,0.5-12.8c-0.2,4.2-0.4,8.3-0.6,12.5    c-2.1-6-4.4-12.1-6.9-18.1c2.4,6.1,4.7,12.3,6.9,18.4c0,1-0.1,2.1-0.1,3.1c-13.3-7.6-29.3-15-46.2-21.5    c18.7,11.3,33.6,23.5,45.8,36.3c-0.9,50.3,2.5,100.7,10.3,150.8c2.4,15.4,5.2,30.8,8.8,46.1c-5.8,7.2-8.7,18.4-9,31.2    c-5.4,15.6-11.9,30.7-19.5,45c-1.3,0.8-2.6,1.5-3.9,2.2c-0.5-2.9-1-5.7-1.6-8.6c18.9-76.2,6.7-155.3-35.4-227.8    c-3.1-21.5-7.5-43-13.5-64.3c3.5,18.3,6.2,36.7,8,55.2c-3.5-5.6-7.1-11.1-10.9-16.6c4.2,8.6,8.1,17.2,11.8,25.9    c1.6,18.5,2.3,37.1,2.2,55.6c-5.7-13.8-12.2-27.5-20-41c6.5,28.6,12.6,57.2,18.2,85.9c-2.7,35.8-8.5,71.5-17.3,106.8    c-0.6,0.5-1.2,0.9-1.8,1.4c-3-24.4-5.8-48.8-8.2-73.2c2.5-33.4-0.2-66.9-8-99.9c-0.6-10.2-1.2-20.5-1.8-30.7    c10.4-37.9,20.8-75.8,31.2-113.7c-11.7,26.9-22.6,54.1-32.7,81.4c-0.7-17.7-1.3-35.5-1.7-53.2c-0.1-6-0.1-12.2,1.1-18.1    c-10.1,21.7-13.1,44.7-13.7,67.3c-0.1,4.3-0.1,8.7-0.1,13.1c-2.8-6.7-5.8-13.3-9.1-19.9c3.1,17.2,6.2,34.5,8.9,51.9    c-9.8,28.8-18.7,57.6-26.5,86.1c-4.1-9.8-8.5-19.6-13.3-29.3c5.4,12.3,8.7,24.9,11,37.7c-3.5,13-6.8,25.9-9.9,38.8    c-1.9-9.3-4.1-18.6-6.5-27.9c0.3-1.3,0.5-2.7,0.8-4c-0.4,0.9-0.8,1.8-1.1,2.8c-4.1-15.5-9-30.9-14.5-46.3    c4.7-21.2,10.6-42.3,17.7-63.2c-14.2,11.9-20.9,26.4-26.4,40.9c-0.2-0.6-0.5-1.2-0.8-1.8c1.9-4.2,3.8-8.4,5.8-12.6    c-2.4,3.3-4.7,6.6-7,9.9c-7-16.5-14.8-32.8-23.5-49c6.7,19,12.6,38,18,57.2c-10.2,15.6-19.2,31.3-26.8,47.2    c-10.8-92.5-15.7-187.5-14.4-282.2c-16.3,90.9-21.4,189.8-11.7,284.1c0.1,1.1,0.2,2.1,0.4,3.2c0,2.2,0,4.4-0.1,6.5    c-3.8-9.1-8.2-18.1-13.1-27c0.1-1.3,0.3-2.5,0.4-3.8c-0.4,0.4-0.8,0.9-1.2,1.3c-2.3-8.8-4.9-17.7-7.8-26.4    c-3.1-29-9.7-57.9-19.8-86.3c3.5,18.1,6.2,36.3,8,54.5c-1-2.5-2.1-5.1-3.2-7.7c-0.4-6.7-1-13.3-1.8-20c-0.3,4.8-0.5,9.5-0.8,14.3    c-0.4-1-0.8-1.9-1.3-2.9c-0.9-15.6-4-31.3-12.2-46.3c3.2-21.6,6.9-43.3,10.9-64.9c-6,18.4-11.1,37-15.4,55.7    c-1.2-2.6-3-5.2-5.4-7.6c0.6-0.9,1.2-1.9,1.9-2.8c-0.8,0.8-1.6,1.6-2.4,2.4c-1.6-1.5-3.5-3-5.8-4.4c1.7,1.8,3.3,3.6,4.9,5.4    c-3.8,3.8-7.4,7.7-10.9,11.6c-1.5-4.6-3.1-9.2-4.7-13.8c1.9-4.4,3.8-8.7,5.8-13.1c-2.1,4.3-4,8.6-5.8,12.9    c-0.6-1.6-1.2-3.3-1.8-4.9c0-1-0.1-1.9-0.2-2.9c0,0.9,0.1,1.9,0.1,2.8c-6.4-17.1-14-33.9-22.9-50.2c2.1-2.4,4.3-4.8,6.5-7.3    c-2.3,2.4-4.5,4.8-6.6,7.2c-9.4-17.2-20.1-33.8-32.5-49.8c1.5-2.3,3.1-4.6,4.9-6.9c-2.3,1.8-4.2,3.7-5.8,5.7c-0.8-1-1.6-2-2.4-3    c0.6,1.2,1.2,2.4,1.9,3.6c-3.8,4.7-5.9,9.9-7,15.3c2.3-4.6,4.9-9.2,7.8-13.7c9.7,18.7,18.5,37.6,26.3,56.8    c-7.1,8.3-13.9,16.8-20.4,25.2c-2.4-9.6-4.9-19.2-7.5-28.8c2.2,10.1,4.3,20.2,6.3,30.4c-3.9,5.2-7.7,10.5-11.4,15.7    c-1-22.2-1.9-44.4-2.4-66.6c-0.1-6.3-0.1-12.9,1.2-19.2c-10.3,21.1-14,43.3-15.1,65.4c-0.4,1.2-0.9,2.5-1.3,3.7    c-0.3-6.1-0.5-12.2-0.8-18.2c-0.8,8.5-1.4,17-1.8,25.5c-1.1,3.2-2.2,6.5-3.2,9.8c1.8-23.3,4.5-46.5,8-69.7    c-10.1,36.3-16.6,73.3-19.8,110.4c-2.9,11.2-5.5,22.5-7.8,33.8c-0.4-0.6-0.8-1.1-1.2-1.7c0.1,1.6,0.3,3.2,0.4,4.8    c-5,11.5-9.4,23-13.1,34.6c0-2.8,0-5.6-0.1-8.4c0.1-1.4,0.2-2.7,0.4-4.1c9.6-120.6,4.5-247-11.7-363.2    c1.3,121.1-3.6,242.6-14.4,360.8c-7.7-20.3-16.6-40.4-26.8-60.3c5.4-24.5,11.3-48.8,18-73.1c-8.7,20.7-16.5,41.5-23.5,62.6    c-2.3-4.2-4.6-8.4-6.9-12.6c2,5.4,3.9,10.8,5.8,16.1c-0.2,0.8-0.5,1.5-0.8,2.3c-5.5-18.5-12.2-37.1-26.4-52.3    c7.1,26.8,13,53.8,17.7,80.9c-5.6,19.6-10.4,39.3-14.6,59.2c-0.4-1.2-0.8-2.4-1.1-3.5c0.3,1.7,0.5,3.4,0.8,5.1    c-2.4,11.8-4.6,23.7-6.5,35.6c-3.1-16.4-6.4-33-9.9-49.6c2.3-16.3,5.6-32.4,11-48.2c-4.8,12.4-9.2,24.9-13.3,37.5    c-7.9-36.5-16.7-73.3-26.5-110.1c2.8-22.2,5.8-44.3,8.9-66.3c-3.3,8.5-6.3,17-9.1,25.5c0-5.6,0-11.1-0.1-16.7    c-0.6-29-3.6-58.4-13.7-86.1c1.2,7.6,1.2,15.5,1.1,23.2c-0.4,22.7-1,45.4-1.7,68c-10.1-34.8-21-69.6-32.7-104    c10.4,48.4,20.8,96.9,31.2,145.3c-0.5,13.1-1.1,26.2-1.8,39.2c-7.9,42.2-10.5,85.1-8.1,127.8c-2.4,31.2-5.1,62.5-8.2,93.7    c-0.6-0.6-1.2-1.2-1.8-1.8c-8.8-45.1-14.6-90.7-17.3-136.5c5.6-36.7,11.7-73.3,18.2-109.8c-7.8,17.3-14.4,34.8-20,52.4    c-0.1-23.7,0.7-47.4,2.2-71.1c3.7-11.1,7.6-22.1,11.8-33.1c-3.8,7-7.5,14.1-10.9,21.3c1.8-23.6,4.5-47.1,8-70.5    c-6,27.2-10.4,54.7-13.5,82.2c-42.1,92.7-54.3,193.9-35.4,291.2c-0.6,3.6-1.1,7.3-1.6,10.9c-1.3-0.9-2.6-1.9-3.9-2.8    c-7.6-18.3-14.1-37.6-19.5-57.5c-0.4-16.3-3.3-30.7-9.1-39.8c3.6-19.6,6.4-39.3,8.8-59c7.7-64.1,11.1-128.5,10.3-192.9    c12.2-16.4,27.1-32,45.8-46.5c-16.9,8.4-32.9,17.8-46.2,27.5c0-1.3-0.1-2.6-0.1-4c2.2-7.9,4.4-15.7,6.9-23.6    c-2.5,7.7-4.7,15.4-6.9,23.1c-0.2-5.3-0.4-10.7-0.6-16c0.2,5.5,0.4,10.9,0.5,16.4c-0.5,1.8-1,3.5-1.5,5.3    c-13,9.7-23.3,19.6-29.1,29.2c-36.3,59.9-61.2,122.1-74,185.1c8.2-57.9,19.4-115.5,33.6-172.7c10.4-41.7,22.6-83.7,43.9-122.6    c-40.1,69.4-68.9,142.9-86.1,218.1c-2.9-23.9-7.1-47.7-12.9-71.3c4.8,29,7.9,58.1,9.4,87.2c-4.8,23.6-8.5,47.4-11.1,71.2    c-10.6,29.2-20,59.5-28.2,90.5c0.1-25,1.3-50,2.7-74.9c5.8-101.1,15.7-204.2,64-297.6c-20.2,38.4-36.7,78.1-49.3,118.5    c-21.1,60.3-39,121.5-53.3,181.5c-1.9-10.7-3.7-21.4-5.6-32c-1.2,23.4-2.3,46.8-3.1,70.2c-13.6,63.2-23.2,124.7-28.2,182.3    c8.8-37,17.6-74,26.4-110.9c-0.7,56.7,0.6,113.4,5.3,169.7c181.9-39.3,366.8-2.3,550.4-9.4c11.3-0.4,22.7-1.1,33.8-4    c162.2-1.1,325.1-20.5,485.6,6.7c4.7-44,6-88.3,5.3-132.7C907.8,1124.9,916.6,1153.8,925.3,1182.7L925.3,1182.7z M-148.5,1085.7    c-5.3-30.6-10.6-61.2-15.9-91.8c6.4-27.1,12.9-54.2,19.3-81.3c-4.4,48.2-3.5,96.7,2.9,144.7    C-144.4,1066.7-146.5,1076.1-148.5,1085.7z M20.8,709.2c0,1.2,0,2.5,0,3.7c-0.5,0.3-0.9,0.7-1.3,1    C19.9,712.3,20.4,710.7,20.8,709.2z M-50.9,1008.1c-0.9-6.3-1.9-12.6-3-18.8c1.1-8.9,2.2-17.8,3.5-26.7    C-51.7,977.8-51.7,993-50.9,1008.1z M-7.5,966.6c-3.7-9-8.6-18-14.8-26.8c-0.1-23.5,1.5-47.6,3.3-70.6    c-11.9,16.9-21,38.5-26.5,62.3c3.8-22.2,8.1-44.3,13-66.4c8.9-40.2,20.2-81.5,44.1-119.3C-3.9,815.5-9.6,886.4-5.5,957    C-6.2,960.2-6.9,963.4-7.5,966.6L-7.5,966.6z M12,745.3c2.8-4.4,5.8-8.8,8.9-13c-0.4,71-8.7,141.7-21.5,212.2    C-3.9,877.6-1.5,810.8,12,745.3L12,745.3z M38.6,1059.4c-1-19-1.2-38.1-0.8-57.1c0.9,12,2.5,24.1,4.7,36    C41.1,1045.2,39.8,1052.3,38.6,1059.4L38.6,1059.4z M40.3,957.6c4.4-52.1,14.2-103.8,29.5-154.6c-2.1,24.8-3,49.6-2.7,74.4    c-12.7,47.3-19,95.7-21.9,144.5C42.1,1001.1,40.5,979.6,40.3,957.6z M64.1,993.6c2.1-15.9,4.3-31.7,6.6-47.6    c2.9,30.3,7.6,60.4,14,90.4C75.9,1024.6,68.7,1010.1,64.1,993.6z M124.5,840.6c2.5,11.7,5,23.4,7.5,35.1    c-4.7,11.9-9,23.8-12.8,35.9C120.2,887.9,122.1,864.2,124.5,840.6z M110.8,1060.7c0.9-8.8,2-17.7,3.2-26.5    c2.3,10.8,4.9,21.6,7.9,32.3C118.1,1064.8,114.4,1062.9,110.8,1060.7L110.8,1060.7z M120.1,994.7c5.5-33.4,11.7-66.8,16-100.2    c3.4,15.6,6.7,31.2,10,46.8c-9.4,34.5-16.3,69.3-20.4,104.4C123,1028.9,121.2,1011.8,120.1,994.7L120.1,994.7z M158.8,1055.5    c-4.5,5.3-9.4,10-14.5,13.9c-1.2,0.9-2.4,1.8-3.6,2.6c5.1-31.8,8.6-66.1,11.9-100.7c3.1,14.6,6.2,29.1,9.4,43.7    C160.5,1028.5,159.5,1042,158.8,1055.5L158.8,1055.5z M176.8,1020.3c-0.1-0.6-0.2-1.2-0.3-1.8c0.4-2.7,0.7-5.4,1.1-8.1    C177.4,1013.7,177.1,1017,176.8,1020.3L176.8,1020.3z M202.5,1050c-4.6-29.4-10.7-58.2-18.3-86.1c3-19.8,6.3-39.6,10-59.3    C200.8,952.9,203.6,1001.5,202.5,1050z M226.8,963.2c-5.6-34.2-14.5-68.3-24.1-102c0.3-1.5,0.6-2.9,0.9-4.4    c9.8,29.5,17.9,59.1,25,88.8C228.1,951.4,227.5,957.3,226.8,963.2L226.8,963.2z M266.4,1025.3c0.5-18.2,1.4-36.4,2.8-54.6    c1.6-7.4,3.3-14.8,5.1-22.2C274.6,975.4,272.7,1001.8,266.4,1025.3z M427,910.9c0.5,6.2,0.9,12.4,1.1,18.5    c-1.6-2.3-3.2-4.6-4.9-6.8c0.2-8.4,0.1-16.7-0.2-25.1C424.4,902,425.7,906.4,427,910.9L427,910.9z M419,886c0-0.3,0-0.6,0-0.9    c0.3,0.9,0.6,1.8,0.9,2.7c-0.5,9.5-1,18.9-1.5,28.4c-0.1-0.1-0.1-0.2-0.2-0.2C419,906,419.4,896,419,886L419,886z M416.1,934.5    c0.4,0.8,0.7,1.6,1.1,2.4c-0.8,14.5-1.6,29-2.4,43.5c-0.1-0.3-0.2-0.6-0.4-0.8c-1.9,2.7-3.7,5.5-5.5,8.2c-0.1-2.5-0.2-5-0.3-7.6    c0.9-5.1,1.8-10.2,2.6-15.4C413.2,954.7,414.8,944.6,416.1,934.5L416.1,934.5z M306.1,898.1c1.5,11.2,3,22.5,4.6,33.7    c-2.5-5-5-10-7.6-14.9c-0.1,0.4-0.2,0.7-0.4,1.1c-0.7-17.1-1.4-34.2-2.2-51.3c1.2,5.1,2.4,10.2,3.5,15.3    C304.7,887.4,305.4,892.7,306.1,898.1L306.1,898.1z M333.8,893.8c1.4,2.4,2.7,4.8,4,7.2c-0.9,1.9-1.7,3.8-2.6,5.7    C334.8,902.5,334.3,898.1,333.8,893.8L333.8,893.8z M375.8,852.5c0.6,2.2,1.1,4.5,1.7,6.7c-0.2,3.8-0.5,7.6-0.8,11.4    c-0.2-0.2-0.4-0.3-0.5-0.5c-0.4-5.3-0.8-10.6-1.3-15.9C375.2,853.6,375.5,853,375.8,852.5L375.8,852.5z M395.3,972.4    c-0.6,3.9-1.3,7.8-1.9,11.7c0.1-8.7,0.4-17.4,0.8-26.1C394.6,962.7,394.9,967.6,395.3,972.4L395.3,972.4z M378.4,996.3    c-1.1-3.4-2.2-6.7-3.4-10.1c0.9-10.3,1.6-20.6,2.1-31c2.6-17.4,5.9-34.7,9.7-52c0.5,2.9,1,5.8,1.5,8.8c-0.9,10-1.6,20.1-2,30.1    C384,960.2,381.3,978.3,378.4,996.3L378.4,996.3z M354.4,940.6c2.4,8.2,4.3,16.5,5.7,24.8c-0.2,1.9-0.5,3.7-0.7,5.6    c-1.2,4.7-2.4,9.4-3.7,14C354.7,970.2,354.2,955.4,354.4,940.6L354.4,940.6z M350.5,928.7c0.1,0.3,0.2,0.5,0.3,0.8    c0,0.4-0.1,0.7-0.1,1.1C350.6,929.9,350.5,929.3,350.5,928.7L350.5,928.7z M376.2,870.9c0.1,0.2,0.3,0.3,0.4,0.4    c-0.1,0.8-0.1,1.6-0.2,2.5C376.4,872.8,376.3,871.9,376.2,870.9z M377.4,894c0.5-6.9,0.8-13.7,1-20.6c1.1,1.2,2.2,2.5,3.2,3.7    c1.5,6.7,2.9,13.5,4.1,20.3c-2.9,10.1-5.5,20.2-7.9,30.3C378,916.5,377.9,905.2,377.4,894L377.4,894z M378.5,872.3    c0.1-2.7,0.2-5.3,0.2-8c0.9,3.5,1.7,7.1,2.5,10.6C380.3,874,379.4,873.2,378.5,872.3z M361.9,950C361.9,950,361.9,950,361.9,950    c0,0,0,0.1,0,0.2c-0.3,2.8-0.6,5.7-1,8.5c-1.8-6.9-4-13.8-6.4-20.7c0.4-18,2-36,5.2-53.9c3-6.6,6.2-13.1,9.6-19.6    C367.6,893.1,365.1,921.6,361.9,950L361.9,950z M350.9,928.6c-0.2-0.4-0.3-0.8-0.5-1.2c-0.5-5.7-1.2-11.3-1.8-17    c2.5-6.4,5.1-12.7,7.9-19C353.9,903.8,352.1,916.2,350.9,928.6L350.9,928.6z M340.1,934.4c1.1-3.4,2.2-6.7,3.4-10.1    c-0.9,7.2-1.7,14.3-2.3,21.5C340.7,942.1,340.4,938.3,340.1,934.4L340.1,934.4z M402.6,897.3c-0.8-0.9-1.6-1.8-2.5-2.8    c-0.2-1.3-0.5-2.6-0.7-3.9c1.6-14.6,3.4-29.2,5.5-43.9C404.3,863.5,403.6,880.4,402.6,897.3L402.6,897.3z M395.9,819.5    c2.1,2.6,4.1,5.2,5.9,7.8c-2.9,12.8-5.4,25.7-7.6,38.6c-2.4-10.3-5.2-20.6-8.4-30.7C389.1,829.9,392.5,824.7,395.9,819.5    L395.9,819.5z M367.1,851.6c1.1-3.7,2.2-7.5,3.4-11.2c-0.1,2.4-0.2,4.7-0.3,7.1C369.1,848.9,368.1,850.2,367.1,851.6L367.1,851.6z     M348,769.1c8.8,21.5,16.4,43.2,22.8,65.2c-0.1,1.9-0.1,3.8-0.2,5.7c-1.5,4.2-2.8,8.3-4.1,12.5c-1.2,1.7-2.5,3.4-3.6,5.1    c-2.1-1.9-4.3-3.8-6.6-5.6c2.2,1.9,4.4,3.8,6.5,5.7c-6.4,9.2-12.2,18.7-17.3,28.2c-4.2-29.4-9.8-58.8-16.9-88    C334.1,788.2,340.5,778.5,348,769.1L348,769.1z M327.2,800.2c5.9,31.1,10.6,62.3,14.1,93.7c-0.5,1-1,2.1-1.5,3.1    c0-0.7,0.1-1.5,0.1-2.2c-0.1,0.8-0.1,1.5-0.2,2.3c-0.6,1.3-1.2,2.5-1.8,3.8c-1.3-2.4-2.7-4.8-4.1-7.2c-2.8-25.1-5.3-50.2-7.4-75.3    c-1.4,37.6-2.1,75.6-0.6,113.3c-0.7,2.2-1.4,4.4-2.1,6.6c-3.5-38.2-6.2-76.5-8.1-114.8C319.1,815.7,322.9,807.9,327.2,800.2    L327.2,800.2z M301.4,859.2c0.4,4.1,0.9,8.2,1.4,12.3c-0.8-1.9-1.5-3.8-2.3-5.8c0-1.2-0.1-2.3-0.1-3.5    C300.7,861.3,301,860.3,301.4,859.2L301.4,859.2z M298.5,796.2c0,0.4,0,0.7,0,1.1c-0.4,12.8,0,25.6,0.9,38.3    c-0.1,0.1-0.1,0.2-0.2,0.3c-0.5-12.1-1-24.2-1.5-36.3C297.9,798.5,298.2,797.3,298.5,796.2L298.5,796.2z M290.5,829.1    c1.3-5.7,2.6-11.4,4-17.1c-0.3,10.7-0.4,21.4-0.2,32.1c-1.7,2.9-3.3,5.8-4.9,8.7C289.7,844.9,290,837,290.5,829.1z M288.9,896.2    c2-6.5,4.2-13.1,6.4-19.6c0.8,18.4,1.9,36.9,3,55.3c-0.6,2.3-1.2,4.5-1.8,6.8c-2-7-4.4-13.8-7-20.3    C289.2,911,289,903.6,288.9,896.2L288.9,896.2z M428.1,980.7c-2.7,5.1-5,10.4-7,15.9c-0.6-1.8-1.2-3.6-1.8-5.3    c1-14.4,2.2-28.8,3-43.3c2.2,5.1,4.4,10.2,6.4,15.3C428.6,969.2,428.4,975,428.1,980.7L428.1,980.7z M443.2,1004.3    c1.8,5.8,3.5,11.6,5.1,17.4c1.4,14.2,2.3,28.4,2.8,42.7C444.8,1045.9,442.9,1025.3,443.2,1004.3z M490.7,1015.7    c-0.6-4.6-1.2-9.2-1.9-13.8c7-23.2,15.2-46.4,25-69.5c0.3,1.1,0.6,2.3,0.9,3.4C505.2,962.3,496.3,988.9,490.7,1015.7L490.7,1015.7    z M515,1083.7c-1.1-38,1.7-76,8.3-113.7c3.6,15.4,6.9,30.9,10,46.4C525.7,1038.1,519.6,1060.7,515,1083.7L515,1083.7z     M540.7,1060.4c-0.3-2.6-0.6-5.1-0.8-7.7c0.4,2.1,0.7,4.2,1.1,6.3C540.9,1059.5,540.8,1060,540.7,1060.4L540.7,1060.4z     M593.1,919.9c2.4,18.5,4.3,37,5.2,55.6c-3.8-9.4-8-18.8-12.8-28.1C588,938.2,590.5,929,593.1,919.9z M573.3,1098.9    c-5.1-3.1-10-6.7-14.5-10.9c-0.7-10.6-1.7-21.1-3.1-31.6c3.1-11.4,6.2-22.8,9.4-34.2c3.3,27,6.7,53.9,11.8,78.8    C575.7,1100.3,574.5,1099.6,573.3,1098.9L573.3,1098.9z M571.4,998.7c3.3-12.2,6.7-24.4,10-36.6c4.2,26.1,10.5,52.2,16,78.3    c-1.2,13.4-3,26.7-5.6,40C587.7,1052.9,580.9,1025.6,571.4,998.7L571.4,998.7z M595.6,1096.5c3-8.4,5.6-16.8,7.9-25.3    c1.2,6.9,2.3,13.8,3.2,20.8C603.1,1093.8,599.4,1095.3,595.6,1096.5z M632.8,1073c6.4-23.4,11.1-47,14-70.7    c2.3,12.4,4.5,24.8,6.6,37.2C648.8,1052.4,641.6,1063.8,632.8,1073z M650.5,948.6c0.3-19.4-0.6-38.8-2.7-58.2    c15.2,39.7,25.1,80.2,29.5,120.9c-0.2,17.2-1.8,34.1-4.8,50.2C669.5,1023.5,663.2,985.6,650.5,948.6L650.5,948.6z M678.9,1091    c-1.2-5.5-2.5-11-4-16.5c2.2-9.3,3.8-18.8,4.7-28.2C680.2,1061.2,679.9,1076.1,678.9,1091L678.9,1091z M696.7,817.1    c0.4,1.2,0.9,2.4,1.3,3.6c-0.4-0.3-0.9-0.5-1.3-0.8C696.7,819,696.7,818,696.7,817.1L696.7,817.1z M718.1,1001.1    c-12.7-55.1-21-110.5-21.5-166c3.2,3.4,6.1,6.8,8.9,10.2C719.1,896.6,721.4,948.8,718.1,1001.1z M736.6,942.3    c1.8,18,3.4,36.8,3.3,55.2c-6.2,6.9-11.1,13.9-14.8,21c-0.6-2.5-1.3-5-2-7.5c4-55.2-1.6-110.7-17.2-165.1    c23.9,29.5,35.2,61.8,44.1,93.3c4.9,17.3,9.2,34.6,13,51.9C757.6,972.4,748.4,955.5,736.6,942.3L736.6,942.3z M768.5,1050.9    c0.8-11.9,0.8-23.7-0.5-35.5c1.3,7,2.5,13.9,3.5,20.9C770.4,1041.1,769.4,1046,768.5,1050.9L768.5,1050.9z M866,1111.6    c-2-7.5-4.1-14.9-6.3-22.2c6.3-37.6,7.3-75.5,2.9-113.2c6.4,21.2,12.9,42.4,19.3,63.6C876.6,1063.7,871.3,1087.7,866,1111.6    L866,1111.6z"/>
	</g>
	<g>
		<path class="st0" d="M2416.8,663c3.6-6.2,7.3-12.4,11.1-18.6C2424,650.5,2420.3,656.7,2416.8,663z"/>
		<path class="st0" d="M2526.5,659.4c4.8,8.4,8.7,17.1,11.9,25.9C2537,675.9,2533.7,666.9,2526.5,659.4z"/>
		<path class="st0" d="M2592.1,901.6c2.2-5.8,4.6-11.6,6.9-17.4C2596.4,889.9,2594.2,895.7,2592.1,901.6z"/>
		<path class="st0" d="M3146.9,787.5c-3.4-4.9-7.1-9.8-11.1-14.5C3139.6,777.8,3143.3,782.6,3146.9,787.5z"/>
		<path class="st0" d="M3037.2,784.7c-7.1,5.9-10.4,12.9-11.9,20.3C3028.6,798.1,3032.5,791.3,3037.2,784.7z"/>
		<path class="st0" d="M2971.6,974.1c-2-4.6-4.3-9.1-6.9-13.6C2967.1,965,2969.4,969.6,2971.6,974.1z"/>
		<path class="st0" d="M3348.4,1212.7c-5-45.1-14.5-93.2-28.2-142.6c-0.9-18.3-1.9-36.7-3.1-55c-1.9,8.3-3.7,16.7-5.6,25.1    c-14.4-47-32.3-94.8-53.4-142c-12.6-31.6-29-62.6-49.3-92.7c48.3,73.1,58.3,153.8,64,232.8c1.4,19.5,2.6,39.1,2.7,58.6    c-8.2-24.3-17.6-48-28.2-70.8c-2.5-18.6-6.2-37.2-11.1-55.7c1.5-22.8,4.6-45.6,9.4-68.2c-5.7,18.5-10,37.1-12.9,55.8    c-17.1-58.8-46-116.2-86.1-170.6c21.4,30.4,33.6,63.2,43.9,95.9c14.2,44.7,25.4,89.8,33.6,135.1c-12.8-49.3-37.7-97.9-74-144.8    c-5.8-7.5-16.1-15.3-29.1-22.8c-0.5-1.4-1-2.8-1.5-4.1c0.1-4.3,0.3-8.5,0.5-12.8c-0.2,4.2-0.4,8.3-0.6,12.5    c-2.1-6-4.4-12.1-6.9-18.1c2.4,6.1,4.7,12.3,6.9,18.4c0,1-0.1,2.1-0.1,3.1c-13.3-7.6-29.3-15-46.2-21.5    c18.6,11.3,33.6,23.5,45.8,36.3c-0.9,50.3,2.5,100.7,10.3,150.8c2.4,15.4,5.2,30.8,8.8,46.1c-5.8,7.2-8.7,18.4-9.1,31.2    c-5.4,15.6-11.9,30.7-19.5,45c-1.3,0.8-2.6,1.5-3.9,2.2c-0.5-2.9-1.1-5.7-1.6-8.6c18.9-76.2,6.7-155.3-35.4-227.8    c-3.1-21.5-7.5-43-13.5-64.3c3.5,18.3,6.2,36.7,8,55.2c-3.5-5.6-7.1-11.1-10.9-16.6c4.2,8.6,8.1,17.2,11.8,25.9    c1.6,18.5,2.3,37.1,2.2,55.6c-5.6-13.8-12.2-27.5-20-41c6.5,28.6,12.6,57.2,18.2,85.9c-2.7,35.8-8.5,71.5-17.3,106.8    c-0.6,0.5-1.2,0.9-1.8,1.4c-3-24.4-5.8-48.8-8.1-73.2c2.5-33.4-0.2-66.9-8.1-99.9c-0.6-10.2-1.2-20.5-1.8-30.7    c10.4-37.9,20.8-75.8,31.1-113.7c-11.7,26.9-22.6,54.1-32.7,81.4c-0.7-17.7-1.3-35.5-1.7-53.2c-0.1-6-0.1-12.2,1.1-18.1    c-10.1,21.7-13.1,44.7-13.7,67.3c-0.1,4.3-0.1,8.7-0.1,13.1c-2.8-6.7-5.8-13.3-9.1-19.9c3.1,17.2,6.2,34.5,8.9,51.9    c-9.8,28.8-18.7,57.6-26.5,86.1c-4.1-9.8-8.5-19.6-13.3-29.3c5.4,12.3,8.7,24.9,11,37.7c-3.5,13-6.8,25.9-9.9,38.8    c-1.9-9.3-4.1-18.6-6.5-27.9c0.3-1.3,0.5-2.7,0.8-4c-0.4,0.9-0.8,1.8-1.1,2.8c-4.1-15.5-9-30.9-14.6-46.3    c4.7-21.2,10.6-42.3,17.7-63.2c-14.2,11.9-20.9,26.4-26.4,40.9c-0.2-0.6-0.5-1.2-0.8-1.8c1.9-4.2,3.8-8.4,5.8-12.6    c-2.4,3.3-4.7,6.6-6.9,9.9c-7-16.5-14.8-32.8-23.5-49c6.7,19,12.6,38,18,57.2c-10.2,15.6-19.2,31.3-26.8,47.2    c-10.8-92.5-15.7-187.5-14.4-282.2c-16.3,90.9-21.4,189.8-11.7,284.1c0.1,1.1,0.2,2.1,0.4,3.2c0,2.2-0.1,4.4-0.1,6.5    c-3.8-9.1-8.2-18.1-13.1-27c0.1-1.3,0.3-2.5,0.4-3.8c-0.4,0.4-0.8,0.9-1.2,1.3c-2.3-8.8-4.9-17.7-7.8-26.4    c-3.1-29-9.7-57.9-19.8-86.3c3.5,18.1,6.2,36.3,8,54.5c-1.1-2.5-2.1-5.1-3.2-7.7c-0.4-6.7-0.9-13.3-1.8-20    c-0.3,4.8-0.5,9.5-0.8,14.3c-0.4-1-0.8-1.9-1.3-2.9c-0.9-15.6-4.1-31.3-12.2-46.3c3.2-21.6,6.9-43.3,10.9-64.9    c-6,18.4-11.1,37-15.4,55.7c-1.2-2.6-3-5.2-5.4-7.6c0.6-0.9,1.2-1.9,1.9-2.8c-0.8,0.8-1.6,1.6-2.4,2.4c-1.6-1.5-3.5-3-5.8-4.4    c1.7,1.8,3.3,3.6,4.9,5.4c-3.8,3.8-7.4,7.7-10.9,11.6c-1.5-4.6-3.1-9.2-4.7-13.8c1.9-4.4,3.8-8.7,5.8-13.1    c-2.1,4.3-4,8.6-5.8,12.9c-0.6-1.6-1.2-3.3-1.8-4.9c-0.1-1-0.1-1.9-0.2-2.9c0.1,0.9,0.1,1.9,0.1,2.8c-6.4-17.1-14-33.9-22.9-50.2    c2.1-2.4,4.3-4.8,6.5-7.3c-2.3,2.4-4.5,4.8-6.6,7.2c-9.4-17.2-20.1-33.8-32.5-49.8c1.5-2.3,3.1-4.6,4.9-6.9    c-2.3,1.8-4.2,3.7-5.8,5.7c-0.8-1-1.6-2-2.4-3c0.6,1.2,1.2,2.4,1.9,3.6c-3.8,4.7-5.9,9.9-7,15.3c2.3-4.6,4.9-9.2,7.8-13.7    c9.7,18.7,18.5,37.6,26.3,56.8c-7.1,8.3-13.9,16.8-20.4,25.2c-2.4-9.6-4.9-19.2-7.5-28.8c2.2,10.1,4.3,20.2,6.3,30.4    c-3.9,5.2-7.7,10.5-11.4,15.7c-1-22.2-1.9-44.4-2.4-66.6c-0.1-6.3-0.1-12.9,1.2-19.2c-10.3,21.1-14,43.3-15.1,65.4    c-0.4,1.2-0.9,2.5-1.3,3.7c-0.3-6.1-0.5-12.2-0.8-18.2c-0.8,8.5-1.4,17-1.8,25.5c-1.1,3.2-2.2,6.5-3.2,9.8    c1.8-23.3,4.5-46.5,8-69.7c-10.1,36.3-16.6,73.3-19.8,110.4c-2.9,11.2-5.5,22.5-7.8,33.8c-0.4-0.6-0.8-1.1-1.2-1.7    c0.1,1.6,0.3,3.2,0.4,4.8c-5,11.5-9.4,23-13.1,34.6c0-2.8-0.1-5.6-0.1-8.4c0.1-1.4,0.2-2.7,0.4-4.1c9.6-120.6,4.5-247-11.7-363.2    c1.3,121.1-3.6,242.6-14.4,360.8c-7.7-20.3-16.6-40.4-26.8-60.3c5.4-24.5,11.3-48.8,18-73.1c-8.7,20.7-16.5,41.5-23.5,62.6    c-2.3-4.2-4.6-8.4-6.9-12.6c2,5.4,3.9,10.8,5.8,16.1c-0.2,0.8-0.5,1.5-0.8,2.3c-5.5-18.5-12.2-37.1-26.4-52.3    c7.1,26.8,13,53.8,17.7,80.9c-5.6,19.6-10.4,39.3-14.6,59.2c-0.4-1.2-0.8-2.4-1.1-3.5c0.3,1.7,0.5,3.4,0.8,5.1    c-2.4,11.8-4.6,23.7-6.5,35.6c-3.1-16.4-6.4-33-9.9-49.6c2.3-16.3,5.6-32.4,11-48.2c-4.8,12.4-9.2,24.9-13.3,37.5    c-7.9-36.5-16.7-73.3-26.5-110.1c2.8-22.2,5.8-44.3,8.9-66.3c-3.3,8.5-6.3,17-9.1,25.5c0-5.6,0-11.1-0.1-16.7    c-0.6-29-3.6-58.4-13.7-86.1c1.2,7.6,1.2,15.5,1.1,23.2c-0.4,22.7-1,45.4-1.7,68c-10.1-34.8-21-69.6-32.7-104    c10.4,48.4,20.8,96.9,31.1,145.3c-0.5,13.1-1.1,26.2-1.8,39.2c-7.9,42.2-10.5,85.1-8.1,127.8c-2.4,31.2-5.1,62.4-8.1,93.7    c-0.6-0.6-1.2-1.2-1.8-1.8c-8.8-45.1-14.6-90.7-17.3-136.5c5.6-36.7,11.7-73.3,18.2-109.8c-7.8,17.3-14.4,34.8-20,52.4    c-0.1-23.7,0.6-47.4,2.2-71.1c3.7-11.1,7.6-22.1,11.8-33.1c-3.8,7-7.5,14.1-10.9,21.3c1.8-23.6,4.5-47.1,8-70.5    c-6,27.2-10.4,54.7-13.5,82.2c-42.1,92.7-54.4,193.9-35.4,291.2c-0.6,3.6-1.1,7.3-1.6,10.9c-1.3-0.9-2.6-1.9-3.9-2.8    c-7.6-18.3-14.1-37.6-19.5-57.5c-0.4-16.3-3.3-30.7-9.1-39.8c3.6-19.6,6.4-39.3,8.8-59c7.7-64.1,11.1-128.5,10.3-192.9    c12.2-16.4,27.1-32,45.8-46.5c-16.9,8.4-32.9,17.8-46.2,27.5c0-1.3-0.1-2.6-0.1-4c2.2-7.9,4.4-15.7,6.9-23.6    c-2.5,7.7-4.7,15.4-6.9,23.1c-0.2-5.3-0.4-10.7-0.6-16c0.2,5.5,0.4,10.9,0.5,16.4c-0.5,1.8-1,3.5-1.5,5.3    c-13,9.7-23.3,19.6-29.1,29.2c-36.4,59.9-61.2,122.1-74,185.1c8.2-57.9,19.4-115.5,33.6-172.7c10.4-41.7,22.6-83.7,43.9-122.6    c-40.1,69.4-68.9,142.9-86.1,218.1c-2.9-23.9-7.1-47.7-12.9-71.3c4.8,29,7.9,58.1,9.4,87.2c-4.9,23.6-8.5,47.4-11.1,71.2    c-10.6,29.2-20,59.5-28.2,90.5c0.1-25,1.3-50,2.7-74.9c5.8-101.1,15.7-204.2,64-297.6c-20.2,38.4-36.7,78.1-49.3,118.5    c-21.1,60.3-39,121.5-53.4,181.5c-1.9-10.7-3.7-21.4-5.6-32c-1.2,23.4-2.3,46.8-3.1,70.2c-13.6,63.2-23.2,124.7-28.2,182.3    c8.8-37,17.6-74,26.4-110.9c-0.7,56.7,0.6,113.4,5.3,169.7c181.9-39.3,366.8-2.3,550.4-9.4c11.3-0.4,22.7-1.1,33.8-4    c162.2-1.1,325.1-20.5,485.6,6.7c4.7-44,6-88.3,5.3-132.7C3330.9,1154.9,3339.7,1183.8,3348.4,1212.7L3348.4,1212.7z     M2274.6,1115.7c-5.3-30.6-10.6-61.2-15.9-91.8c6.4-27.1,12.9-54.2,19.3-81.3c-4.4,48.2-3.5,96.6,2.9,144.7    C2278.7,1096.7,2276.6,1106.1,2274.6,1115.7z M2443.9,739.1c0,1.2,0,2.5,0,3.7c-0.4,0.3-0.9,0.7-1.3,1    C2443,742.3,2443.5,740.7,2443.9,739.1z M2372.2,1038.1c-0.9-6.3-1.9-12.6-3-18.8c1.1-8.9,2.2-17.8,3.5-26.7    C2371.4,1007.8,2371.4,1022.9,2372.2,1038.1z M2415.6,996.6c-3.7-9-8.6-18-14.8-26.8c-0.1-23.5,1.5-47.6,3.3-70.6    c-11.9,16.9-21,38.5-26.5,62.3c3.8-22.2,8.1-44.3,13-66.4c8.9-40.2,20.2-81.5,44.1-119.3c-15.5,69.6-21.2,140.5-17.1,211.1    C2416.9,990.2,2416.2,993.4,2415.6,996.6L2415.6,996.6z M2435.1,775.3c2.8-4.4,5.8-8.8,8.9-13c-0.4,71-8.7,141.7-21.5,212.2    C2419.2,907.5,2421.6,840.8,2435.1,775.3L2435.1,775.3z M2461.7,1089.4c-1-19-1.2-38.1-0.8-57.1c0.9,12,2.5,24.1,4.7,36    C2464.2,1075.2,2462.9,1082.3,2461.7,1089.4L2461.7,1089.4z M2463.4,987.6c4.4-52.1,14.2-103.8,29.5-154.6    c-2.1,24.8-3,49.6-2.7,74.4c-12.7,47.3-19,95.7-21.9,144.5C2465.2,1031.1,2463.6,1009.6,2463.4,987.6L2463.4,987.6z     M2487.2,1023.6c2.1-15.9,4.3-31.7,6.6-47.6c2.9,30.3,7.6,60.4,14,90.4C2499,1054.6,2491.8,1040.1,2487.2,1023.6z M2547.6,870.6    c2.5,11.7,5,23.4,7.5,35.1c-4.7,11.9-9,23.8-12.8,35.9C2543.3,917.9,2545.2,894.2,2547.6,870.6z M2533.9,1090.7    c0.9-8.8,2-17.7,3.2-26.5c2.3,10.8,4.9,21.6,7.9,32.3C2541.2,1094.8,2537.6,1092.9,2533.9,1090.7L2533.9,1090.7z M2543.2,1024.7    c5.5-33.4,11.7-66.8,16-100.2c3.4,15.6,6.7,31.2,10,46.8c-9.4,34.5-16.3,69.3-20.4,104.4    C2546.1,1058.9,2544.3,1041.8,2543.2,1024.7L2543.2,1024.7z M2581.9,1085.5c-4.5,5.3-9.4,10-14.5,13.9c-1.2,0.9-2.4,1.8-3.6,2.6    c5.1-31.8,8.6-66.1,11.9-100.7c3.1,14.6,6.2,29.1,9.4,43.7C2583.6,1058.5,2582.6,1072,2581.9,1085.5L2581.9,1085.5z     M2599.9,1050.3c-0.1-0.6-0.2-1.2-0.3-1.8c0.4-2.7,0.7-5.4,1.1-8.1C2600.5,1043.7,2600.2,1047,2599.9,1050.3z M2625.6,1080    c-4.6-29.4-10.7-58.2-18.3-86.1c3-19.8,6.3-39.6,10-59.3C2623.9,982.9,2626.7,1031.5,2625.6,1080z M2649.9,993.2    c-5.6-34.2-14.5-68.3-24.1-102c0.3-1.5,0.6-2.9,0.9-4.4c9.8,29.5,17.9,59.1,25,88.8C2651.2,981.4,2650.6,987.3,2649.9,993.2    L2649.9,993.2z M2689.5,1055.3c0.4-18.2,1.4-36.4,2.8-54.6c1.6-7.4,3.3-14.8,5.1-22.2C2697.7,1005.4,2695.8,1031.8,2689.5,1055.3z     M2850.1,940.9c0.5,6.2,0.9,12.4,1.1,18.5c-1.6-2.3-3.2-4.6-4.9-6.8c0.2-8.4,0.1-16.7-0.2-25.1    C2847.5,932,2848.8,936.4,2850.1,940.9L2850.1,940.9z M2842.1,916c0-0.3,0-0.6,0-0.9c0.3,0.9,0.6,1.8,0.9,2.7    c-0.5,9.5-1,18.9-1.5,28.4c-0.1-0.1-0.1-0.2-0.2-0.2C2842.1,936,2842.5,926,2842.1,916L2842.1,916z M2839.2,964.5    c0.4,0.8,0.7,1.6,1.1,2.4c-0.8,14.5-1.6,29-2.4,43.5c-0.1-0.3-0.2-0.6-0.4-0.8c-1.9,2.7-3.7,5.5-5.4,8.2c-0.1-2.5-0.2-5-0.3-7.6    c0.9-5.1,1.8-10.2,2.6-15.4C2836.3,984.7,2837.9,974.6,2839.2,964.5L2839.2,964.5z M2729.2,928.1c1.5,11.2,3,22.5,4.6,33.7    c-2.5-5-5-10-7.6-14.9c-0.1,0.4-0.2,0.7-0.4,1.1c-0.7-17.1-1.4-34.2-2.2-51.3c1.2,5.1,2.4,10.2,3.5,15.3    C2727.8,917.4,2728.5,922.7,2729.2,928.1L2729.2,928.1z M2757,923.8c1.4,2.4,2.7,4.8,4,7.2c-0.9,1.9-1.7,3.8-2.6,5.7    C2757.9,932.5,2757.4,928.1,2757,923.8L2757,923.8z M2798.9,882.5c0.6,2.2,1.1,4.5,1.7,6.7c-0.2,3.8-0.5,7.6-0.8,11.4    c-0.2-0.2-0.4-0.3-0.5-0.5c-0.4-5.3-0.8-10.6-1.3-15.9C2798.3,883.6,2798.6,883,2798.9,882.5L2798.9,882.5z M2818.4,1002.4    c-0.6,3.9-1.3,7.8-1.9,11.7c0.1-8.7,0.4-17.4,0.8-26.1C2817.7,992.7,2818.1,997.6,2818.4,1002.4L2818.4,1002.4z M2801.5,1026.3    c-1.1-3.4-2.2-6.7-3.4-10.1c0.9-10.3,1.6-20.6,2.1-31c2.6-17.4,5.9-34.7,9.7-52c0.5,2.9,1,5.8,1.5,8.8c-0.9,10-1.6,20.1-2,30.1    C2807.1,990.2,2804.4,1008.3,2801.5,1026.3L2801.5,1026.3z M2777.5,970.6c2.4,8.2,4.3,16.5,5.7,24.8c-0.2,1.9-0.4,3.7-0.7,5.6    c-1.2,4.7-2.4,9.4-3.7,14C2777.8,1000.2,2777.3,985.4,2777.5,970.6L2777.5,970.6z M2773.6,958.7c0.1,0.3,0.2,0.5,0.3,0.8    c0,0.4-0.1,0.7-0.1,1.1C2773.7,959.9,2773.7,959.3,2773.6,958.7L2773.6,958.7z M2799.3,900.9c0.1,0.2,0.3,0.3,0.4,0.4    c-0.1,0.8-0.1,1.6-0.2,2.5C2799.5,902.8,2799.4,901.9,2799.3,900.9z M2800.6,924c0.4-6.9,0.8-13.7,1-20.6c1.1,1.2,2.2,2.5,3.2,3.7    c1.5,6.7,2.9,13.5,4.1,20.3c-2.9,10.1-5.5,20.2-7.9,30.3C2801.1,946.5,2801,935.2,2800.6,924L2800.6,924z M2801.6,902.3    c0.1-2.7,0.2-5.3,0.2-8c0.9,3.5,1.7,7.1,2.5,10.6C2803.4,904,2802.5,903.2,2801.6,902.3z M2785,980C2785,980,2785,980,2785,980    c0,0,0,0.1,0,0.2c-0.3,2.8-0.6,5.7-1,8.5c-1.8-6.9-3.9-13.8-6.4-20.7c0.4-18,2.1-36,5.2-53.9c3-6.6,6.2-13.1,9.6-19.6    C2790.7,923.1,2788.2,951.6,2785,980L2785,980z M2774,958.6c-0.2-0.4-0.3-0.8-0.5-1.2c-0.6-5.7-1.2-11.3-1.8-17    c2.5-6.4,5.1-12.7,7.9-19C2777,933.8,2775.2,946.2,2774,958.6L2774,958.6z M2763.2,964.4c1.1-3.4,2.2-6.7,3.4-10.1    c-0.9,7.2-1.7,14.3-2.3,21.5C2763.8,972.1,2763.5,968.3,2763.2,964.4L2763.2,964.4z M2825.7,927.3c-0.8-0.9-1.6-1.8-2.5-2.8    c-0.2-1.3-0.5-2.6-0.7-3.9c1.6-14.6,3.4-29.2,5.5-43.9C2827.4,893.5,2826.7,910.4,2825.7,927.3L2825.7,927.3z M2819,849.5    c2.1,2.6,4.1,5.2,5.9,7.8c-2.9,12.8-5.4,25.7-7.6,38.6c-2.4-10.3-5.2-20.6-8.4-30.7C2812.2,859.9,2815.6,854.7,2819,849.5    L2819,849.5z M2790.2,881.6c1.1-3.7,2.2-7.5,3.4-11.2c-0.1,2.4-0.2,4.7-0.3,7.1C2792.2,878.9,2791.2,880.2,2790.2,881.6    L2790.2,881.6z M2771.1,799.1c8.8,21.5,16.4,43.2,22.8,65.2c-0.1,1.9-0.1,3.8-0.2,5.7c-1.5,4.2-2.8,8.3-4.1,12.5    c-1.2,1.7-2.4,3.4-3.6,5.1c-2.1-1.9-4.3-3.8-6.6-5.6c2.2,1.9,4.4,3.8,6.5,5.7c-6.4,9.2-12.2,18.7-17.3,28.2    c-4.2-29.4-9.8-58.8-16.9-88C2757.2,818.2,2763.6,808.5,2771.1,799.1L2771.1,799.1z M2750.3,830.2c5.9,31.1,10.6,62.3,14.1,93.7    c-0.5,1-1,2.1-1.5,3.1c0.1-0.7,0.1-1.5,0.1-2.2c-0.1,0.8-0.1,1.5-0.2,2.3c-0.6,1.3-1.2,2.5-1.8,3.8c-1.3-2.4-2.7-4.8-4.1-7.2    c-2.8-25.1-5.3-50.2-7.4-75.3c-1.4,37.6-2.1,75.6-0.6,113.3c-0.7,2.2-1.4,4.4-2.1,6.6c-3.5-38.2-6.2-76.5-8.1-114.8    C2742.1,845.7,2746,837.9,2750.3,830.2L2750.3,830.2z M2724.5,889.2c0.4,4.1,0.9,8.2,1.4,12.3c-0.8-1.9-1.5-3.8-2.3-5.8    c-0.1-1.2-0.1-2.3-0.1-3.5C2723.8,891.3,2724.1,890.3,2724.5,889.2L2724.5,889.2z M2721.6,826.2c0,0.4,0,0.7,0,1.1    c-0.4,12.8,0,25.6,0.9,38.3c-0.1,0.1-0.1,0.2-0.2,0.3c-0.5-12.1-1-24.2-1.5-36.3C2721,828.5,2721.3,827.3,2721.6,826.2    L2721.6,826.2z M2713.6,859.1c1.3-5.7,2.6-11.4,4-17.1c-0.3,10.7-0.4,21.4-0.2,32.1c-1.7,2.9-3.3,5.8-4.9,8.7    C2712.8,874.9,2713.1,867,2713.6,859.1z M2712,926.2c2.1-6.5,4.2-13.1,6.4-19.6c0.8,18.4,1.9,36.9,3,55.3    c-0.6,2.3-1.2,4.5-1.8,6.8c-2-7-4.4-13.8-7-20.3C2712.3,941,2712.1,933.6,2712,926.2L2712,926.2z M2851.2,1010.7    c-2.7,5.1-5,10.4-7,15.9c-0.6-1.8-1.2-3.6-1.8-5.3c1.1-14.4,2.2-28.8,3-43.3c2.2,5.1,4.4,10.2,6.4,15.3    C2851.7,999.2,2851.4,1005,2851.2,1010.7L2851.2,1010.7z M2866.3,1034.3c1.8,5.8,3.5,11.6,5.1,17.4c1.4,14.2,2.3,28.4,2.8,42.7    C2867.9,1075.9,2866,1055.3,2866.3,1034.3L2866.3,1034.3z M2913.8,1045.7c-0.6-4.6-1.2-9.2-1.9-13.8c7-23.2,15.2-46.4,25-69.5    c0.3,1.1,0.6,2.3,0.9,3.4C2928.3,992.3,2919.4,1018.9,2913.8,1045.7L2913.8,1045.7z M2938.1,1113.7c-1.1-38,1.7-76,8.3-113.7    c3.6,15.4,6.9,30.9,10,46.4C2948.8,1068.1,2942.7,1090.7,2938.1,1113.7z M2963.8,1090.4c-0.3-2.6-0.6-5.1-0.8-7.7    c0.4,2.1,0.7,4.2,1.1,6.3C2964,1089.5,2963.9,1090,2963.8,1090.4L2963.8,1090.4z M3016.2,949.9c2.4,18.5,4.3,37,5.2,55.6    c-3.8-9.4-8-18.8-12.8-28.1C3011.1,968.2,3013.6,959,3016.2,949.9z M2996.4,1128.9c-5.1-3.1-9.9-6.7-14.5-10.9    c-0.7-10.6-1.7-21.1-3.1-31.6c3.1-11.4,6.2-22.8,9.4-34.2c3.3,27.1,6.7,53.9,11.9,78.8C2998.8,1130.3,2997.6,1129.6,2996.4,1128.9    L2996.4,1128.9z M2994.5,1028.7c3.4-12.2,6.7-24.4,10-36.6c4.2,26.1,10.5,52.2,16,78.3c-1.1,13.4-3,26.7-5.6,40    C3010.8,1082.9,3004,1055.6,2994.5,1028.7L2994.5,1028.7z M3018.7,1126.5c3-8.4,5.6-16.8,7.9-25.3c1.2,6.9,2.3,13.8,3.2,20.8    C3026.2,1123.8,3022.5,1125.3,3018.7,1126.5z M3055.9,1103c6.4-23.4,11.1-47,14-70.7c2.3,12.4,4.5,24.8,6.6,37.2    C3071.9,1082.4,3064.7,1093.8,3055.9,1103L3055.9,1103z M3073.6,978.6c0.3-19.4-0.6-38.8-2.7-58.2c15.2,39.7,25.1,80.2,29.5,120.9    c-0.2,17.2-1.8,34.1-4.8,50.2C3092.6,1053.5,3086.3,1015.6,3073.6,978.6L3073.6,978.6z M3102,1121c-1.2-5.5-2.5-11-3.9-16.5    c2.2-9.3,3.8-18.8,4.7-28.2C3103.3,1091.2,3103,1106.1,3102,1121L3102,1121z M3119.8,847.1c0.4,1.2,0.9,2.4,1.3,3.6    c-0.4-0.3-0.9-0.5-1.3-0.8C3119.8,849,3119.8,848,3119.8,847.1z M3141.2,1031.1c-12.7-55.1-21-110.5-21.5-166    c3.2,3.4,6.1,6.8,8.9,10.2C3142.2,926.6,3144.5,978.8,3141.2,1031.1z M3159.7,972.3c1.8,18,3.4,36.8,3.3,55.2    c-6.2,6.9-11.1,13.9-14.8,20.9c-0.6-2.5-1.3-5-2-7.5c4.1-55.2-1.6-110.7-17.1-165.1c23.9,29.5,35.2,61.8,44.1,93.3    c4.9,17.3,9.2,34.6,13,51.9C3180.7,1002.4,3171.5,985.5,3159.7,972.3L3159.7,972.3z M3191.6,1080.9c0.8-11.9,0.8-23.7-0.5-35.6    c1.3,7,2.4,13.9,3.5,20.9C3193.5,1071.1,3192.5,1076,3191.6,1080.9L3191.6,1080.9z M3289.1,1141.6c-2-7.5-4.1-14.9-6.3-22.2    c6.4-37.6,7.3-75.5,2.9-113.2c6.4,21.2,12.9,42.4,19.3,63.6C3299.7,1093.7,3294.4,1117.7,3289.1,1141.6L3289.1,1141.6z"/>
	</g>
	
		<linearGradient id="SVGID_00000074426314019540682720000003283969445237202613_" gradientUnits="userSpaceOnUse" x1="1504.3635" y1="-253.5204" x2="1556.8936" y2="1389.7795" gradientTransform="matrix(1 0 0 -1 0 1900)">
		<stop offset="0.2" style="stop-color:#333D29"/>
		<stop offset="0.35" style="stop-color:#657243"/>
		<stop offset="0.54" style="stop-color:#BBC290"/>
	</linearGradient>
	<path style="fill:url(#SVGID_00000074426314019540682720000003283969445237202613_);" d="M-401.9,1625.1   c3,63.5,9.1,126.9,15.5,190.3c4.4,43.3,9,86.7,12.8,130c28.1-6.3,56.6-12.3,85.6-17.7c351-65.1,725.4-65.2,1092.8-67.8   c201.4-1.4,402.9-1.7,604.3-1.8c99.5,0,199.4-1.2,298.8,1.6c95.7,2.7,190.9,8.6,285.6,15.8c99.2,7.6,198,16.6,297,25.2   c97.3,8.5,195,14.9,292.5,22.4c92.6,7.2,183.2,19.8,274.3,30.8c88.9,10.8,184.8,23.8,276.6,21.9c121.6-2.4,203.4-46,281.1-90.4   l47.1-43.1c0.3-45,0.4-89.9,0.1-134.9c-0.7-130.5-3.9-261-10.7-391.5c-1.7-32.2-3.6-64.3-5.7-96.5   c-126.1-34.8-262.6-46.5-458.2-27.3c-20.9,2.1-71.1,16.3-144.9,28.2c-142.7,23.1-215.4,34.1-284.6,12.5   c-35.3-11-59.2-28.3-114.6-34.5c-44.1-5-75.5-6.6-102.6-6.5c-70.1,0.3-105.2,0.9-133.2,7.3c-106.7,24.4-99.9,122.6-201.8,171.1   c-69.4,33-80.8-8.6-274.8-1.7c-33.4,1.2-109.3,10.2-259.9,28.1c-191.5,22.8-184.5,24-190.3,23.2c-163.2-22.4-351.8-185.8-427-197   c-10.1-1.5-21.4-2.9-21.4-2.9c-19.4-2.4-48.7-5.4-84.2-6.7c-45.4-1.6-79.2,0.4-89.4,1c-123.9,6.8-406.3-4-688.9,2   c-89.4,1.9-221.6,6.4-384,18.4c1.1,68.6,5.2,137.3,7.8,205.9C-403.9,1502.3-404.8,1563.7-401.9,1625.1L-401.9,1625.1z"/>
	
		<linearGradient id="SVGID_00000168837617073002471800000002696640158393104288_" gradientUnits="userSpaceOnUse" x1="1452.8617" y1="-185.7794" x2="1501.2316" y2="1327.2607" gradientTransform="matrix(1 0 0 -1 0 1900)">
		<stop offset="0.2" style="stop-color:#333D29"/>
		<stop offset="0.35" style="stop-color:#657243"/>
		<stop offset="0.54" style="stop-color:#BBC290"/>
	</linearGradient>
	<path style="fill:url(#SVGID_00000168837617073002471800000002696640158393104288_);" d="M718.9,1606c1.2,63.5,3.5,126.9,6.1,190.3   c1.7,43.3,3.5,86.7,5,130c11-6.3,22.1-12.3,33.4-17.7c137.1-65.1,283.3-65.2,426.8-67.8c78.7-1.4,157.3-1.7,236-1.8   c38.9,0,77.9-1.2,116.7,1.6c37.3,2.7,74.5,8.6,111.6,15.8c38.8,7.6,77.3,16.6,116,25.2c38,8.5,76.2,14.9,114.2,22.4   c36.2,7.2,71.5,19.8,107.1,30.8c34.7,10.8,72.2,23.8,108,21.9c47.5-2.4,79.4-46,109.8-90.4l18.4-43.1c0.1-45,0.1-89.9,0-134.9   c-0.3-130.5-1.5-261-4.2-391.5c-0.6-32.2-1.4-64.3-2.2-96.5c-49.2-34.8-102.6-46.5-178.9-27.3c-79.5,20-78.1,76.2-127.3,82.6   s-14.8-56.1-85.2-76.4c-70.3-20.3-57.8,15.1-188.2-3c-130.4-18.1-94,61.2-236.7,50.8c-142.7-10.4-191.4-73.1-225.8-26.5   s-153.1,66.7-226.8,20.1c-57.8-36.6-185.9-15.8-238.3-5.1c0.5,68.6,2,137.3,3.1,205.9C718.1,1483.2,717.7,1544.6,718.9,1606   L718.9,1606z"/>
	<g>
		<path class="st3" d="M93.7,1201.1c3.6-6.2,7.3-12.4,11.1-18.6C100.8,1188.7,97.2,1194.9,93.7,1201.1z"/>
		<path class="st3" d="M203.4,1197.6c4.8,8.4,8.7,17.1,11.9,25.9C213.8,1214.1,210.5,1205.1,203.4,1197.6z"/>
		<path class="st3" d="M269,1439.7c2.2-5.8,4.5-11.6,7-17.4C273.3,1428.1,271,1433.9,269,1439.7z"/>
		<path class="st3" d="M823.8,1325.7c-3.5-4.9-7.1-9.8-11.1-14.5C816.5,1316,820.2,1320.8,823.8,1325.7z"/>
		<path class="st3" d="M714.1,1322.9c-7.1,5.9-10.4,12.9-11.9,20.3C705.4,1336.2,709.3,1329.5,714.1,1322.9z"/>
		<path class="st3" d="M648.5,1512.3c-2-4.6-4.3-9.1-7-13.6C643.9,1503.2,646.3,1507.8,648.5,1512.3z"/>
		<path class="st3" d="M1025.3,1750.9c-5-45.1-14.5-93.2-28.2-142.6c-0.9-18.3-1.9-36.7-3.2-54.9c-1.8,8.3-3.7,16.7-5.5,25.1    c-14.4-46.9-32.3-94.8-53.3-142c-12.6-31.6-29-62.6-49.3-92.7c48.3,73.1,58.3,153.8,64,232.8c1.4,19.5,2.6,39.1,2.7,58.6    c-8.2-24.3-17.6-48-28.2-70.8c-2.5-18.6-6.2-37.2-11.1-55.7c1.5-22.8,4.6-45.6,9.4-68.2c-5.7,18.5-10,37.1-12.9,55.8    c-17.1-58.8-46-116.2-86.1-170.6c21.4,30.4,33.6,63.2,43.9,95.9c14.2,44.7,25.4,89.8,33.6,135.1c-12.8-49.3-37.7-97.9-74-144.8    c-5.8-7.5-16.1-15.3-29.1-22.8c-0.5-1.4-1-2.8-1.5-4.1c0.1-4.3,0.3-8.6,0.5-12.8c-0.2,4.2-0.4,8.3-0.6,12.5    c-2.1-6-4.4-12.1-6.9-18.1c2.4,6.1,4.7,12.3,6.9,18.4c0,1-0.1,2.1-0.1,3.1c-13.3-7.6-29.3-14.9-46.2-21.5    c18.7,11.3,33.6,23.5,45.8,36.3c-0.9,50.3,2.5,100.7,10.3,150.8c2.4,15.4,5.2,30.8,8.8,46.1c-5.8,7.2-8.7,18.4-9,31.2    c-5.4,15.6-11.9,30.7-19.5,45c-1.3,0.8-2.6,1.5-3.9,2.2c-0.5-2.9-1-5.7-1.6-8.6c18.9-76.2,6.7-155.3-35.4-227.8    c-3.1-21.5-7.5-43-13.5-64.3c3.5,18.3,6.2,36.7,8,55.2c-3.5-5.6-7.1-11.1-10.9-16.6c4.2,8.6,8.1,17.2,11.8,25.9    c1.6,18.5,2.3,37.1,2.2,55.6c-5.7-13.8-12.2-27.5-20-41c6.5,28.6,12.6,57.2,18.2,85.9c-2.7,35.8-8.5,71.5-17.3,106.8    c-0.6,0.5-1.2,0.9-1.8,1.4c-3-24.4-5.8-48.8-8.2-73.2c2.5-33.4-0.2-66.9-8-99.9c-0.6-10.2-1.2-20.4-1.8-30.7    c10.4-37.9,20.8-75.8,31.2-113.7c-11.7,26.9-22.6,54.1-32.7,81.4c-0.7-17.7-1.3-35.5-1.7-53.2c-0.1-6-0.1-12.2,1.1-18.1    c-10.1,21.7-13.1,44.7-13.7,67.3c-0.1,4.3-0.1,8.7-0.1,13.1c-2.8-6.7-5.8-13.3-9.1-19.9c3.1,17.2,6.2,34.5,8.9,51.9    c-9.8,28.8-18.7,57.6-26.5,86.1c-4.1-9.8-8.5-19.6-13.3-29.3c5.4,12.3,8.7,24.9,11,37.7c-3.5,13-6.8,25.9-9.9,38.8    c-1.9-9.3-4.1-18.6-6.5-27.9c0.3-1.3,0.5-2.7,0.8-4c-0.4,0.9-0.8,1.8-1.1,2.8c-4.1-15.5-9-30.9-14.5-46.3    c4.7-21.2,10.6-42.3,17.7-63.2c-14.2,11.9-20.9,26.4-26.4,40.9c-0.2-0.6-0.5-1.2-0.8-1.8c1.9-4.2,3.8-8.4,5.8-12.6    c-2.4,3.3-4.7,6.6-7,9.9c-7-16.5-14.8-32.8-23.5-49c6.7,19,12.6,38,18,57.2c-10.2,15.6-19.2,31.3-26.8,47.2    c-10.8-92.5-15.7-187.5-14.4-282.2c-16.3,90.9-21.4,189.8-11.7,284.1c0.1,1.1,0.2,2.1,0.3,3.2c0,2.2,0,4.4-0.1,6.5    c-3.8-9.1-8.2-18.1-13.1-27.1c0.1-1.3,0.3-2.5,0.4-3.8c-0.4,0.4-0.8,0.9-1.2,1.3c-2.3-8.8-4.9-17.7-7.8-26.4    c-3.1-29-9.7-57.9-19.8-86.3c3.5,18.1,6.2,36.3,8,54.5c-1-2.6-2.1-5.1-3.2-7.7c-0.4-6.7-1-13.3-1.8-20c-0.3,4.8-0.5,9.5-0.8,14.3    c-0.4-1-0.8-1.9-1.3-2.9c-0.9-15.6-4-31.3-12.2-46.3c3.2-21.6,6.9-43.3,10.9-64.9c-6,18.4-11.1,37-15.4,55.7    c-1.2-2.6-3-5.2-5.4-7.6c0.6-0.9,1.2-1.9,1.9-2.8c-0.8,0.8-1.6,1.6-2.4,2.4c-1.6-1.5-3.5-3-5.8-4.4c1.7,1.8,3.3,3.6,4.9,5.4    c-3.8,3.8-7.4,7.7-10.9,11.6c-1.5-4.6-3.1-9.2-4.7-13.8c1.9-4.4,3.8-8.7,5.8-13.1c-2.1,4.3-4,8.6-5.8,12.9    c-0.6-1.6-1.2-3.3-1.8-4.9c0-1-0.1-1.9-0.2-2.9c0,0.9,0.1,1.9,0.1,2.8c-6.4-17.1-14-33.9-22.9-50.2c2.1-2.4,4.3-4.8,6.5-7.3    c-2.3,2.4-4.5,4.8-6.6,7.2c-9.4-17.2-20.1-33.8-32.5-49.8c1.5-2.3,3.1-4.6,4.9-6.9c-2.3,1.8-4.2,3.7-5.8,5.7c-0.8-1-1.6-2-2.4-3    c0.6,1.2,1.2,2.4,1.9,3.6c-3.8,4.7-5.9,9.9-7,15.3c2.3-4.6,4.9-9.2,7.8-13.7c9.7,18.7,18.5,37.6,26.3,56.8    c-7.1,8.3-13.9,16.8-20.4,25.2c-2.4-9.6-4.9-19.2-7.5-28.8c2.2,10.1,4.3,20.2,6.3,30.4c-3.9,5.2-7.7,10.5-11.4,15.7    c-1-22.2-1.9-44.4-2.4-66.6c-0.1-6.3-0.1-12.9,1.2-19.2c-10.3,21.1-14,43.3-15.1,65.4c-0.4,1.2-0.9,2.5-1.3,3.7    c-0.3-6.1-0.5-12.2-0.8-18.2c-0.8,8.5-1.4,17-1.8,25.6c-1.1,3.2-2.2,6.5-3.2,9.8c1.8-23.3,4.5-46.5,8-69.7    c-10.1,36.3-16.6,73.3-19.8,110.4c-2.9,11.2-5.5,22.5-7.8,33.8c-0.4-0.6-0.8-1.1-1.2-1.7c0.1,1.6,0.3,3.2,0.4,4.8    c-5,11.5-9.4,23-13.1,34.6c0-2.8,0-5.6-0.1-8.4c0.1-1.4,0.2-2.7,0.4-4.1c9.6-120.6,4.5-247-11.7-363.2    c1.3,121.1-3.6,242.6-14.4,360.8c-7.7-20.3-16.6-40.4-26.8-60.3c5.4-24.4,11.3-48.8,18-73.1c-8.7,20.7-16.5,41.5-23.5,62.6    c-2.3-4.2-4.6-8.4-7-12.6c2,5.4,3.9,10.8,5.8,16.1c-0.2,0.8-0.5,1.5-0.8,2.3c-5.5-18.5-12.2-37.1-26.4-52.3    c7.1,26.8,13,53.8,17.7,80.9c-5.6,19.6-10.4,39.3-14.5,59.2c-0.4-1.2-0.8-2.4-1.1-3.5c0.3,1.7,0.5,3.4,0.8,5.1    c-2.4,11.8-4.6,23.7-6.5,35.6c-3.1-16.4-6.4-33-9.9-49.6c2.3-16.3,5.6-32.4,11-48.2c-4.8,12.4-9.2,24.9-13.3,37.5    c-7.9-36.5-16.7-73.3-26.5-110.1c2.8-22.2,5.8-44.3,8.9-66.3c-3.3,8.4-6.3,16.9-9.1,25.5c0-5.6,0-11.1-0.1-16.7    c-0.6-29-3.6-58.4-13.7-86.1c1.2,7.6,1.2,15.5,1.1,23.2c-0.4,22.7-1,45.4-1.7,68.1c-10.1-34.8-21-69.6-32.7-104    c10.4,48.4,20.8,96.9,31.1,145.3c-0.5,13.1-1.1,26.2-1.8,39.2c-7.9,42.2-10.5,85.1-8.1,127.8c-2.4,31.2-5.1,62.4-8.1,93.7    c-0.6-0.6-1.2-1.2-1.8-1.8c-8.8-45.1-14.6-90.7-17.3-136.6c5.6-36.7,11.7-73.3,18.2-109.8c-7.8,17.3-14.4,34.8-20,52.4    c-0.1-23.7,0.6-47.4,2.2-71.1c3.7-11.1,7.6-22.1,11.8-33.1c-3.8,7-7.5,14.1-10.9,21.3c1.8-23.6,4.5-47.1,8-70.5    c-6,27.2-10.4,54.7-13.5,82.2c-42.1,92.7-54.3,193.9-35.4,291.2c-0.6,3.6-1.1,7.3-1.6,10.9c-1.3-0.9-2.6-1.9-3.9-2.8    c-7.6-18.3-14.1-37.6-19.5-57.5c-0.3-16.3-3.3-30.7-9.1-39.8c3.6-19.6,6.4-39.3,8.8-59c7.7-64.1,11.1-128.5,10.3-192.9    c12.2-16.4,27.1-32.1,45.8-46.5c-16.9,8.4-32.9,17.8-46.2,27.5c0-1.3-0.1-2.6-0.1-4c2.2-7.9,4.4-15.7,6.9-23.6    c-2.5,7.7-4.7,15.4-6.9,23.1c-0.2-5.3-0.3-10.7-0.6-16c0.2,5.5,0.4,10.9,0.5,16.4c-0.5,1.8-1,3.5-1.5,5.3    c-13,9.7-23.3,19.6-29.1,29.2c-36.3,59.9-61.2,122.1-74,185.1c8.2-57.9,19.4-115.6,33.6-172.7c10.4-41.7,22.6-83.7,43.9-122.6    c-40.1,69.4-68.9,142.9-86.1,218.1c-2.9-23.9-7.1-47.7-12.9-71.3c4.8,29,7.9,58.1,9.4,87.2c-4.8,23.6-8.5,47.4-11.1,71.2    c-10.6,29.2-20,59.4-28.2,90.5c0.1-25,1.3-50.1,2.7-74.9c5.8-101.1,15.7-204.2,64-297.7c-20.2,38.4-36.7,78.1-49.3,118.5    c-21,60.3-39,121.5-53.3,181.5c-1.8-10.7-3.7-21.4-5.6-32c-1.2,23.4-2.3,46.8-3.2,70.2c-13.7,63.2-23.2,124.7-28.2,182.3    c8.8-37,17.6-74,26.4-110.9c-0.7,56.7,0.6,113.4,5.3,169.7c181.9-39.3,366.8-2.3,550.4-9.4c11.3-0.4,22.7-1.1,33.8-4    c162.2-1.1,325.1-20.5,485.6,6.7c4.7-44,6-88.3,5.3-132.7C1007.8,1693.1,1016.6,1722,1025.3,1750.9L1025.3,1750.9z M-48.5,1653.9    c-5.3-30.6-10.6-61.2-15.9-91.8c6.4-27.1,12.9-54.2,19.3-81.3c-4.4,48.2-3.5,96.7,2.9,144.7C-44.4,1634.9-46.5,1644.3-48.5,1653.9    z M120.8,1277.3c0,1.2,0,2.4,0,3.7c-0.4,0.3-0.9,0.7-1.3,1C119.9,1280.4,120.3,1278.9,120.8,1277.3z M49.1,1576.3    c-0.9-6.3-1.9-12.6-3-18.8c1.1-8.9,2.2-17.8,3.5-26.7C48.2,1546,48.3,1561.1,49.1,1576.3z M92.5,1534.7c-3.7-9-8.6-17.9-14.8-26.8    c-0.1-23.5,1.5-47.6,3.3-70.6c-11.9,16.9-21,38.5-26.5,62.3c3.8-22.2,8.1-44.3,13-66.4c8.9-40.2,20.2-81.5,44.1-119.3    c-15.5,69.6-21.2,140.5-17.2,211.1C93.8,1528.4,93.1,1531.6,92.5,1534.7L92.5,1534.7z M112,1313.5c2.8-4.4,5.8-8.8,8.9-13    c-0.4,71-8.7,141.7-21.5,212.2C96.1,1445.7,98.4,1379,112,1313.5L112,1313.5z M138.6,1627.5c-1-19-1.2-38.1-0.8-57.1    c0.9,12,2.5,24.1,4.7,36C141.1,1613.4,139.8,1620.5,138.6,1627.5L138.6,1627.5z M140.3,1525.7c4.4-52.1,14.2-103.8,29.5-154.6    c-2.1,24.8-3,49.6-2.7,74.4c-12.7,47.3-19,95.7-21.9,144.5C142.1,1569.3,140.4,1547.8,140.3,1525.7L140.3,1525.7z M164.1,1561.8    c2.1-15.9,4.3-31.7,6.6-47.6c2.9,30.3,7.6,60.4,14,90.4C175.9,1592.8,168.7,1578.3,164.1,1561.8z M224.5,1408.8    c2.5,11.7,5,23.4,7.5,35.1c-4.7,11.9-9,23.8-12.8,35.9C220.2,1456.1,222.1,1432.4,224.5,1408.8z M210.8,1628.8    c0.9-8.8,2-17.7,3.2-26.5c2.3,10.8,4.9,21.6,7.9,32.3C218.1,1633,214.4,1631.1,210.8,1628.8L210.8,1628.8z M220,1562.9    c5.5-33.4,11.7-66.8,16-100.2c3.4,15.6,6.7,31.2,10,46.8c-9.4,34.4-16.3,69.3-20.4,104.4C223,1597,221.2,1580,220,1562.9    L220,1562.9z M258.7,1623.7c-4.5,5.3-9.4,10-14.5,13.9c-1.2,0.9-2.4,1.8-3.6,2.6c5.1-31.8,8.6-66.1,11.9-100.7    c3.1,14.6,6.2,29.1,9.4,43.7C260.5,1596.7,259.5,1610.2,258.7,1623.7L258.7,1623.7z M276.8,1588.5c-0.1-0.6-0.2-1.2-0.3-1.8    c0.4-2.7,0.7-5.4,1.1-8.1C277.3,1581.9,277.1,1585.2,276.8,1588.5z M302.5,1618.2c-4.6-29.4-10.7-58.2-18.3-86.1    c3-19.8,6.3-39.6,10-59.3C300.8,1521.1,303.6,1569.6,302.5,1618.2z M326.8,1531.3c-5.6-34.2-14.5-68.3-24.1-102    c0.3-1.5,0.6-2.9,0.9-4.4c9.8,29.5,17.9,59.1,25,88.8C328.1,1519.6,327.5,1525.5,326.8,1531.3L326.8,1531.3z M366.4,1593.5    c0.5-18.2,1.4-36.4,2.8-54.6c1.6-7.4,3.3-14.8,5.1-22.2C374.6,1543.6,372.7,1569.9,366.4,1593.5L366.4,1593.5z M527,1479.1    c0.5,6.2,0.8,12.4,1.1,18.6c-1.6-2.3-3.2-4.6-4.9-6.8c0.2-8.4,0.1-16.7-0.2-25.1C524.4,1470.2,525.7,1474.6,527,1479.1L527,1479.1    z M519,1454.2c0-0.3,0-0.6,0-0.9c0.3,0.9,0.6,1.8,0.9,2.7c-0.5,9.5-1,18.9-1.5,28.4c-0.1-0.1-0.1-0.2-0.2-0.2    C519,1474.2,519.4,1464.2,519,1454.2L519,1454.2z M516.1,1502.7c0.4,0.8,0.7,1.6,1.1,2.4c-0.8,14.5-1.6,29-2.3,43.5    c-0.1-0.3-0.2-0.6-0.4-0.8c-1.9,2.7-3.7,5.5-5.5,8.2c-0.1-2.5-0.2-5.1-0.3-7.6c0.9-5.1,1.8-10.2,2.6-15.4    C513.1,1522.9,514.8,1512.8,516.1,1502.7L516.1,1502.7z M406.1,1466.3c1.5,11.2,3,22.5,4.6,33.7c-2.5-5.1-5-10.1-7.6-14.9    c-0.1,0.4-0.2,0.7-0.4,1.1c-0.7-17.1-1.4-34.2-2.2-51.3c1.2,5.1,2.4,10.2,3.5,15.3C404.7,1455.5,405.3,1460.9,406.1,1466.3    L406.1,1466.3z M433.8,1462c1.4,2.4,2.7,4.8,4,7.2c-0.9,1.9-1.7,3.8-2.6,5.7C434.8,1470.7,434.3,1466.3,433.8,1462L433.8,1462z     M475.8,1420.7c0.6,2.2,1.1,4.4,1.7,6.7c-0.2,3.8-0.5,7.6-0.8,11.4c-0.2-0.2-0.4-0.3-0.5-0.5c-0.4-5.3-0.8-10.6-1.3-15.9    C475.2,1421.8,475.4,1421.2,475.8,1420.7L475.8,1420.7z M495.2,1540.6c-0.6,3.9-1.3,7.8-1.9,11.7c0.1-8.7,0.4-17.4,0.8-26.1    C494.6,1530.9,494.9,1535.7,495.2,1540.6L495.2,1540.6z M478.4,1564.5c-1.1-3.4-2.2-6.7-3.4-10.1c0.9-10.3,1.6-20.6,2.1-31    c2.6-17.4,5.9-34.7,9.7-52c0.5,2.9,1,5.8,1.5,8.8c-0.9,10-1.6,20.1-2,30.1C484,1528.4,481.3,1546.5,478.4,1564.5L478.4,1564.5z     M454.4,1508.8c2.4,8.2,4.3,16.5,5.7,24.8c-0.2,1.9-0.5,3.7-0.7,5.6c-1.2,4.7-2.4,9.4-3.7,14    C454.6,1538.4,454.1,1523.6,454.4,1508.8L454.4,1508.8z M450.5,1496.9c0.1,0.3,0.2,0.5,0.3,0.8c0,0.4-0.1,0.7-0.1,1.1    C450.6,1498.1,450.5,1497.5,450.5,1496.9L450.5,1496.9z M476.2,1439.1c0.1,0.2,0.3,0.3,0.4,0.4c-0.1,0.8-0.1,1.6-0.2,2.4    C476.3,1441,476.3,1440,476.2,1439.1L476.2,1439.1z M477.4,1462.2c0.5-6.9,0.8-13.7,1-20.6c1.1,1.2,2.2,2.5,3.2,3.7    c1.5,6.7,2.9,13.5,4.1,20.3c-2.9,10.1-5.5,20.2-7.9,30.3C478,1484.6,477.8,1473.4,477.4,1462.2L477.4,1462.2z M478.5,1440.5    c0.1-2.7,0.2-5.3,0.2-8c0.9,3.5,1.7,7.1,2.5,10.6C480.3,1442.2,479.4,1441.4,478.5,1440.5z M461.9,1518.2    C461.9,1518.2,461.9,1518.1,461.9,1518.2c0,0,0,0.1,0,0.2c-0.3,2.8-0.6,5.7-1,8.6c-1.8-6.9-4-13.8-6.4-20.7c0.4-18,2-36,5.2-53.9    c3-6.6,6.2-13.1,9.6-19.6C467.6,1461.3,465.1,1489.8,461.9,1518.2L461.9,1518.2z M450.9,1496.8c-0.2-0.4-0.3-0.8-0.5-1.2    c-0.5-5.7-1.2-11.3-1.8-17c2.5-6.4,5.1-12.7,7.9-19C453.9,1471.9,452.1,1484.4,450.9,1496.8L450.9,1496.8z M440.1,1502.6    c1.1-3.4,2.2-6.7,3.4-10.1c-0.9,7.2-1.7,14.3-2.3,21.5C440.7,1510.2,440.3,1506.4,440.1,1502.6L440.1,1502.6z M502.5,1465.4    c-0.8-0.9-1.6-1.8-2.5-2.8c-0.2-1.3-0.5-2.6-0.7-3.9c1.6-14.6,3.4-29.2,5.5-43.9C504.3,1431.7,503.5,1448.6,502.5,1465.4    L502.5,1465.4z M495.9,1387.7c2.1,2.6,4.1,5.2,5.9,7.8c-2.9,12.8-5.4,25.7-7.6,38.6c-2.4-10.3-5.2-20.6-8.4-30.7    C489.1,1398.1,492.4,1392.9,495.9,1387.7L495.9,1387.7z M467.1,1419.8c1.1-3.7,2.2-7.5,3.4-11.2c-0.1,2.4-0.2,4.7-0.3,7.1    C469.1,1417,468.1,1418.4,467.1,1419.8z M448,1337.3c8.8,21.5,16.4,43.2,22.8,65.2c-0.1,1.9-0.1,3.8-0.2,5.7    c-1.5,4.2-2.8,8.3-4.1,12.5c-1.2,1.7-2.5,3.4-3.6,5.1c-2.1-1.9-4.3-3.8-6.6-5.6c2.2,1.9,4.4,3.8,6.5,5.7    c-6.4,9.2-12.2,18.7-17.3,28.2c-4.2-29.4-9.8-58.8-16.9-88.1C434.1,1356.3,440.5,1346.7,448,1337.3L448,1337.3z M427.2,1368.4    c5.9,31.1,10.6,62.3,14.1,93.7c-0.5,1.1-1,2.1-1.5,3.1c0-0.7,0.1-1.5,0.1-2.2c-0.1,0.8-0.1,1.5-0.2,2.3c-0.6,1.3-1.2,2.6-1.8,3.8    c-1.3-2.4-2.7-4.8-4.1-7.2c-2.8-25.1-5.3-50.2-7.4-75.3c-1.4,37.6-2.1,75.6-0.6,113.3c-0.7,2.2-1.4,4.4-2.1,6.6    c-3.5-38.2-6.2-76.5-8.1-114.8C419,1383.9,422.9,1376.1,427.2,1368.4L427.2,1368.4z M401.4,1427.4c0.4,4.1,0.9,8.2,1.4,12.3    c-0.8-1.9-1.5-3.8-2.3-5.8c0-1.2-0.1-2.3-0.1-3.5C400.6,1429.5,401,1428.4,401.4,1427.4L401.4,1427.4z M398.5,1364.3    c0,0.4,0,0.7,0,1.1c-0.4,12.8,0,25.6,0.9,38.3c-0.1,0.1-0.1,0.2-0.2,0.3c-0.5-12.1-1-24.2-1.5-36.3    C397.9,1366.6,398.2,1365.5,398.5,1364.3L398.5,1364.3z M390.5,1397.2c1.3-5.7,2.6-11.4,4-17.1c-0.3,10.7-0.4,21.4-0.2,32.1    c-1.7,2.9-3.3,5.8-4.9,8.7C389.7,1413.1,390,1405.1,390.5,1397.2z M388.9,1464.3c2-6.6,4.2-13.1,6.4-19.6    c0.8,18.4,1.9,36.9,3,55.3c-0.6,2.3-1.2,4.5-1.8,6.8c-2-7-4.4-13.8-7-20.3C389.2,1479.1,388.9,1471.7,388.9,1464.3L388.9,1464.3z     M528.1,1548.9c-2.7,5.1-5,10.4-7,15.9c-0.6-1.8-1.2-3.6-1.8-5.3c1-14.4,2.2-28.8,3-43.3c2.2,5.1,4.4,10.2,6.4,15.3    C528.5,1537.3,528.3,1543.1,528.1,1548.9L528.1,1548.9z M543.2,1572.5c1.8,5.8,3.5,11.6,5.1,17.4c1.4,14.2,2.3,28.4,2.8,42.7    C544.8,1614.1,542.9,1593.5,543.2,1572.5L543.2,1572.5z M590.7,1583.9c-0.6-4.6-1.2-9.2-1.8-13.8c7-23.2,15.2-46.4,25-69.5    c0.3,1.1,0.6,2.3,0.9,3.4C605.2,1530.5,596.3,1557.1,590.7,1583.9L590.7,1583.9z M615,1651.9c-1.1-38,1.7-76,8.3-113.7    c3.6,15.4,6.9,30.9,10,46.4C625.7,1606.3,619.6,1628.8,615,1651.9L615,1651.9z M640.7,1628.6c-0.3-2.6-0.6-5.1-0.8-7.7    c0.4,2.1,0.7,4.2,1.1,6.3C640.9,1627.7,640.8,1628.2,640.7,1628.6L640.7,1628.6z M693,1488.1c2.4,18.5,4.3,37,5.2,55.6    c-3.8-9.4-8-18.8-12.8-28.1C688,1506.4,690.5,1497.2,693,1488.1L693,1488.1z M673.3,1667c-5.1-3.1-10-6.7-14.5-10.9    c-0.7-10.6-1.7-21.1-3.1-31.6c3.1-11.4,6.2-22.8,9.4-34.2c3.3,27.1,6.7,53.9,11.8,78.8C675.6,1668.4,674.4,1667.8,673.3,1667    L673.3,1667z M671.4,1566.9c3.3-12.2,6.7-24.4,10-36.6c4.2,26.1,10.5,52.2,16,78.3c-1.2,13.4-3,26.7-5.6,40    C687.7,1621.1,680.9,1593.8,671.4,1566.9L671.4,1566.9z M695.6,1664.7c3-8.4,5.6-16.8,7.9-25.3c1.2,6.9,2.3,13.8,3.2,20.8    C703.1,1661.9,699.4,1663.4,695.6,1664.7z M732.8,1641.2c6.4-23.4,11.1-47,14-70.7c2.3,12.4,4.5,24.8,6.6,37.2    C748.8,1620.6,741.6,1632,732.8,1641.2L732.8,1641.2z M750.5,1516.8c0.3-19.4-0.6-38.8-2.7-58.2c15.2,39.7,25.1,80.2,29.5,120.9    c-0.2,17.2-1.8,34.1-4.8,50.2C769.5,1591.6,763.1,1553.8,750.5,1516.8L750.5,1516.8z M778.9,1659.2c-1.2-5.5-2.5-11-4-16.5    c2.2-9.3,3.8-18.8,4.7-28.2C780.1,1629.4,779.9,1644.3,778.9,1659.2L778.9,1659.2z M796.7,1385.3c0.4,1.2,0.9,2.4,1.3,3.6    c-0.4-0.3-0.9-0.5-1.3-0.8C796.7,1387.2,796.7,1386.2,796.7,1385.3L796.7,1385.3z M818.1,1569.3c-12.7-55.1-21-110.5-21.5-166    c3.2,3.4,6.1,6.8,8.9,10.2C819.1,1464.8,821.4,1517,818.1,1569.3z M836.6,1510.5c1.8,18,3.4,36.8,3.3,55.2    c-6.2,6.9-11.1,13.9-14.8,20.9c-0.6-2.5-1.3-5-2-7.5c4-55.2-1.6-110.7-17.2-165.1c23.9,29.5,35.2,61.8,44.1,93.3    c4.9,17.3,9.2,34.6,13,51.9C857.6,1540.6,848.4,1523.6,836.6,1510.5L836.6,1510.5z M868.5,1619.1c0.8-11.9,0.8-23.7-0.5-35.6    c1.3,7,2.5,13.9,3.5,20.9C870.4,1609.3,869.4,1614.2,868.5,1619.1L868.5,1619.1z M966,1679.7c-2-7.5-4.1-14.9-6.3-22.2    c6.3-37.6,7.3-75.5,2.9-113.2c6.4,21.2,12.9,42.4,19.3,63.6C976.6,1631.9,971.3,1655.8,966,1679.7L966,1679.7z"/>
	</g>
	<g>
		<path class="st3" d="M2292.4,1206.6c3.6-6.2,7.3-12.4,11.1-18.6C2299.5,1194.2,2295.9,1200.4,2292.4,1206.6z"/>
		<path class="st3" d="M2402.1,1203.1c4.8,8.4,8.7,17.1,11.9,25.9C2412.5,1219.6,2409.2,1210.6,2402.1,1203.1z"/>
		<path class="st3" d="M2467.7,1445.2c2.2-5.8,4.6-11.6,6.9-17.4C2472,1433.6,2469.7,1439.4,2467.7,1445.2z"/>
		<path class="st3" d="M3022.5,1331.2c-3.4-4.9-7.1-9.8-11.1-14.5C3015.2,1321.5,3018.9,1326.3,3022.5,1331.2z"/>
		<path class="st3" d="M2912.8,1328.4c-7.1,5.9-10.4,12.9-11.9,20.3C2904.1,1341.8,2908,1335,2912.8,1328.4z"/>
		<path class="st3" d="M2847.2,1517.8c-2-4.6-4.3-9.1-6.9-13.6C2842.6,1508.7,2845,1513.3,2847.2,1517.8z"/>
		<path class="st3" d="M3224,1756.4c-5-45.1-14.5-93.2-28.2-142.6c-0.9-18.3-1.9-36.7-3.1-54.9c-1.9,8.3-3.7,16.7-5.6,25.1    c-14.4-46.9-32.3-94.8-53.4-142c-12.6-31.6-29-62.6-49.3-92.7c48.3,73.1,58.3,153.8,64,232.8c1.4,19.5,2.6,39.1,2.7,58.6    c-8.2-24.3-17.6-48-28.2-70.8c-2.5-18.6-6.2-37.2-11.1-55.7c1.5-22.8,4.6-45.6,9.4-68.2c-5.7,18.5-10,37.1-12.9,55.8    c-17.1-58.8-46-116.2-86.1-170.6c21.4,30.4,33.6,63.2,43.9,95.9c14.2,44.7,25.4,89.8,33.6,135.1c-12.8-49.3-37.7-97.9-74-144.8    c-5.8-7.5-16.1-15.3-29.1-22.8c-0.5-1.4-1-2.8-1.5-4.1c0.1-4.3,0.3-8.6,0.5-12.8c-0.2,4.2-0.4,8.3-0.6,12.5    c-2.1-6-4.4-12.1-6.9-18.1c2.4,6.1,4.7,12.3,6.9,18.4c0,1-0.1,2.1-0.1,3.1c-13.3-7.6-29.3-14.9-46.2-21.5    c18.6,11.3,33.6,23.5,45.8,36.3c-0.9,50.3,2.5,100.7,10.3,150.8c2.4,15.4,5.2,30.8,8.8,46.1c-5.8,7.2-8.7,18.4-9.1,31.2    c-5.4,15.6-11.9,30.7-19.5,45c-1.3,0.8-2.6,1.5-3.9,2.2c-0.5-2.9-1.1-5.7-1.6-8.6c18.9-76.2,6.7-155.3-35.4-227.8    c-3.1-21.5-7.5-43-13.5-64.3c3.5,18.3,6.2,36.7,8,55.2c-3.5-5.6-7.1-11.1-10.9-16.6c4.2,8.6,8.1,17.2,11.8,25.9    c1.6,18.5,2.3,37.1,2.2,55.6c-5.6-13.8-12.2-27.5-20-41c6.5,28.6,12.6,57.2,18.2,85.9c-2.7,35.8-8.5,71.5-17.3,106.8    c-0.6,0.5-1.2,0.9-1.8,1.4c-3-24.4-5.8-48.8-8.1-73.2c2.5-33.4-0.2-66.9-8.1-99.9c-0.6-10.2-1.2-20.4-1.8-30.7    c10.4-37.9,20.8-75.8,31.1-113.7c-11.7,26.9-22.6,54.1-32.7,81.4c-0.7-17.7-1.3-35.5-1.7-53.2c-0.1-6-0.1-12.2,1.1-18.1    c-10.1,21.7-13.1,44.7-13.7,67.3c-0.1,4.3-0.1,8.7-0.1,13.1c-2.8-6.7-5.8-13.3-9.1-19.9c3.1,17.2,6.2,34.5,8.9,51.9    c-9.8,28.8-18.7,57.6-26.5,86.1c-4.1-9.8-8.5-19.6-13.3-29.3c5.4,12.3,8.7,24.9,11,37.7c-3.5,13-6.8,25.9-9.9,38.8    c-1.9-9.3-4.1-18.6-6.5-27.9c0.3-1.3,0.5-2.7,0.8-4c-0.4,0.9-0.8,1.8-1.1,2.8c-4.1-15.5-9-30.9-14.6-46.3    c4.7-21.2,10.6-42.3,17.7-63.2c-14.2,11.9-20.9,26.4-26.4,40.9c-0.2-0.6-0.5-1.2-0.8-1.8c1.9-4.2,3.8-8.4,5.8-12.6    c-2.4,3.3-4.7,6.6-6.9,9.9c-7-16.5-14.8-32.8-23.5-49c6.7,19,12.6,38,18,57.2c-10.2,15.6-19.2,31.3-26.8,47.2    c-10.8-92.5-15.7-187.5-14.4-282.2c-16.3,90.9-21.4,189.8-11.7,284.1c0.1,1.1,0.2,2.1,0.4,3.2c0,2.2-0.1,4.4-0.1,6.5    c-3.8-9.1-8.2-18.1-13.1-27.1c0.1-1.3,0.3-2.5,0.4-3.8c-0.4,0.4-0.8,0.9-1.2,1.3c-2.3-8.8-4.9-17.7-7.8-26.4    c-3.1-29-9.7-57.9-19.8-86.3c3.5,18.1,6.2,36.3,8,54.5c-1.1-2.6-2.1-5.1-3.2-7.7c-0.4-6.7-0.9-13.3-1.8-20    c-0.3,4.8-0.5,9.5-0.8,14.3c-0.4-1-0.8-1.9-1.3-2.9c-0.9-15.6-4.1-31.3-12.2-46.3c3.2-21.6,6.9-43.3,10.9-64.9    c-6,18.4-11.1,37-15.4,55.7c-1.2-2.6-3-5.2-5.4-7.6c0.6-0.9,1.2-1.9,1.9-2.8c-0.8,0.8-1.6,1.6-2.4,2.4c-1.6-1.5-3.5-3-5.8-4.4    c1.7,1.8,3.3,3.6,4.9,5.4c-3.8,3.8-7.4,7.7-10.9,11.6c-1.5-4.6-3.1-9.2-4.7-13.8c1.9-4.4,3.8-8.7,5.8-13.1    c-2.1,4.3-4,8.6-5.8,12.9c-0.6-1.6-1.2-3.3-1.8-4.9c-0.1-1-0.1-1.9-0.2-2.9c0.1,0.9,0.1,1.9,0.1,2.8c-6.4-17.1-14-33.9-22.9-50.2    c2.1-2.4,4.3-4.8,6.5-7.3c-2.3,2.4-4.5,4.8-6.6,7.2c-9.4-17.2-20.1-33.8-32.5-49.8c1.5-2.3,3.1-4.6,4.9-6.9    c-2.3,1.8-4.2,3.7-5.8,5.7c-0.8-1-1.6-2-2.4-3c0.6,1.2,1.2,2.4,1.9,3.6c-3.8,4.7-5.9,9.9-7,15.3c2.3-4.6,4.9-9.2,7.8-13.7    c9.7,18.7,18.5,37.6,26.3,56.8c-7.1,8.3-13.9,16.8-20.4,25.2c-2.4-9.6-4.9-19.2-7.5-28.8c2.2,10.1,4.3,20.2,6.3,30.4    c-3.9,5.2-7.7,10.5-11.4,15.7c-1-22.2-1.9-44.4-2.4-66.6c-0.1-6.3-0.1-12.9,1.2-19.2c-10.3,21.1-14,43.3-15.1,65.4    c-0.4,1.2-0.9,2.5-1.3,3.7c-0.3-6.1-0.5-12.2-0.8-18.2c-0.8,8.5-1.4,17-1.8,25.6c-1.1,3.2-2.2,6.5-3.2,9.8    c1.8-23.3,4.5-46.5,8-69.7c-10.1,36.3-16.6,73.3-19.8,110.4c-2.9,11.2-5.5,22.5-7.8,33.8c-0.4-0.6-0.8-1.1-1.2-1.7    c0.1,1.6,0.3,3.2,0.4,4.8c-5,11.5-9.4,23-13.1,34.6c0-2.8-0.1-5.6-0.1-8.4c0.1-1.4,0.2-2.7,0.4-4.1c9.6-120.6,4.5-247-11.7-363.2    c1.3,121.1-3.6,242.6-14.4,360.8c-7.7-20.3-16.6-40.4-26.8-60.3c5.4-24.4,11.3-48.8,18-73.1c-8.7,20.7-16.5,41.5-23.5,62.6    c-2.3-4.2-4.6-8.4-6.9-12.6c2,5.4,3.9,10.8,5.8,16.1c-0.2,0.8-0.5,1.5-0.8,2.3c-5.5-18.5-12.2-37.1-26.4-52.3    c7.1,26.8,13,53.8,17.7,80.9c-5.6,19.6-10.4,39.3-14.6,59.2c-0.4-1.2-0.8-2.4-1.1-3.5c0.3,1.7,0.5,3.4,0.8,5.1    c-2.4,11.8-4.6,23.7-6.5,35.6c-3.1-16.4-6.4-33-9.9-49.6c2.3-16.3,5.6-32.4,11-48.2c-4.8,12.4-9.2,24.9-13.3,37.5    c-7.9-36.5-16.7-73.3-26.5-110.1c2.8-22.2,5.8-44.3,8.9-66.3c-3.3,8.4-6.3,16.9-9.1,25.5c0-5.6,0-11.1-0.1-16.7    c-0.6-29-3.6-58.4-13.7-86.1c1.2,7.6,1.2,15.5,1.1,23.2c-0.4,22.7-1,45.4-1.7,68.1c-10.1-34.8-21-69.6-32.7-104    c10.4,48.4,20.8,96.9,31.1,145.3c-0.5,13.1-1.1,26.2-1.8,39.2c-7.9,42.2-10.5,85.1-8.1,127.8c-2.4,31.2-5.1,62.4-8.1,93.7    c-0.6-0.6-1.2-1.2-1.8-1.8c-8.8-45.1-14.6-90.7-17.3-136.6c5.6-36.7,11.7-73.3,18.2-109.8c-7.8,17.3-14.4,34.8-20,52.4    c-0.1-23.7,0.6-47.4,2.2-71.1c3.7-11.1,7.6-22.1,11.8-33.1c-3.8,7-7.5,14.1-10.9,21.3c1.8-23.6,4.5-47.1,8-70.5    c-6,27.2-10.4,54.7-13.5,82.2c-42.1,92.7-54.4,193.9-35.4,291.2c-0.6,3.6-1.1,7.3-1.6,10.9c-1.3-0.9-2.6-1.9-3.9-2.8    c-7.6-18.3-14.1-37.6-19.5-57.5c-0.4-16.3-3.3-30.7-9.1-39.8c3.6-19.6,6.4-39.3,8.8-59c7.7-64.1,11.1-128.5,10.3-192.9    c12.2-16.4,27.1-32.1,45.8-46.5c-16.9,8.4-32.9,17.8-46.2,27.5c0-1.3-0.1-2.6-0.1-4c2.2-7.9,4.4-15.7,6.9-23.6    c-2.5,7.7-4.7,15.4-6.9,23.1c-0.2-5.3-0.4-10.7-0.6-16c0.2,5.5,0.4,10.9,0.5,16.4c-0.5,1.8-1,3.5-1.5,5.3    c-13,9.7-23.3,19.6-29.1,29.2c-36.4,59.9-61.2,122.1-74,185.1c8.2-57.9,19.4-115.6,33.6-172.7c10.4-41.7,22.6-83.7,43.9-122.6    c-40.1,69.4-68.9,142.9-86.1,218.1c-2.9-23.9-7.1-47.7-12.9-71.3c4.8,29,7.9,58.1,9.4,87.2c-4.9,23.6-8.5,47.4-11.1,71.2    c-10.6,29.2-20,59.4-28.2,90.5c0.1-25,1.3-50.1,2.7-74.9c5.8-101.1,15.7-204.2,64-297.7c-20.2,38.4-36.7,78.1-49.3,118.5    c-21.1,60.3-39,121.5-53.4,181.5c-1.9-10.7-3.7-21.4-5.6-32c-1.2,23.4-2.3,46.8-3.1,70.2c-13.6,63.2-23.2,124.7-28.2,182.3    c8.8-37,17.6-74,26.4-110.9c-0.7,56.7,0.6,113.4,5.3,169.7c181.9-39.3,366.8-2.3,550.4-9.4c11.3-0.4,22.7-1.1,33.8-4    c162.2-1.1,325.1-20.5,485.6,6.7c4.7-44,6-88.3,5.3-132.7C3206.5,1698.6,3215.3,1727.5,3224,1756.4L3224,1756.4z M2150.2,1659.3    c-5.3-30.6-10.6-61.2-15.9-91.8c6.4-27.1,12.9-54.2,19.3-81.3c-4.4,48.2-3.5,96.7,2.9,144.7    C2154.3,1640.3,2152.2,1649.8,2150.2,1659.3z M2319.5,1282.8c0,1.2,0,2.4,0,3.7c-0.4,0.3-0.9,0.7-1.3,1    C2318.6,1285.9,2319.1,1284.4,2319.5,1282.8z M2247.8,1581.8c-0.9-6.3-1.9-12.6-3-18.8c1.1-8.9,2.2-17.8,3.5-26.7    C2246.9,1551.5,2247,1566.6,2247.8,1581.8z M2291.2,1540.2c-3.7-9-8.6-17.9-14.8-26.8c-0.1-23.5,1.5-47.6,3.3-70.6    c-11.9,16.9-21,38.5-26.5,62.3c3.8-22.2,8.1-44.3,13-66.4c8.9-40.2,20.2-81.5,44.1-119.3c-15.5,69.6-21.2,140.5-17.1,211.1    C2292.5,1533.8,2291.8,1537,2291.2,1540.2L2291.2,1540.2z M2310.7,1319c2.8-4.4,5.8-8.8,8.9-13c-0.4,71-8.7,141.7-21.5,212.2    C2294.8,1451.2,2297.2,1384.5,2310.7,1319L2310.7,1319z M2337.3,1633c-1-19-1.2-38.1-0.8-57.1c0.9,12,2.5,24.1,4.7,36    C2339.8,1618.9,2338.5,1625.9,2337.3,1633L2337.3,1633z M2339,1531.2c4.4-52.1,14.2-103.8,29.5-154.6c-2.1,24.8-3,49.6-2.7,74.4    c-12.7,47.3-19,95.7-21.9,144.5C2340.8,1574.8,2339.1,1553.3,2339,1531.2z M2362.8,1567.3c2.1-15.9,4.3-31.7,6.6-47.6    c2.9,30.3,7.6,60.4,14,90.4C2374.6,1598.3,2367.4,1583.8,2362.8,1567.3z M2423.2,1414.3c2.5,11.7,5,23.4,7.5,35.1    c-4.7,11.9-9,23.8-12.8,35.9C2418.9,1461.6,2420.8,1437.9,2423.2,1414.3z M2409.5,1634.3c0.9-8.8,2-17.7,3.2-26.5    c2.3,10.8,4.9,21.6,7.9,32.3C2416.8,1638.5,2413.1,1636.6,2409.5,1634.3L2409.5,1634.3z M2418.8,1568.4    c5.5-33.4,11.7-66.8,16-100.2c3.4,15.6,6.7,31.2,10,46.8c-9.4,34.4-16.3,69.3-20.4,104.4    C2421.7,1602.5,2419.9,1585.5,2418.8,1568.4L2418.8,1568.4z M2457.4,1629.1c-4.5,5.3-9.4,10-14.5,13.9c-1.2,0.9-2.4,1.8-3.6,2.6    c5.1-31.8,8.6-66.1,11.9-100.7c3.1,14.6,6.2,29.1,9.4,43.7C2459.2,1602.2,2458.2,1615.6,2457.4,1629.1L2457.4,1629.1z     M2475.5,1594c-0.1-0.6-0.2-1.2-0.3-1.8c0.4-2.7,0.7-5.4,1.1-8.1C2476.1,1587.4,2475.8,1590.7,2475.5,1594z M2501.2,1623.7    c-4.6-29.4-10.7-58.2-18.3-86.1c3-19.8,6.3-39.6,10-59.3C2499.5,1526.5,2502.3,1575.1,2501.2,1623.7z M2525.5,1536.8    c-5.6-34.2-14.5-68.3-24.1-102c0.3-1.5,0.6-2.9,0.9-4.4c9.8,29.5,17.9,59.1,25,88.8C2526.8,1525.1,2526.2,1531,2525.5,1536.8    L2525.5,1536.8z M2565.1,1599c0.4-18.2,1.4-36.4,2.8-54.6c1.6-7.4,3.3-14.8,5.1-22.2C2573.3,1549,2571.4,1575.4,2565.1,1599    L2565.1,1599z M2725.7,1484.6c0.5,6.2,0.9,12.4,1.1,18.6c-1.6-2.3-3.2-4.6-4.9-6.8c0.2-8.4,0.1-16.7-0.2-25.1    C2723.1,1475.7,2724.4,1480.1,2725.7,1484.6L2725.7,1484.6z M2717.7,1459.7c0-0.3,0-0.6,0-0.9c0.3,0.9,0.6,1.8,0.9,2.7    c-0.5,9.5-1,18.9-1.5,28.4c-0.1-0.1-0.1-0.2-0.2-0.2C2717.7,1479.7,2718.1,1469.7,2717.7,1459.7z M2714.8,1508.2    c0.4,0.8,0.7,1.6,1.1,2.4c-0.8,14.5-1.6,29-2.4,43.5c-0.1-0.3-0.2-0.6-0.4-0.8c-1.9,2.7-3.7,5.5-5.4,8.2c-0.1-2.5-0.2-5.1-0.3-7.6    c0.9-5.1,1.8-10.2,2.6-15.4C2711.8,1528.4,2713.5,1518.3,2714.8,1508.2L2714.8,1508.2z M2604.8,1471.8c1.5,11.2,3,22.5,4.6,33.7    c-2.5-5.1-5-10.1-7.6-14.9c-0.1,0.4-0.2,0.7-0.4,1.1c-0.7-17.1-1.4-34.2-2.2-51.3c1.2,5.1,2.4,10.2,3.5,15.3    C2603.4,1461,2604.1,1466.4,2604.8,1471.8L2604.8,1471.8z M2632.5,1467.5c1.4,2.4,2.7,4.8,4,7.2c-0.9,1.9-1.7,3.8-2.6,5.7    C2633.5,1476.1,2633,1471.8,2632.5,1467.5L2632.5,1467.5z M2674.5,1426.2c0.6,2.2,1.1,4.4,1.7,6.7c-0.2,3.8-0.5,7.6-0.8,11.4    c-0.2-0.2-0.4-0.3-0.5-0.5c-0.4-5.3-0.8-10.6-1.3-15.9C2673.9,1427.3,2674.2,1426.7,2674.5,1426.2L2674.5,1426.2z M2694,1546.1    c-0.6,3.9-1.3,7.8-1.9,11.7c0.1-8.7,0.4-17.4,0.8-26.1C2693.3,1536.4,2693.6,1541.2,2694,1546.1L2694,1546.1z M2677.1,1570    c-1.1-3.4-2.2-6.7-3.4-10.1c0.9-10.3,1.6-20.6,2.1-31c2.6-17.4,5.9-34.7,9.7-52c0.5,2.9,1,5.8,1.5,8.8c-0.9,10-1.6,20.1-2,30.1    C2682.7,1533.9,2680,1552,2677.1,1570L2677.1,1570z M2653.1,1514.3c2.4,8.2,4.3,16.5,5.7,24.8c-0.2,1.9-0.4,3.7-0.7,5.6    c-1.2,4.7-2.4,9.4-3.7,14C2653.3,1543.8,2652.8,1529,2653.1,1514.3L2653.1,1514.3z M2649.2,1502.3c0.1,0.3,0.2,0.5,0.3,0.8    c0,0.4-0.1,0.7-0.1,1.1C2649.3,1503.6,2649.2,1503,2649.2,1502.3L2649.2,1502.3z M2674.9,1444.6c0.1,0.2,0.3,0.3,0.4,0.4    c-0.1,0.8-0.1,1.6-0.2,2.4C2675,1446.5,2675,1445.5,2674.9,1444.6L2674.9,1444.6z M2676.1,1467.7c0.4-6.9,0.8-13.7,1-20.6    c1.1,1.2,2.2,2.5,3.2,3.7c1.5,6.7,2.9,13.5,4.1,20.3c-2.9,10.1-5.5,20.2-7.9,30.3C2676.7,1490.1,2676.6,1478.9,2676.1,1467.7    L2676.1,1467.7z M2677.2,1446c0.1-2.7,0.2-5.3,0.2-8c0.9,3.5,1.7,7.1,2.5,10.6C2679,1447.7,2678.1,1446.8,2677.2,1446z     M2660.6,1523.7C2660.6,1523.7,2660.6,1523.6,2660.6,1523.7c0,0,0,0.1,0,0.2c-0.3,2.8-0.6,5.7-1,8.6c-1.8-6.9-3.9-13.8-6.4-20.7    c0.4-18,2.1-36,5.2-53.9c3-6.6,6.2-13.1,9.6-19.6C2666.3,1466.8,2663.8,1495.3,2660.6,1523.7L2660.6,1523.7z M2649.6,1502.3    c-0.2-0.4-0.3-0.8-0.5-1.2c-0.6-5.7-1.2-11.3-1.8-17c2.5-6.4,5.1-12.7,7.9-19C2652.6,1477.4,2650.8,1489.8,2649.6,1502.3    L2649.6,1502.3z M2638.8,1508.1c1.1-3.4,2.2-6.7,3.4-10.1c-0.9,7.2-1.7,14.3-2.3,21.5C2639.4,1515.7,2639,1511.9,2638.8,1508.1    L2638.8,1508.1z M2701.2,1470.9c-0.8-0.9-1.6-1.8-2.5-2.8c-0.2-1.3-0.5-2.6-0.7-3.9c1.6-14.6,3.4-29.2,5.5-43.9    C2703,1437.2,2702.2,1454.1,2701.2,1470.9L2701.2,1470.9z M2694.6,1393.2c2.1,2.6,4.1,5.2,5.9,7.8c-2.9,12.8-5.4,25.7-7.6,38.6    c-2.4-10.3-5.2-20.6-8.4-30.7C2687.8,1403.6,2691.2,1398.3,2694.6,1393.2L2694.6,1393.2z M2665.8,1425.3c1.1-3.7,2.2-7.5,3.4-11.2    c-0.1,2.4-0.2,4.7-0.3,7.1C2667.8,1422.5,2666.8,1423.9,2665.8,1425.3L2665.8,1425.3z M2646.7,1342.8    c8.8,21.5,16.4,43.2,22.8,65.2c-0.1,1.9-0.1,3.8-0.2,5.7c-1.5,4.2-2.8,8.3-4.1,12.5c-1.2,1.7-2.4,3.4-3.6,5.1    c-2.1-1.9-4.3-3.8-6.6-5.6c2.2,1.9,4.4,3.8,6.5,5.7c-6.4,9.2-12.2,18.7-17.3,28.2c-4.2-29.4-9.8-58.8-16.9-88.1    C2632.8,1361.8,2639.2,1352.2,2646.7,1342.8L2646.7,1342.8z M2625.9,1373.9c5.9,31.1,10.6,62.3,14.1,93.7c-0.5,1.1-1,2.1-1.5,3.1    c0.1-0.7,0.1-1.5,0.1-2.2c-0.1,0.8-0.1,1.5-0.2,2.3c-0.6,1.3-1.2,2.6-1.8,3.8c-1.3-2.4-2.7-4.8-4.1-7.2    c-2.8-25.1-5.3-50.2-7.4-75.3c-1.4,37.6-2.1,75.6-0.6,113.3c-0.7,2.2-1.4,4.4-2.1,6.6c-3.5-38.2-6.2-76.5-8.1-114.8    C2617.7,1389.4,2621.6,1381.6,2625.9,1373.9L2625.9,1373.9z M2600.1,1432.9c0.4,4.1,0.9,8.2,1.4,12.3c-0.8-1.9-1.5-3.8-2.3-5.8    c-0.1-1.2-0.1-2.3-0.1-3.5C2599.3,1434.9,2599.7,1433.9,2600.1,1432.9L2600.1,1432.9z M2597.2,1369.8c0,0.4,0,0.7,0,1.1    c-0.4,12.8,0,25.6,0.9,38.3c-0.1,0.1-0.1,0.2-0.2,0.3c-0.5-12.1-1-24.2-1.5-36.3C2596.6,1372.1,2596.9,1371,2597.2,1369.8    L2597.2,1369.8z M2589.2,1402.7c1.3-5.7,2.6-11.4,4-17.1c-0.3,10.7-0.4,21.4-0.2,32.1c-1.7,2.9-3.3,5.8-4.9,8.7    C2588.4,1418.5,2588.7,1410.6,2589.2,1402.7z M2587.6,1469.8c2.1-6.6,4.2-13.1,6.4-19.6c0.8,18.4,1.9,36.9,3,55.3    c-0.6,2.3-1.2,4.5-1.8,6.8c-2-7-4.4-13.8-7-20.3C2587.9,1484.6,2587.6,1477.2,2587.6,1469.8L2587.6,1469.8z M2726.8,1554.4    c-2.7,5.1-5,10.4-7,15.9c-0.6-1.8-1.2-3.6-1.8-5.3c1.1-14.4,2.2-28.8,3-43.3c2.2,5.1,4.4,10.2,6.4,15.3    C2727.2,1542.8,2727,1548.6,2726.8,1554.4L2726.8,1554.4z M2741.9,1578c1.8,5.8,3.5,11.6,5.1,17.4c1.4,14.2,2.3,28.4,2.8,42.7    C2743.5,1619.6,2741.6,1599,2741.9,1578L2741.9,1578z M2789.4,1589.4c-0.6-4.6-1.2-9.2-1.9-13.8c7-23.2,15.2-46.4,25-69.5    c0.3,1.1,0.6,2.3,0.9,3.4C2803.9,1536,2795,1562.6,2789.4,1589.4L2789.4,1589.4z M2813.7,1657.3c-1.1-38,1.7-76,8.3-113.7    c3.6,15.4,6.9,30.9,10,46.4C2824.4,1611.8,2818.3,1634.3,2813.7,1657.3z M2839.4,1634.1c-0.3-2.6-0.6-5.1-0.8-7.7    c0.4,2.1,0.7,4.2,1.1,6.3C2839.6,1633.2,2839.5,1633.6,2839.4,1634.1L2839.4,1634.1z M2891.7,1493.6c2.4,18.5,4.3,37,5.2,55.6    c-3.8-9.4-8-18.8-12.8-28.1C2886.7,1511.9,2889.2,1502.7,2891.7,1493.6L2891.7,1493.6z M2872,1672.5c-5.1-3.1-9.9-6.7-14.5-10.9    c-0.7-10.6-1.7-21.1-3.1-31.6c3.1-11.4,6.2-22.8,9.4-34.2c3.3,27.1,6.7,53.9,11.9,78.8C2874.3,1673.9,2873.1,1673.3,2872,1672.5    L2872,1672.5z M2870.1,1572.4c3.4-12.2,6.7-24.4,10-36.6c4.2,26.1,10.5,52.2,16,78.3c-1.1,13.4-3,26.7-5.6,40    C2886.4,1626.6,2879.6,1599.3,2870.1,1572.4L2870.1,1572.4z M2894.3,1670.2c3-8.4,5.6-16.8,7.9-25.3c1.2,6.9,2.3,13.8,3.2,20.8    C2901.8,1667.4,2898.1,1668.9,2894.3,1670.2z M2931.5,1646.7c6.4-23.4,11.1-47,14-70.7c2.3,12.4,4.5,24.8,6.6,37.2    C2947.5,1626.1,2940.3,1637.5,2931.5,1646.7L2931.5,1646.7z M2949.2,1522.3c0.3-19.4-0.6-38.8-2.7-58.2    c15.2,39.7,25.1,80.2,29.5,120.9c-0.2,17.2-1.8,34.1-4.8,50.2C2968.2,1597.1,2961.9,1559.3,2949.2,1522.3L2949.2,1522.3z     M2977.6,1664.7c-1.2-5.5-2.5-11-3.9-16.5c2.2-9.3,3.8-18.8,4.7-28.2C2978.8,1634.9,2978.6,1649.8,2977.6,1664.7L2977.6,1664.7z     M2995.4,1390.8c0.4,1.2,0.9,2.4,1.3,3.6c-0.4-0.3-0.9-0.5-1.3-0.8C2995.4,1392.7,2995.4,1391.7,2995.4,1390.8z M3016.8,1574.8    c-12.7-55.1-21-110.5-21.5-166c3.2,3.4,6.1,6.8,8.9,10.2C3017.8,1470.3,3020.1,1522.5,3016.8,1574.8z M3035.3,1515.9    c1.8,18,3.4,36.8,3.3,55.2c-6.2,6.9-11.1,13.9-14.8,20.9c-0.6-2.5-1.3-5-2-7.5c4.1-55.2-1.6-110.7-17.1-165.1    c23.9,29.5,35.2,61.8,44.1,93.3c4.9,17.3,9.2,34.6,13,51.9C3056.3,1546.1,3047.1,1529.1,3035.3,1515.9L3035.3,1515.9z     M3067.2,1624.6c0.8-11.9,0.8-23.7-0.5-35.6c1.3,7,2.4,13.9,3.5,20.9C3069.1,1614.8,3068.1,1619.7,3067.2,1624.6L3067.2,1624.6z     M3164.7,1685.2c-2-7.5-4.1-14.9-6.3-22.2c6.4-37.6,7.3-75.5,2.9-113.2c6.4,21.2,12.9,42.4,19.3,63.6    C3175.3,1637.4,3170,1661.3,3164.7,1685.2L3164.7,1685.2z"/>
	</g>
	<path class="st2" d="M3096.2,1698c-44.8,13.5-120.8,14.5-173.3,2.3c-12-2.8-23.1-6.2-37-7.6c-10.9-1.1-22.5-0.8-33.4-0.1   c-35.1,2.3,183.5-105.9,149.8-102.2c-33.7,3.7-119.1-55.7-145.1-64.4c-12.1-4.1-165-41.8-193.3,47.6c-5.9,18.7-76.5,64.5-169,94.2   c-202,64.9-356.7,22.6-564,30.8c12-5.9,24-11.8,36.1-17.7c-77.7-8.9-167.2-3-224,14.8c-16.1-4.5-18.8-13.2-5.5-18.2   c-88.2-10.8-173.4,16.4-266,14.8c-51.6-0.9-98.8-10.7-149-15.5c-61.3-5.9-125.5-4.1-187.9-2.3c-83.8,2.4-167.5,4.8-251.3,7.2   c-30.4,0.9-61.5,1.7-91.5-0.8c-38.7-3.3-73.1-13.9-112.5-13.9c-141,0.1-211.4-114.5-266.3-122.5c-150.5-22.1-89.3-46.9-89.2,32   c0.1,98.4-112,94.2-199.3,90c-85.5-4.1-182.8-7.1-244.4,11.2c-31.4,9.3-45.9,21.9-48.4,35.6c-3.8,20.6,29.3,34.3,58.6,66.1   c42.2,45.6,41,87.6,55.7,114.5c51.5,94.5,318.1,37.4,542.4,20.6c9.3-0.7,162.3,5.3,468.1,17.3c670.8,26.3,1384,92,1763.5,82.3   c139.6-3.6,277.1-14.7,277.1-14.7c92.2-9.3,178.2-24.7,274-29.9"/>
</g>
<div xmlns="" id="divScriptsUsed" style="display: none"/><script xmlns="" id="globalVarsDetection" src="moz-extension://fc34a10b-a25e-4d90-bd6e-f0ef672511dc/js/wrs_env.js"/></svg>