<svg version="1.1" id="Layer_1" xmlns="http://www.w3.org/2000/svg" xmlns:xlink="http://www.w3.org/1999/xlink" x="0px" y="0px"
	 width="100%" viewBox="0 0 612 150" enable-background="new 0 0 612 150" xml:space="preserve">
<path fill="none" opacity="1.000000" stroke="#c79c67" stroke-linecap="round" stroke-linejoin="round" stroke-width="3.000000"
	d="
M210.000000,107.500000 
	C211.201050,95.000000 211.808655,82.510971 210.061066,69.991478 
	C209.674820,67.224434 208.067642,65.702301 205.979828,64.536125 
	C202.329620,62.497272 200.005310,64.094528 200.002975,68.500000 
	C199.995148,83.333336 199.971634,98.166763 200.023849,112.999916 
	C200.034348,115.982422 199.628494,118.738075 197.473053,121.288475 
	C195.736038,118.393417 194.211853,115.634148 192.469223,113.020515 
	C191.161804,111.059601 189.486313,110.606781 186.973297,111.417198 
	C178.113342,114.274460 169.849213,107.636108 170.054916,99.001305 
	C170.128555,95.910294 169.093628,94.780388 165.997253,94.949966 
	C162.175400,95.159264 158.324265,95.164055 154.502609,94.952766 
	C150.854248,94.751068 150.130951,97.162743 151.126450,99.444839 
	C153.275650,104.371696 152.929962,109.420448 153.000000,114.500000 
"/>
<path fill="none" opacity="1.000000" stroke="#c79c67" stroke-linecap="round" stroke-linejoin="round" stroke-width="3.000000"
	d="
M522.500000,122.000000 
	C500.974518,121.844841 479.494354,123.128357 457.994934,123.849030 
	C450.526703,124.099358 442.920502,122.721283 435.519104,124.102348 
	C425.073181,126.051521 414.390198,125.809525 404.005096,128.023865 
	C403.299408,128.174316 402.666656,128.666656 402.000000,128.999985 
"/>
<path fill="none" opacity="1.000000" stroke="#c79c67" stroke-linecap="round" stroke-linejoin="round" stroke-width="3.000000"
	d="
M366.000000,132.000000 
	C365.750183,122.166664 366.968018,112.357895 366.096039,102.491516 
	C365.497986,95.725174 365.213135,95.055504 358.500153,94.985771 
	C350.338287,94.901001 349.752197,93.101685 350.909821,104.509155 
	C351.309906,108.451637 350.634247,112.499001 350.510864,116.500336 
	C350.421112,119.410461 348.333923,118.933655 346.500275,119.006828 
	C341.130737,119.221107 335.807098,118.753128 330.250000,117.787758 
	C330.250000,116.166664 330.250000,114.333336 330.250000,112.000000 
	C335.822937,112.000000 341.177063,112.000000 346.222015,112.000000 
	C348.089691,109.217934 345.623749,106.124748 348.000000,104.000000 
"/>
<path fill="none" opacity="1.000000" stroke="#c79c67" stroke-linecap="round" stroke-linejoin="round" stroke-width="2.000000"
	d="
M398.000000,120.000000 
	C392.716553,126.087967 386.293518,129.327316 377.991516,128.596497 
	C375.892456,128.411713 373.291504,128.183487 371.938995,130.970398 
	C371.241364,132.407913 369.589996,132.499878 368.000641,132.531952 
	C358.293396,132.727814 348.632812,131.918793 339.008240,130.920456 
	C332.176300,130.211777 329.306274,125.847145 330.037109,118.107048 
	C325.863617,117.747612 321.660553,117.847511 317.477661,117.130173 
	C305.149872,115.016037 303.320343,113.256752 302.985779,101.000389 
	C302.917450,98.497704 302.537781,96.000198 302.533997,93.499947 
	C302.529663,90.646721 301.176727,89.667671 298.498993,89.991707 
	C295.338043,90.374214 292.169586,90.694366 288.750000,91.069458 
	C288.750000,94.174637 288.750000,97.350487 288.750000,100.650040 
	C281.796021,101.825729 275.094391,100.764084 268.532562,99.782288 
	C265.758301,99.367180 263.243164,96.838821 260.000000,97.000000 
"/>
<path fill="none" opacity="1.000000" stroke="#c79c67" stroke-linecap="round" stroke-linejoin="round" stroke-width="3.000000"
	d="
M246.500000,108.500000 
	C244.906403,108.587883 243.027634,108.716805 242.061798,107.452774 
	C239.060181,103.524368 234.588684,105.806763 230.973312,104.578583 
	C230.327713,104.359268 228.610443,105.163536 228.608963,105.500473 
	C228.588699,110.180153 222.406189,113.669113 225.969955,119.020012 
	C226.200638,119.366371 226.000000,120.000000 226.000000,120.500000 
	C220.487915,123.292694 219.998001,123.921371 221.621796,130.469803 
	C222.219330,132.879471 221.172928,134.035217 219.957382,136.379944 
	C217.250107,129.095810 217.413345,122.216614 217.080444,115.496017 
	C216.428040,102.324883 217.555298,89.164406 217.929825,75.998001 
	C218.138626,68.657600 215.991638,66.607071 209.500000,66.500000 
"/>
<path fill="none" opacity="1.000000" stroke="#c79c67" stroke-linecap="round" stroke-linejoin="round" stroke-width="3.000000"
	d="
M92.500000,131.000000 
	C84.516060,134.484543 76.263077,133.385010 67.997841,132.520645 
	C60.453098,131.731613 53.265724,129.523865 45.954910,127.678650 
	C40.548306,126.314056 34.617691,125.679268 29.500000,129.500000 
"/>
<path fill="none" opacity="1.000000" stroke="#c79c67" stroke-linecap="round" stroke-linejoin="round" stroke-width="2.000000"
	d="
M533.000000,121.000000 
	C532.445862,114.177437 534.212280,107.271774 532.029907,100.490364 
	C529.693054,93.228806 524.294861,91.001923 516.964417,93.390846 
	C507.352692,96.523209 499.325195,102.518021 490.594330,107.176781 
	C479.004059,113.361313 467.175720,118.621696 454.500000,122.000000 
"/>
<path fill="none" opacity="1.000000" stroke="#c79c67" stroke-linecap="round" stroke-linejoin="round" stroke-width="2.000000"
	d="
M139.500000,122.500000 
	C138.894363,115.318932 137.343979,114.388695 129.074478,116.614532 
	C128.909668,119.682739 128.796677,122.893707 127.582970,126.032089 
	C124.816628,133.185333 119.287956,135.303467 113.031158,130.955154 
	C109.945938,128.811005 107.270210,126.624062 102.991829,126.831535 
	C99.179199,127.016418 98.260193,123.637779 99.102791,120.527847 
	C99.850754,117.767181 99.120811,116.556023 96.499718,116.534927 
	C91.667366,116.496033 86.833336,116.666664 82.000000,116.750000 
"/>
<path fill="none" opacity="1.000000" stroke="#c79c67" stroke-linecap="round" stroke-linejoin="round" stroke-width="2.000000"
	d="
M532.500000,99.000000 
	C537.882080,100.414711 541.774109,104.479980 546.372131,107.214928 
	C556.446594,113.207336 566.998718,115.741310 578.496460,114.948845 
	C580.521301,114.809288 582.500000,113.999985 584.500000,113.499985 
"/>
<path fill="none" opacity="1.000000" stroke="#c79c67" stroke-linecap="round" stroke-linejoin="round" stroke-width="3.000000"
	d="
M259.000000,95.500000 
	C256.693237,90.164253 258.478333,84.484810 257.640564,78.978615 
	C256.920898,74.248482 256.422028,69.356468 257.456635,64.490784 
	C258.021729,61.833271 257.000275,59.357002 254.010330,59.618195 
	C249.709473,59.993904 245.626770,59.493279 241.466736,58.667591 
	C241.048691,58.584618 238.817566,58.135120 239.000000,59.999897 
	C239.000000,74.999931 239.000000,89.999962 239.000000,105.000000 
"/>
<path fill="none" opacity="1.000000" stroke="#c79c67" stroke-linecap="round" stroke-linejoin="round" stroke-width="3.000000"
	d="
M80.000000,56.500000 
	C78.200104,61.613983 78.894501,66.803909 79.493187,72.000786 
	C80.523010,80.940048 80.487564,89.703690 75.000000,97.500000 
"/>
<path fill="none" opacity="1.000000" stroke="#c79c67" stroke-linecap="round" stroke-linejoin="round" stroke-width="3.000000"
	d="
M208.000000,67.500000 
	C206.168076,77.305107 206.661499,87.175041 207.618988,96.988388 
	C207.959427,100.477531 206.983490,104.216644 209.000000,107.500000 
"/>
<path fill="none" opacity="1.000000" stroke="#c79c67" stroke-linecap="round" stroke-linejoin="round" stroke-width="3.000000"
	d="
M571.500000,119.999992 
	C559.500000,120.333328 547.501099,120.737129 535.498779,120.919647 
	C533.810120,120.945320 532.582703,122.038963 531.000000,122.000000 
"/>
<path fill="none" opacity="1.000000" stroke="#c79c67" stroke-linecap="round" stroke-linejoin="round" stroke-width="2.000000"
	d="
M258.000000,99.500000 
	C257.500000,103.666672 256.957367,107.828812 256.514648,112.001556 
	C256.208160,114.890358 257.360779,116.345634 260.503235,116.032410 
	C263.655182,115.718246 266.875763,115.919739 269.983063,115.398911 
	C271.671448,115.115891 274.811432,115.778450 274.781403,113.502884 
	C274.747101,110.902565 274.375641,107.630577 271.476746,106.042442 
	C270.112366,105.294968 268.499878,105.000381 266.905457,104.469131 
	C265.990967,103.000000 266.539520,101.500000 267.000000,100.000000 
"/>
<path fill="none" opacity="1.000000" stroke="#c79c67" stroke-linecap="round" stroke-linejoin="round" stroke-width="2.000000"
	d="
M96.500000,65.500000 
	C94.004745,68.283455 91.055618,71.484230 91.216309,74.990082 
	C91.605286,83.476280 86.116783,93.309975 96.150299,99.644363 
	C93.127609,105.533691 94.927353,110.775375 97.000000,116.000000 
"/>
<path fill="none" opacity="1.000000" stroke="#c79c67" stroke-linecap="round" stroke-linejoin="round" stroke-width="2.000000"
	d="
M248.500000,29.000000 
	C250.222244,30.030855 250.651428,31.550161 250.540909,33.502316 
	C250.381027,36.326595 250.457306,39.167656 250.522934,41.999470 
	C250.546188,43.002792 250.829956,44.873478 251.000488,44.874138 
	C257.908173,44.900768 254.209534,50.137154 254.898468,53.024227 
	C255.355347,54.938812 255.466354,57.188835 254.000000,59.000000 
"/>
<path fill="none" opacity="1.000000" stroke="#c79c67" stroke-linecap="round" stroke-linejoin="round" stroke-width="3.000000"
	d="
M524.000000,94.000000 
	C523.333374,107.166664 522.679321,120.334007 521.981873,133.499039 
	C521.905884,134.933701 521.858948,136.573715 519.996277,136.983139 
	C517.594543,137.511078 517.193542,135.470123 516.541931,133.981644 
	C516.147766,133.081268 515.999573,131.995514 516.026245,131.000702 
	C516.254883,122.475647 515.499878,113.992943 514.988403,105.500702 
	C514.763855,101.772934 515.213745,98.125496 516.000000,94.500000 
"/>
<path fill="none" opacity="1.000000" stroke="#c79c67" stroke-linecap="round" stroke-linejoin="round" stroke-width="3.000000"
	d="
M246.000000,29.000000 
	C244.384689,30.879280 245.297043,32.908775 245.403000,35.004902 
	C245.603622,38.973148 247.954514,42.964268 243.225647,46.779671 
	C240.509460,48.971157 241.758102,54.116646 242.000000,58.000000 
"/>
<path fill="none" opacity="1.000000" stroke="#c79c67" stroke-linecap="round" stroke-linejoin="round" stroke-width="3.000000"
	d="
M150.500000,100.000000 
	C146.160263,100.000000 141.820511,100.000000 137.515244,100.000000 
	C135.544617,105.221466 137.146301,110.188248 136.500000,115.000000 
"/>
<path fill="none" opacity="1.000000" stroke="#c79c67" stroke-linecap="round" stroke-linejoin="round" stroke-width="2.000000"
	d="
M62.500000,128.500000 
	C67.333336,128.833328 72.166687,129.435822 76.999992,129.435379 
	C83.831177,129.434738 90.687973,130.040207 97.500000,129.000000 
"/>
<path fill="none" opacity="1.000000" stroke="#c79c67" stroke-linecap="round" stroke-linejoin="round" stroke-width="3.000000"
	d="
M399.000000,129.000000 
	C393.000000,129.833328 386.973907,130.517654 381.010803,131.561752 
	C377.949188,132.097809 375.000000,132.180786 372.000000,131.500000 
"/>
<path fill="none" opacity="1.000000" stroke="#c79c67" stroke-linecap="round" stroke-linejoin="round" stroke-width="2.000000"
	d="
M432.500000,123.000000 
	C424.684113,122.019714 417.531830,117.986877 409.500000,118.000000 
"/>
<path fill="none" opacity="1.000000" stroke="#c79c67" stroke-linecap="round" stroke-linejoin="round" stroke-width="3.000000"
	d="
M531.500000,99.500008 
	C531.000000,100.166679 530.053772,100.843666 530.068970,101.498413 
	C530.223145,108.165176 529.414612,114.856300 530.500000,121.500000 
"/>
<path fill="none" opacity="1.000000" stroke="#c79c67" stroke-linecap="round" stroke-linejoin="round" stroke-width="5.000000"
	d="
M78.000000,35.500000 
	C80.277138,40.977200 78.565918,46.965763 80.088829,52.475449 
	C81.192627,56.468872 81.688812,60.413898 81.500000,64.500000 
"/>
<path fill="none" opacity="1.000000" stroke="#c79c67" stroke-linecap="round" stroke-linejoin="round" stroke-width="3.000000"
	d="
M350.000000,119.500000 
	C351.801636,123.831856 351.245941,128.520096 351.841339,133.020981 
	C352.237610,136.016663 352.874329,137.280624 356.003571,137.047821 
	C358.987061,136.825882 362.000000,137.000000 365.105133,137.000000 
	C365.400085,135.681549 365.700043,134.340775 366.000000,133.000000 
"/>
<path fill="none" opacity="1.000000" stroke="#c79c67" stroke-linecap="round" stroke-linejoin="round" stroke-width="3.000000"
	d="
M247.500000,8.500000 
	C246.098816,14.968346 248.184402,21.526096 247.000000,28.000000 
"/>
<path fill="none" opacity="1.000000" stroke="#c79c67" stroke-linecap="round" stroke-linejoin="round" stroke-width="3.000000"
	d="
M94.000000,98.500000 
	C87.654961,99.055443 81.455803,100.996773 75.000000,100.500000 
"/>
<path fill="none" opacity="1.000000" stroke="#c79c67" stroke-linecap="round" stroke-linejoin="round" stroke-width="3.000000"
	d="
M94.500000,101.500000 
	C88.577156,102.861069 82.510170,102.924835 76.500000,103.500000 
"/>
<path fill="none" opacity="1.000000" stroke="#c79c67" stroke-linecap="round" stroke-linejoin="round" stroke-width="3.000000"
	d="
M410.000000,126.500000 
	C410.393250,119.868050 408.736298,114.329529 401.607513,111.365059 
	C397.411835,116.614487 397.908112,122.926064 399.796387,128.397720 
	C401.239349,132.579010 400.455872,135.833328 399.500000,139.500000 
"/>
<path fill="none" opacity="1.000000" stroke="#c79c67" stroke-linecap="round" stroke-linejoin="round" stroke-width="2.000000"
	d="
M74.499992,98.500000 
	C74.583328,99.666664 74.273285,101.073235 74.814476,101.960670 
	C78.079269,107.314171 77.112991,112.884117 76.286255,118.456154 
	C69.818733,118.371857 69.167274,124.695160 65.500000,127.500000 
"/>
<path fill="none" opacity="1.000000" stroke="#c79c67" stroke-linecap="round" stroke-linejoin="round" stroke-width="3.000000"
	d="
M85.000000,52.500000 
	C84.772766,56.372238 87.942650,55.391457 89.794930,55.466370 
	C90.783371,59.678020 85.827629,64.660385 92.500000,67.000000 
"/>
<path fill="none" opacity="1.000000" stroke="#c79c67" stroke-linecap="round" stroke-linejoin="round" stroke-width="3.000000"
	d="
M404.000000,115.500000 
	C401.935913,119.528206 403.489166,123.845802 403.000000,128.000000 
"/>
<path fill="none" opacity="1.000000" stroke="#c79c67" stroke-linecap="round" stroke-linejoin="round" stroke-width="3.000000"
	d="
M209.499985,108.500000 
	C209.833328,112.500000 210.166656,116.500000 210.499985,120.500000 
"/>
<path fill="none" opacity="1.000000" stroke="#c79c67" stroke-linecap="round" stroke-linejoin="round" stroke-width="4.000000"
	d="
M531.499939,122.500000 
	C531.666626,125.500000 531.833313,128.500000 531.999939,131.500000 
"/>
<path fill="none" opacity="1.000000" stroke="#c79c67" stroke-linecap="round" stroke-linejoin="round" stroke-width="2.000000"
	d="
M523.500000,121.500000 
	C525.995911,121.728371 528.557617,120.968979 531.000000,122.000000 
"/>
</svg>