<svg width="1595" height="1595" viewBox="0 0 1595 1595" fill="none" xmlns="http://www.w3.org/2000/svg">
<rect width="398.513" height="398.513" fill="white" fill-opacity="0.5"/>
<rect x="398.513" y="398.513" width="398.513" height="398.513" fill="white" fill-opacity="0.5"/>
<rect x="797.027" width="398.513" height="398.513" fill="white" fill-opacity="0.5"/>
<rect x="1195.54" y="398.513" width="398.513" height="398.513" fill="white" fill-opacity="0.5"/>
<rect y="797.027" width="398.513" height="398.513" fill="white" fill-opacity="0.5"/>
<rect x="398.513" y="1195.54" width="398.513" height="398.513" fill="white" fill-opacity="0.5"/>
<rect x="797.027" y="797.027" width="398.513" height="398.513" fill="white" fill-opacity="0.5"/>
<rect x="1195.54" y="1195.54" width="398.513" height="398.513" fill="white" fill-opacity="0.5"/>
<rect x="398.513" y="1328.38" width="66.4189" height="66.4189" fill="white" fill-opacity="0.5"/>
<rect x="464.932" y="1394.8" width="66.4189" height="66.4189" fill="white" fill-opacity="0.5"/>
<rect x="531.351" y="1328.38" width="66.4189" height="66.4189" fill="white" fill-opacity="0.5"/>
<rect x="597.77" y="1394.8" width="66.4189" height="66.4189" fill="white" fill-opacity="0.5"/>
<rect x="398.513" y="1461.22" width="66.4189" height="66.4189" fill="white" fill-opacity="0.5"/>
<rect x="464.932" y="1527.63" width="66.4189" height="66.4189" fill="white" fill-opacity="0.5"/>
<rect x="531.351" y="1461.22" width="66.4189" height="66.4189" fill="white" fill-opacity="0.5"/>
<rect x="597.77" y="1527.63" width="66.4189" height="66.4189" fill="white" fill-opacity="0.5"/>
<rect x="1195.54" y="1328.38" width="66.4189" height="66.4189" fill="white" fill-opacity="0.5"/>
<rect x="1261.96" y="1394.8" width="66.4189" height="66.4189" fill="white" fill-opacity="0.5"/>
<rect x="1328.38" y="1328.38" width="66.4189" height="66.4189" fill="white" fill-opacity="0.5"/>
<rect x="1394.8" y="1394.8" width="66.4189" height="66.4189" fill="white" fill-opacity="0.5"/>
<rect x="1195.54" y="1461.22" width="66.4189" height="66.4189" fill="white" fill-opacity="0.5"/>
<rect x="1261.96" y="1527.63" width="66.4189" height="66.4189" fill="white" fill-opacity="0.5"/>
<rect x="1328.38" y="1461.22" width="66.4189" height="66.4189" fill="white" fill-opacity="0.5"/>
<rect x="1394.8" y="1527.63" width="66.4189" height="66.4189" fill="white" fill-opacity="0.5"/>
<rect x="929.865" y="398.513" width="66.4189" height="66.4189" fill="white" fill-opacity="0.5"/>
<rect x="996.284" y="464.932" width="66.4189" height="66.4189" fill="white" fill-opacity="0.5"/>
<rect x="1062.7" y="398.513" width="66.4189" height="66.4189" fill="white" fill-opacity="0.5"/>
<rect x="1129.12" y="464.932" width="66.4189" height="66.4189" fill="white" fill-opacity="0.5"/>
<rect x="929.865" y="531.351" width="66.4189" height="66.4189" fill="white" fill-opacity="0.5"/>
<rect x="996.284" y="597.77" width="66.4189" height="66.4189" fill="white" fill-opacity="0.5"/>
<rect x="1062.7" y="531.351" width="66.4189" height="66.4189" fill="white" fill-opacity="0.5"/>
<rect x="1129.12" y="597.77" width="66.4189" height="66.4189" fill="white" fill-opacity="0.5"/>
<rect x="398.513" y="132.838" width="66.4189" height="66.4189" fill="white" fill-opacity="0.5"/>
<rect x="464.932" y="199.257" width="66.4189" height="66.4189" fill="white" fill-opacity="0.5"/>
<rect x="531.351" y="132.838" width="66.4189" height="66.4189" fill="white" fill-opacity="0.5"/>
<rect x="597.77" y="199.257" width="66.4189" height="66.4189" fill="white" fill-opacity="0.5"/>
<rect x="398.513" y="265.676" width="66.4189" height="66.4189" fill="white" fill-opacity="0.5"/>
<rect x="464.932" y="332.095" width="66.4189" height="66.4189" fill="white" fill-opacity="0.5"/>
<rect x="531.351" y="265.676" width="66.4189" height="66.4189" fill="white" fill-opacity="0.5"/>
<rect x="597.77" y="332.095" width="66.4189" height="66.4189" fill="white" fill-opacity="0.5"/>
<rect x="132.838" y="929.865" width="66.4189" height="66.4189" fill="white" fill-opacity="0.5"/>
<rect x="199.257" y="996.284" width="66.4189" height="66.4189" fill="white" fill-opacity="0.5"/>
<rect x="265.676" y="929.865" width="66.4189" height="66.4189" fill="white" fill-opacity="0.5"/>
<rect x="332.095" y="996.284" width="66.4189" height="66.4189" fill="white" fill-opacity="0.5"/>
<rect x="132.838" y="1062.7" width="66.4189" height="66.4189" fill="white" fill-opacity="0.5"/>
<rect x="199.257" y="1129.12" width="66.4189" height="66.4189" fill="white" fill-opacity="0.5"/>
<rect x="265.676" y="1062.7" width="66.4189" height="66.4189" fill="white" fill-opacity="0.5"/>
<rect x="332.095" y="1129.12" width="66.4189" height="66.4189" fill="white" fill-opacity="0.5"/>
<rect x="66.4189" y="664.189" width="33.2094" height="33.2094" fill="white" fill-opacity="0.5"/>
<rect x="99.6284" y="697.398" width="33.2094" height="33.2094" fill="white" fill-opacity="0.5"/>
<rect x="132.838" y="664.189" width="33.2094" height="33.2094" fill="white" fill-opacity="0.5"/>
<rect x="166.047" y="697.398" width="33.2094" height="33.2094" fill="white" fill-opacity="0.5"/>
<rect x="66.4189" y="730.608" width="33.2094" height="33.2094" fill="white" fill-opacity="0.5"/>
<rect x="99.6284" y="763.817" width="33.2094" height="33.2094" fill="white" fill-opacity="0.5"/>
<rect x="132.838" y="730.608" width="33.2094" height="33.2094" fill="white" fill-opacity="0.5"/>
<rect x="166.047" y="763.817" width="33.2094" height="33.2094" fill="white" fill-opacity="0.5"/>
<rect x="1062.7" y="1062.7" width="33.2094" height="33.2094" fill="white" fill-opacity="0.5"/>
<rect x="1095.91" y="1095.91" width="33.2094" height="33.2094" fill="white" fill-opacity="0.5"/>
<rect x="1129.12" y="1062.7" width="33.2094" height="33.2094" fill="white" fill-opacity="0.5"/>
<rect x="1162.33" y="1095.91" width="33.2094" height="33.2094" fill="white" fill-opacity="0.5"/>
<rect x="1062.7" y="1129.12" width="33.2094" height="33.2094" fill="white" fill-opacity="0.5"/>
<rect x="1095.91" y="1162.33" width="33.2094" height="33.2094" fill="white" fill-opacity="0.5"/>
<rect x="1129.12" y="1129.12" width="33.2094" height="33.2094" fill="white" fill-opacity="0.5"/>
<rect x="1162.33" y="1162.33" width="33.2094" height="33.2094" fill="white" fill-opacity="0.5"/>
<rect x="1461.22" width="33.2094" height="33.2094" fill="white" fill-opacity="0.5"/>
<rect x="1494.43" y="33.2095" width="33.2094" height="33.2094" fill="white" fill-opacity="0.5"/>
<rect x="1527.63" width="33.2094" height="33.2094" fill="white" fill-opacity="0.5"/>
<rect x="1560.84" y="33.2095" width="33.2094" height="33.2094" fill="white" fill-opacity="0.5"/>
<rect x="1461.22" y="66.4189" width="33.2094" height="33.2094" fill="white" fill-opacity="0.5"/>
<rect x="1494.43" y="99.6284" width="33.2094" height="33.2094" fill="white" fill-opacity="0.5"/>
<rect x="1527.63" y="66.4189" width="33.2094" height="33.2094" fill="white" fill-opacity="0.5"/>
<rect x="1560.84" y="99.6284" width="33.2094" height="33.2094" fill="white" fill-opacity="0.5"/>
<rect y="199.257" width="33.2094" height="33.2094" fill="white" fill-opacity="0.5"/>
<rect x="33.2095" y="232.466" width="33.2094" height="33.2094" fill="white" fill-opacity="0.5"/>
<rect x="66.4189" y="199.257" width="33.2094" height="33.2094" fill="white" fill-opacity="0.5"/>
<rect x="99.6284" y="232.466" width="33.2094" height="33.2094" fill="white" fill-opacity="0.5"/>
<rect y="265.676" width="33.2094" height="33.2094" fill="white" fill-opacity="0.5"/>
<rect x="33.2095" y="298.885" width="33.2094" height="33.2094" fill="white" fill-opacity="0.5"/>
<rect x="66.4189" y="265.676" width="33.2094" height="33.2094" fill="white" fill-opacity="0.5"/>
<rect x="99.6284" y="298.885" width="33.2094" height="33.2094" fill="white" fill-opacity="0.5"/>
<rect x="1062.7" y="1461.22" width="16.6047" height="16.6047" fill="white" fill-opacity="0.5"/>
<rect x="1079.31" y="1477.82" width="16.6047" height="16.6047" fill="white" fill-opacity="0.5"/>
<rect x="1095.91" y="1461.22" width="16.6047" height="16.6047" fill="white" fill-opacity="0.5"/>
<rect x="1112.52" y="1477.82" width="16.6047" height="16.6047" fill="white" fill-opacity="0.5"/>
<rect x="1062.7" y="1494.43" width="16.6047" height="16.6047" fill="white" fill-opacity="0.5"/>
<rect x="1079.31" y="1511.03" width="16.6047" height="16.6047" fill="white" fill-opacity="0.5"/>
<rect x="1095.91" y="1494.43" width="16.6047" height="16.6047" fill="white" fill-opacity="0.5"/>
<rect x="1112.52" y="1511.03" width="16.6047" height="16.6047" fill="white" fill-opacity="0.5"/>
<rect x="1129.12" y="1461.22" width="16.6047" height="16.6047" fill="white" fill-opacity="0.5"/>
<rect x="1145.73" y="1477.82" width="16.6047" height="16.6047" fill="white" fill-opacity="0.5"/>
<rect x="1162.33" y="1461.22" width="16.6047" height="16.6047" fill="white" fill-opacity="0.5"/>
<rect x="1178.94" y="1477.82" width="16.6047" height="16.6047" fill="white" fill-opacity="0.5"/>
<rect x="1129.12" y="1494.43" width="16.6047" height="16.6047" fill="white" fill-opacity="0.5"/>
<rect x="1145.73" y="1511.03" width="16.6047" height="16.6047" fill="white" fill-opacity="0.5"/>
<rect x="1162.33" y="1494.43" width="16.6047" height="16.6047" fill="white" fill-opacity="0.5"/>
<rect x="1178.94" y="1511.03" width="16.6047" height="16.6047" fill="white" fill-opacity="0.5"/>
<rect x="1062.7" y="1527.63" width="16.6047" height="16.6047" fill="white" fill-opacity="0.5"/>
<rect x="1079.31" y="1544.24" width="16.6047" height="16.6047" fill="white" fill-opacity="0.5"/>
<rect x="1095.91" y="1527.63" width="16.6047" height="16.6047" fill="white" fill-opacity="0.5"/>
<rect x="1112.52" y="1544.24" width="16.6047" height="16.6047" fill="white" fill-opacity="0.5"/>
<rect x="1062.7" y="1560.84" width="16.6047" height="16.6047" fill="white" fill-opacity="0.5"/>
<rect x="1079.31" y="1577.45" width="16.6047" height="16.6047" fill="white" fill-opacity="0.5"/>
<rect x="1095.91" y="1560.84" width="16.6047" height="16.6047" fill="white" fill-opacity="0.5"/>
<rect x="1112.52" y="1577.45" width="16.6047" height="16.6047" fill="white" fill-opacity="0.5"/>
<rect x="1129.12" y="1527.63" width="16.6047" height="16.6047" fill="white" fill-opacity="0.5"/>
<rect x="1145.73" y="1544.24" width="16.6047" height="16.6047" fill="white" fill-opacity="0.5"/>
<rect x="1162.33" y="1527.63" width="16.6047" height="16.6047" fill="white" fill-opacity="0.5"/>
<rect x="1178.94" y="1544.24" width="16.6047" height="16.6047" fill="white" fill-opacity="0.5"/>
<rect x="1129.12" y="1560.84" width="16.6047" height="16.6047" fill="white" fill-opacity="0.5"/>
<rect x="1145.73" y="1577.45" width="16.6047" height="16.6047" fill="white" fill-opacity="0.5"/>
<rect x="1162.33" y="1560.84" width="16.6047" height="16.6047" fill="white" fill-opacity="0.5"/>
<rect x="1178.94" y="1577.45" width="16.6047" height="16.6047" fill="white" fill-opacity="0.5"/>
<rect x="531.351" y="797.027" width="33.2094" height="33.2094" fill="white" fill-opacity="0.5"/>
<rect x="564.561" y="830.236" width="33.2094" height="33.2094" fill="white" fill-opacity="0.5"/>
<rect x="597.77" y="797.027" width="33.2094" height="33.2094" fill="white" fill-opacity="0.5"/>
<rect x="630.98" y="830.236" width="33.2094" height="33.2094" fill="white" fill-opacity="0.5"/>
<rect x="531.351" y="863.446" width="33.2094" height="33.2094" fill="white" fill-opacity="0.5"/>
<rect x="564.561" y="896.655" width="33.2094" height="33.2094" fill="white" fill-opacity="0.5"/>
<rect x="597.77" y="863.446" width="33.2094" height="33.2094" fill="white" fill-opacity="0.5"/>
<rect x="630.98" y="896.655" width="33.2094" height="33.2094" fill="white" fill-opacity="0.5"/>
<rect x="664.189" y="797.027" width="33.2094" height="33.2094" fill="white" fill-opacity="0.5"/>
<rect x="697.399" y="830.236" width="33.2094" height="33.2094" fill="white" fill-opacity="0.5"/>
<rect x="730.608" y="797.027" width="33.2094" height="33.2094" fill="white" fill-opacity="0.5"/>
<rect x="763.817" y="830.236" width="33.2094" height="33.2094" fill="white" fill-opacity="0.5"/>
<rect x="664.189" y="863.446" width="33.2094" height="33.2094" fill="white" fill-opacity="0.5"/>
<rect x="697.398" y="896.655" width="33.2094" height="33.2094" fill="white" fill-opacity="0.5"/>
<rect x="730.608" y="863.446" width="33.2094" height="33.2094" fill="white" fill-opacity="0.5"/>
<rect x="763.818" y="896.655" width="33.2094" height="33.2094" fill="white" fill-opacity="0.5"/>
<rect x="531.351" y="929.865" width="33.2094" height="33.2094" fill="white" fill-opacity="0.5"/>
<rect x="564.561" y="963.074" width="33.2094" height="33.2094" fill="white" fill-opacity="0.5"/>
<rect x="597.77" y="929.865" width="33.2094" height="33.2094" fill="white" fill-opacity="0.5"/>
<rect x="630.98" y="963.074" width="33.2094" height="33.2094" fill="white" fill-opacity="0.5"/>
<rect x="531.351" y="996.284" width="33.2094" height="33.2094" fill="white" fill-opacity="0.5"/>
<rect x="564.561" y="1029.49" width="33.2094" height="33.2094" fill="white" fill-opacity="0.5"/>
<rect x="597.77" y="996.284" width="33.2094" height="33.2094" fill="white" fill-opacity="0.5"/>
<rect x="630.98" y="1029.49" width="33.2094" height="33.2094" fill="white" fill-opacity="0.5"/>
<rect x="664.189" y="929.865" width="33.2094" height="33.2094" fill="white" fill-opacity="0.5"/>
<rect x="697.398" y="963.074" width="33.2094" height="33.2094" fill="white" fill-opacity="0.5"/>
<rect x="730.608" y="929.865" width="33.2094" height="33.2094" fill="white" fill-opacity="0.5"/>
<rect x="763.817" y="963.074" width="33.2094" height="33.2094" fill="white" fill-opacity="0.5"/>
<rect x="664.189" y="996.284" width="33.2094" height="33.2094" fill="white" fill-opacity="0.5"/>
<rect x="697.398" y="1029.49" width="33.2094" height="33.2094" fill="white" fill-opacity="0.5"/>
<rect x="730.608" y="996.284" width="33.2094" height="33.2094" fill="white" fill-opacity="0.5"/>
<rect x="763.817" y="1029.49" width="33.2094" height="33.2094" fill="white" fill-opacity="0.5"/>
<rect x="1328.38" y="531.351" width="33.2094" height="33.2094" fill="white" fill-opacity="0.5"/>
<rect x="1361.59" y="564.561" width="33.2094" height="33.2094" fill="white" fill-opacity="0.5"/>
<rect x="1394.8" y="531.351" width="33.2094" height="33.2094" fill="white" fill-opacity="0.5"/>
<rect x="1428.01" y="564.561" width="33.2094" height="33.2094" fill="white" fill-opacity="0.5"/>
<rect x="1328.38" y="597.77" width="33.2094" height="33.2094" fill="white" fill-opacity="0.5"/>
<rect x="1361.59" y="630.98" width="33.2094" height="33.2094" fill="white" fill-opacity="0.5"/>
<rect x="1394.8" y="597.77" width="33.2094" height="33.2094" fill="white" fill-opacity="0.5"/>
<rect x="1428.01" y="630.98" width="33.2094" height="33.2094" fill="white" fill-opacity="0.5"/>
<rect x="1461.22" y="531.351" width="33.2094" height="33.2094" fill="white" fill-opacity="0.5"/>
<rect x="1494.43" y="564.561" width="33.2094" height="33.2094" fill="white" fill-opacity="0.5"/>
<rect x="1527.63" y="531.351" width="33.2094" height="33.2094" fill="white" fill-opacity="0.5"/>
<rect x="1560.84" y="564.561" width="33.2094" height="33.2094" fill="white" fill-opacity="0.5"/>
<rect x="1461.22" y="597.77" width="33.2094" height="33.2094" fill="white" fill-opacity="0.5"/>
<rect x="1494.43" y="630.98" width="33.2094" height="33.2094" fill="white" fill-opacity="0.5"/>
<rect x="1527.63" y="597.77" width="33.2094" height="33.2094" fill="white" fill-opacity="0.5"/>
<rect x="1560.84" y="630.98" width="33.2094" height="33.2094" fill="white" fill-opacity="0.5"/>
<rect x="1328.38" y="664.189" width="33.2094" height="33.2094" fill="white" fill-opacity="0.5"/>
<rect x="1361.59" y="697.399" width="33.2094" height="33.2094" fill="white" fill-opacity="0.5"/>
<rect x="1394.8" y="664.189" width="33.2094" height="33.2094" fill="white" fill-opacity="0.5"/>
<rect x="1428.01" y="697.399" width="33.2094" height="33.2094" fill="white" fill-opacity="0.5"/>
<rect x="1328.38" y="730.608" width="33.2094" height="33.2094" fill="white" fill-opacity="0.5"/>
<rect x="1361.59" y="763.818" width="33.2094" height="33.2094" fill="white" fill-opacity="0.5"/>
<rect x="1394.8" y="730.608" width="33.2094" height="33.2094" fill="white" fill-opacity="0.5"/>
<rect x="1428.01" y="763.818" width="33.2094" height="33.2094" fill="white" fill-opacity="0.5"/>
<rect x="1461.22" y="664.189" width="33.2094" height="33.2094" fill="white" fill-opacity="0.5"/>
<rect x="1494.43" y="697.399" width="33.2094" height="33.2094" fill="white" fill-opacity="0.5"/>
<rect x="1527.63" y="664.189" width="33.2094" height="33.2094" fill="white" fill-opacity="0.5"/>
<rect x="1560.84" y="697.399" width="33.2094" height="33.2094" fill="white" fill-opacity="0.5"/>
<rect x="1461.22" y="730.608" width="33.2094" height="33.2094" fill="white" fill-opacity="0.5"/>
<rect x="1494.43" y="763.818" width="33.2094" height="33.2094" fill="white" fill-opacity="0.5"/>
<rect x="1527.63" y="730.608" width="33.2094" height="33.2094" fill="white" fill-opacity="0.5"/>
<rect x="1560.84" y="763.818" width="33.2094" height="33.2094" fill="white" fill-opacity="0.5"/>
<rect x="797.027" width="33.2094" height="33.2094" fill="white" fill-opacity="0.5"/>
<rect x="830.236" y="33.2095" width="33.2094" height="33.2094" fill="white" fill-opacity="0.5"/>
<rect x="863.446" width="33.2094" height="33.2094" fill="white" fill-opacity="0.5"/>
<rect x="896.655" y="33.2095" width="33.2094" height="33.2094" fill="white" fill-opacity="0.5"/>
<rect x="797.027" y="66.4189" width="33.2094" height="33.2094" fill="white" fill-opacity="0.5"/>
<rect x="830.236" y="99.6284" width="33.2094" height="33.2094" fill="white" fill-opacity="0.5"/>
<rect x="863.446" y="66.4189" width="33.2094" height="33.2094" fill="white" fill-opacity="0.5"/>
<rect x="896.655" y="99.6284" width="33.2094" height="33.2094" fill="white" fill-opacity="0.5"/>
<rect x="929.865" width="33.2094" height="33.2094" fill="white" fill-opacity="0.5"/>
<rect x="963.074" y="33.2095" width="33.2094" height="33.2094" fill="white" fill-opacity="0.5"/>
<rect x="996.284" width="33.2094" height="33.2094" fill="white" fill-opacity="0.5"/>
<rect x="1029.49" y="33.2095" width="33.2094" height="33.2094" fill="white" fill-opacity="0.5"/>
<rect x="929.865" y="66.4189" width="33.2094" height="33.2094" fill="white" fill-opacity="0.5"/>
<rect x="963.074" y="99.6284" width="33.2094" height="33.2094" fill="white" fill-opacity="0.5"/>
<rect x="996.284" y="66.4189" width="33.2094" height="33.2094" fill="white" fill-opacity="0.5"/>
<rect x="1029.49" y="99.6284" width="33.2094" height="33.2094" fill="white" fill-opacity="0.5"/>
<rect x="797.027" y="132.838" width="33.2094" height="33.2094" fill="white" fill-opacity="0.5"/>
<rect x="830.236" y="166.047" width="33.2094" height="33.2094" fill="white" fill-opacity="0.5"/>
<rect x="863.446" y="132.838" width="33.2094" height="33.2094" fill="white" fill-opacity="0.5"/>
<rect x="896.655" y="166.047" width="33.2094" height="33.2094" fill="white" fill-opacity="0.5"/>
<rect x="797.027" y="199.257" width="33.2094" height="33.2094" fill="white" fill-opacity="0.5"/>
<rect x="830.236" y="232.466" width="33.2094" height="33.2094" fill="white" fill-opacity="0.5"/>
<rect x="863.446" y="199.257" width="33.2094" height="33.2094" fill="white" fill-opacity="0.5"/>
<rect x="896.655" y="232.466" width="33.2094" height="33.2094" fill="white" fill-opacity="0.5"/>
<rect x="929.865" y="132.838" width="33.2094" height="33.2094" fill="white" fill-opacity="0.5"/>
<rect x="963.074" y="166.047" width="33.2094" height="33.2094" fill="white" fill-opacity="0.5"/>
<rect x="996.284" y="132.838" width="33.2094" height="33.2094" fill="white" fill-opacity="0.5"/>
<rect x="1029.49" y="166.047" width="33.2094" height="33.2094" fill="white" fill-opacity="0.5"/>
<rect x="929.865" y="199.257" width="33.2094" height="33.2094" fill="white" fill-opacity="0.5"/>
<rect x="963.074" y="232.466" width="33.2094" height="33.2094" fill="white" fill-opacity="0.5"/>
<rect x="996.284" y="199.257" width="33.2094" height="33.2094" fill="white" fill-opacity="0.5"/>
<rect x="1029.49" y="232.466" width="33.2094" height="33.2094" fill="white" fill-opacity="0.5"/>
<rect x="1328.38" y="797.027" width="99.6284" height="99.6284" fill="white" fill-opacity="0.5"/>
<rect x="1428.01" y="896.655" width="99.6284" height="99.6284" fill="white" fill-opacity="0.5"/>
<rect x="1195.54" y="199.257" width="99.6284" height="99.6284" fill="white" fill-opacity="0.5"/>
<rect x="1295.17" y="298.885" width="99.6284" height="99.6284" fill="white" fill-opacity="0.5"/>
<rect y="1394.8" width="99.6284" height="99.6284" fill="white" fill-opacity="0.5"/>
<rect x="99.6282" y="1494.43" width="99.6284" height="99.6284" fill="white" fill-opacity="0.5"/>
<rect x="199.257" width="99.6284" height="99.6284" fill="white" fill-opacity="0.5"/>
<rect x="298.885" y="99.6284" width="99.6284" height="99.6284" fill="white" fill-opacity="0.5"/>
<rect x="464.932" y="398.513" width="99.6284" height="99.6284" fill="white" fill-opacity="0.5"/>
<rect x="564.561" y="498.142" width="99.6284" height="99.6284" fill="white" fill-opacity="0.5"/>
<rect x="797.027" y="929.865" width="66.4189" height="66.4189" fill="white" fill-opacity="0.5"/>
<rect x="863.446" y="996.284" width="66.4189" height="66.4189" fill="white" fill-opacity="0.5"/>
</svg>
